%TF.GenerationSoftware,KiCad,Pcbnew,7.0.7*%
%TF.CreationDate,2023-09-28T16:33:33-05:00*%
%TF.ProjectId,CatLasers,4361744c-6173-4657-9273-2e6b69636164,rev?*%
%TF.SameCoordinates,Original*%
%TF.FileFunction,Soldermask,Top*%
%TF.FilePolarity,Negative*%
%FSLAX46Y46*%
G04 Gerber Fmt 4.6, Leading zero omitted, Abs format (unit mm)*
G04 Created by KiCad (PCBNEW 7.0.7) date 2023-09-28 16:33:33*
%MOMM*%
%LPD*%
G01*
G04 APERTURE LIST*
G04 Aperture macros list*
%AMRoundRect*
0 Rectangle with rounded corners*
0 $1 Rounding radius*
0 $2 $3 $4 $5 $6 $7 $8 $9 X,Y pos of 4 corners*
0 Add a 4 corners polygon primitive as box body*
4,1,4,$2,$3,$4,$5,$6,$7,$8,$9,$2,$3,0*
0 Add four circle primitives for the rounded corners*
1,1,$1+$1,$2,$3*
1,1,$1+$1,$4,$5*
1,1,$1+$1,$6,$7*
1,1,$1+$1,$8,$9*
0 Add four rect primitives between the rounded corners*
20,1,$1+$1,$2,$3,$4,$5,0*
20,1,$1+$1,$4,$5,$6,$7,0*
20,1,$1+$1,$6,$7,$8,$9,0*
20,1,$1+$1,$8,$9,$2,$3,0*%
G04 Aperture macros list end*
%ADD10RoundRect,0.102000X-0.750000X-0.450000X0.750000X-0.450000X0.750000X0.450000X-0.750000X0.450000X0*%
%ADD11RoundRect,0.102000X-0.450000X-0.750000X0.450000X-0.750000X0.450000X0.750000X-0.450000X0.750000X0*%
%ADD12RoundRect,0.102000X-0.450000X-0.450000X0.450000X-0.450000X0.450000X0.450000X-0.450000X0.450000X0*%
%ADD13R,1.701800X0.558800*%
%ADD14R,1.700000X1.700000*%
%ADD15O,1.700000X1.700000*%
%ADD16RoundRect,0.102000X1.900000X1.015000X-1.900000X1.015000X-1.900000X-1.015000X1.900000X-1.015000X0*%
%ADD17RoundRect,0.102000X-1.900000X-1.015000X1.900000X-1.015000X1.900000X1.015000X-1.900000X1.015000X0*%
%ADD18RoundRect,0.285000X-0.427000X0.437000X-0.427000X-0.437000X0.427000X-0.437000X0.427000X0.437000X0*%
%ADD19RoundRect,0.144000X0.258000X-0.943000X0.258000X0.943000X-0.258000X0.943000X-0.258000X-0.943000X0*%
%ADD20R,2.413000X0.939800*%
%ADD21R,6.019800X5.562600*%
%ADD22RoundRect,0.143300X0.253700X-0.578700X0.253700X0.578700X-0.253700X0.578700X-0.253700X-0.578700X0*%
%ADD23RoundRect,0.143300X-0.253700X0.578700X-0.253700X-0.578700X0.253700X-0.578700X0.253700X0.578700X0*%
%ADD24RoundRect,0.250000X-0.450000X0.262500X-0.450000X-0.262500X0.450000X-0.262500X0.450000X0.262500X0*%
%ADD25RoundRect,0.250000X0.450000X-0.262500X0.450000X0.262500X-0.450000X0.262500X-0.450000X-0.262500X0*%
%ADD26RoundRect,0.250000X-0.262500X-0.450000X0.262500X-0.450000X0.262500X0.450000X-0.262500X0.450000X0*%
%ADD27RoundRect,0.250000X0.262500X0.450000X-0.262500X0.450000X-0.262500X-0.450000X0.262500X-0.450000X0*%
%ADD28R,0.508000X0.508000*%
%ADD29R,1.600200X5.689600*%
%ADD30RoundRect,0.250000X-0.250000X-0.475000X0.250000X-0.475000X0.250000X0.475000X-0.250000X0.475000X0*%
%ADD31RoundRect,0.250000X0.475000X-0.250000X0.475000X0.250000X-0.475000X0.250000X-0.475000X-0.250000X0*%
G04 APERTURE END LIST*
D10*
%TO.C,U2*%
X76975000Y-29105000D03*
X76975000Y-30375000D03*
X76975000Y-31645000D03*
X76975000Y-32915000D03*
X76975000Y-34185000D03*
X76975000Y-35455000D03*
X76975000Y-36725000D03*
X76975000Y-37995000D03*
X76975000Y-39265000D03*
X76975000Y-40535000D03*
X76975000Y-41805000D03*
X76975000Y-43075000D03*
X76975000Y-44345000D03*
X76975000Y-45615000D03*
D11*
X80010000Y-46865000D03*
X81280000Y-46865000D03*
X82550000Y-46865000D03*
X83820000Y-46865000D03*
X85090000Y-46865000D03*
X86360000Y-46865000D03*
X87630000Y-46865000D03*
X88900000Y-46865000D03*
X90170000Y-46865000D03*
X91440000Y-46865000D03*
D10*
X94475000Y-45615000D03*
X94475000Y-44345000D03*
X94475000Y-43075000D03*
X94475000Y-41805000D03*
X94475000Y-40535000D03*
X94475000Y-39265000D03*
X94475000Y-37995000D03*
X94475000Y-36725000D03*
X94475000Y-35455000D03*
X94475000Y-34185000D03*
X94475000Y-32915000D03*
X94475000Y-31645000D03*
X94475000Y-30375000D03*
X94475000Y-29105000D03*
D12*
X82825000Y-35425000D03*
X84225000Y-35425000D03*
X85625000Y-35425000D03*
X82825000Y-36825000D03*
X84225000Y-36825000D03*
X85625000Y-36825000D03*
X82825000Y-38225000D03*
X84225000Y-38225000D03*
X85625000Y-38225000D03*
%TD*%
D13*
%TO.C,U4*%
X121855200Y-52070000D03*
X121855200Y-53340000D03*
X121855200Y-54610000D03*
X132624800Y-54610000D03*
X132624800Y-53340000D03*
X132624800Y-52070000D03*
%TD*%
D14*
%TO.C,J9*%
X117957500Y-49525000D03*
D15*
X117957500Y-46985000D03*
X117957500Y-44445000D03*
X117957500Y-41905000D03*
%TD*%
D16*
%TO.C,VBatt*%
X62110500Y-59690000D03*
%TD*%
%TO.C,3.3V*%
X55760500Y-59690000D03*
%TD*%
D17*
%TO.C,GND*%
X68000000Y-61000000D03*
%TD*%
%TO.C,18V*%
X59570500Y-30480000D03*
%TD*%
D18*
%TO.C,D2*%
X49791500Y-50580000D03*
X49791500Y-53560000D03*
%TD*%
%TO.C,D1*%
X64460000Y-38320000D03*
X64460000Y-35340000D03*
%TD*%
D19*
%TO.C,U6*%
X116445000Y-63430000D03*
X117715000Y-63430000D03*
X118985000Y-63430000D03*
X120255000Y-63430000D03*
X120255000Y-58490000D03*
X118985000Y-58490000D03*
X117715000Y-58490000D03*
X116445000Y-58490000D03*
%TD*%
D20*
%TO.C,U5*%
X133577300Y-45480000D03*
X133577300Y-40880000D03*
D21*
X125220700Y-43180000D03*
%TD*%
D22*
%TO.C,U3*%
X52590500Y-49700000D03*
X54490500Y-49700000D03*
X54490500Y-52070000D03*
X53540500Y-52070000D03*
X52590500Y-52070000D03*
%TD*%
D23*
%TO.C,U1*%
X61600000Y-36915000D03*
X60650000Y-36915000D03*
X59700000Y-36915000D03*
X59700000Y-39285000D03*
X61600000Y-39285000D03*
%TD*%
D24*
%TO.C,R12*%
X118350000Y-66397500D03*
X118350000Y-68222500D03*
%TD*%
D25*
%TO.C,R11*%
X115810000Y-68222500D03*
X115810000Y-66397500D03*
%TD*%
D26*
%TO.C,R10*%
X111087500Y-62230000D03*
X112912500Y-62230000D03*
%TD*%
D24*
%TO.C,R9*%
X120890000Y-66397500D03*
X120890000Y-68222500D03*
%TD*%
%TO.C,R8*%
X128117500Y-27032500D03*
X128117500Y-28857500D03*
%TD*%
D26*
%TO.C,R7*%
X122517500Y-57150000D03*
X124342500Y-57150000D03*
%TD*%
D25*
%TO.C,R6*%
X133590000Y-49172500D03*
X133590000Y-47347500D03*
%TD*%
%TO.C,R5*%
X124700000Y-37385000D03*
X124700000Y-35560000D03*
%TD*%
D27*
%TO.C,R4*%
X56499000Y-54610000D03*
X58324000Y-54610000D03*
%TD*%
%TO.C,R3*%
X57752500Y-34290000D03*
X55927500Y-34290000D03*
%TD*%
%TO.C,R2*%
X61562500Y-34290000D03*
X59737500Y-34290000D03*
%TD*%
%TO.C,R1*%
X52689000Y-54610000D03*
X54514000Y-54610000D03*
%TD*%
D28*
%TO.C,FET2*%
X63060501Y-49606200D03*
X61160499Y-49606200D03*
X62110500Y-51993800D03*
%TD*%
%TO.C,FET1*%
X121767500Y-29215000D03*
X123667502Y-29215000D03*
X122717501Y-26827400D03*
%TD*%
D29*
%TO.C,L2*%
X54490500Y-44450000D03*
X49791500Y-44450000D03*
%TD*%
%TO.C,L1*%
X64269500Y-44450000D03*
X59570500Y-44450000D03*
%TD*%
D15*
%TO.C,J8*%
X124700000Y-67310000D03*
D14*
X127240000Y-67310000D03*
%TD*%
%TO.C,J7*%
X49000000Y-30200000D03*
D15*
X49000000Y-32740000D03*
X49000000Y-35280000D03*
X49000000Y-37820000D03*
%TD*%
D14*
%TO.C,J6*%
X125577500Y-24135000D03*
D15*
X128117500Y-24135000D03*
%TD*%
%TO.C,J5*%
X106000000Y-22980000D03*
X106000000Y-25520000D03*
X106000000Y-28060000D03*
X106000000Y-30600000D03*
X106000000Y-33140000D03*
X106000000Y-35680000D03*
X106000000Y-38220000D03*
X106000000Y-40760000D03*
X106000000Y-43300000D03*
X106000000Y-45840000D03*
X106000000Y-48380000D03*
X106000000Y-50920000D03*
X106000000Y-53460000D03*
X106000000Y-56000000D03*
X106000000Y-58540000D03*
X106000000Y-61080000D03*
X106000000Y-63620000D03*
X106000000Y-66160000D03*
X106000000Y-68700000D03*
D14*
X106000000Y-71240000D03*
%TD*%
%TO.C,J4*%
X117957500Y-35555000D03*
D15*
X117957500Y-33015000D03*
X117957500Y-30475000D03*
X117957500Y-27935000D03*
%TD*%
D14*
%TO.C,J3*%
X69921500Y-39360000D03*
D15*
X69921500Y-36820000D03*
X69921500Y-34280000D03*
X69921500Y-31740000D03*
%TD*%
D14*
%TO.C,J2*%
X74930000Y-57150000D03*
D15*
X77470000Y-57150000D03*
X80010000Y-57150000D03*
X82550000Y-57150000D03*
X85090000Y-57150000D03*
X87630000Y-57150000D03*
X90170000Y-57150000D03*
X92710000Y-57150000D03*
%TD*%
D14*
%TO.C,J1*%
X128510000Y-36830000D03*
D15*
X128510000Y-34290000D03*
%TD*%
D30*
%TO.C,C5*%
X117400000Y-55880000D03*
X119300000Y-55880000D03*
%TD*%
D31*
%TO.C,C4*%
X49791500Y-57470000D03*
X49791500Y-59370000D03*
%TD*%
%TO.C,C3*%
X57411500Y-49850000D03*
X57411500Y-51750000D03*
%TD*%
%TO.C,C2*%
X64460000Y-31430000D03*
X64460000Y-29530000D03*
%TD*%
%TO.C,C1*%
X56840000Y-37150000D03*
X56840000Y-39050000D03*
%TD*%
D15*
%TO.C,BT1*%
X65920500Y-55880000D03*
D14*
X63380500Y-55880000D03*
%TD*%
M02*
