M48
INCH
T1C0.0157
T2C0.0394
%
G90
G05
T1
X2.0603Y-2.35
X2.15Y-2.6
X2.1603Y-1.25
X2.2019Y-1.4267
X2.3103Y-2.25
X2.3324Y-2.0727
X2.6103Y-1.15
X2.75Y-1.75
X2.75Y-2.3
X2.8Y-2.0
X2.8002Y-2.3998
X2.85Y-1.8
X2.85Y-2.5
X2.95Y-1.15
X2.95Y-1.25
X2.95Y-2.05
X3.05Y-2.15
X3.1Y-1.15
X3.1Y-1.55
X3.1Y-1.9
X3.15Y-1.2
X3.15Y-1.5
X3.15Y-2.1
X3.2Y-1.9
X3.2Y-2.0
X3.25Y-1.35
X3.25Y-1.55
X3.35Y-1.35
X3.35Y-1.55
X3.35Y-2.05
X3.45Y-1.25
X3.45Y-1.7
X3.45Y-2.05
X3.5Y-1.35
X3.5Y-2.15
X3.55Y-1.15
X3.55Y-1.3
X3.55Y-2.1
X3.6Y-1.65
X3.65Y-1.15
X3.65Y-1.2
X3.65Y-1.25
X3.65Y-1.6
X3.7Y-1.9
X3.7Y-2.15
X3.75Y-1.95
X3.75Y-2.2
X3.7795Y-2.6
X3.7795Y-2.95
X3.8Y-1.1
X3.8Y-1.15
X3.8Y-1.3
X3.8Y-1.35
X3.8Y-1.45
X3.8Y-1.8
X3.8Y-2.05
X3.8189Y-1.6998
X3.8189Y-2.0998
X3.85Y-2.15
X3.85Y-2.8
X3.8583Y-1.6459
X3.8976Y-1.5498
X3.8976Y-1.9998
X3.937Y-1.3959
X3.937Y-1.4959
X3.937Y-1.8998
X3.9764Y-1.7998
X4.0157Y-1.6998
X4.0157Y-1.7498
X4.0157Y-2.6998
X4.0551Y-1.2459
X4.0551Y-1.5748
X4.0551Y-1.6535
X4.0551Y-2.5998
X4.0945Y-1.1959
X4.0945Y-1.4998
X4.5094Y-2.3
X4.5094Y-2.7
X4.7094Y-2.1
X4.8094Y-2.75
X4.8594Y-2.4
X5.0094Y-2.55
X5.1969Y-2.9528
X5.2094Y-2.2
X5.2594Y-2.0
X5.3094Y-1.55
T2
X1.9291Y-1.189
X1.9291Y-1.289
X1.9291Y-1.389
X1.9291Y-1.489
X2.4953Y-2.2
X2.5953Y-2.2
X2.7528Y-1.2496
X2.7528Y-1.3496
X2.7528Y-1.4496
X2.7528Y-1.5496
X2.95Y-2.25
X3.05Y-2.25
X3.15Y-2.25
X3.25Y-2.25
X3.35Y-2.25
X3.45Y-2.25
X3.55Y-2.25
X3.65Y-2.25
X4.1732Y-0.9047
X4.1732Y-1.0047
X4.1732Y-1.1047
X4.1732Y-1.2047
X4.1732Y-1.3047
X4.1732Y-1.4047
X4.1732Y-1.5047
X4.1732Y-1.6047
X4.1732Y-1.7047
X4.1732Y-1.8047
X4.1732Y-1.9047
X4.1732Y-2.0047
X4.1732Y-2.1047
X4.1732Y-2.2047
X4.1732Y-2.3047
X4.1732Y-2.4047
X4.1732Y-2.5047
X4.1732Y-2.6047
X4.1732Y-2.7047
X4.1732Y-2.8047
X4.644Y-1.0998
X4.644Y-1.1998
X4.644Y-1.2998
X4.644Y-1.3998
X4.644Y-1.6498
X4.644Y-1.7498
X4.644Y-1.8498
X4.644Y-1.9498
X4.9094Y-2.65
X4.944Y-0.9502
X5.0094Y-2.65
X5.044Y-0.9502
X5.0594Y-1.35
X5.0594Y-1.45
T0
M30
