%TF.GenerationSoftware,KiCad,Pcbnew,7.0.7*%
%TF.CreationDate,2023-09-28T17:42:14-05:00*%
%TF.ProjectId,CatLasers,4361744c-6173-4657-9273-2e6b69636164,rev?*%
%TF.SameCoordinates,Original*%
%TF.FileFunction,Copper,L2,Bot*%
%TF.FilePolarity,Positive*%
%FSLAX46Y46*%
G04 Gerber Fmt 4.6, Leading zero omitted, Abs format (unit mm)*
G04 Created by KiCad (PCBNEW 7.0.7) date 2023-09-28 17:42:14*
%MOMM*%
%LPD*%
G01*
G04 APERTURE LIST*
%TA.AperFunction,ComponentPad*%
%ADD10R,1.700000X1.700000*%
%TD*%
%TA.AperFunction,ComponentPad*%
%ADD11O,1.700000X1.700000*%
%TD*%
%TA.AperFunction,ViaPad*%
%ADD12C,0.800000*%
%TD*%
%TA.AperFunction,Conductor*%
%ADD13C,0.500000*%
%TD*%
%TA.AperFunction,Conductor*%
%ADD14C,0.250000*%
%TD*%
G04 APERTURE END LIST*
D10*
%TO.P,J9,1,Pin_1*%
%TO.N,unconnected-(J9-Pin_1-Pad1)*%
X117957500Y-49525000D03*
D11*
%TO.P,J9,2,Pin_2*%
%TO.N,unconnected-(J9-Pin_2-Pad2)*%
X117957500Y-46985000D03*
%TO.P,J9,3,Pin_3*%
%TO.N,/IR Emitter + Receiver/Rec_out*%
X117957500Y-44445000D03*
%TO.P,J9,4,Pin_4*%
%TO.N,/Buzzer/PWM*%
X117957500Y-41905000D03*
%TD*%
%TO.P,J8,2,Pin_2*%
%TO.N,/IR Emitter + Receiver/Vrec*%
X124700000Y-67310000D03*
D10*
%TO.P,J8,1,Pin_1*%
%TO.N,/IR Emitter + Receiver/RecSup*%
X127240000Y-67310000D03*
%TD*%
%TO.P,J7,1,Pin_1*%
%TO.N,18V*%
X49000000Y-30200000D03*
D11*
%TO.P,J7,2,Pin_2*%
%TO.N,3.3V*%
X49000000Y-32740000D03*
%TO.P,J7,3,Pin_3*%
%TO.N,GND*%
X49000000Y-35280000D03*
%TO.P,J7,4,Pin_4*%
X49000000Y-37820000D03*
%TD*%
D10*
%TO.P,J6,1,Pin_1*%
%TO.N,/IR Emitter + Receiver/Emit_Direct*%
X125577500Y-24135000D03*
D11*
%TO.P,J6,2,Pin_2*%
%TO.N,Net-(J6-Pin_2)*%
X128117500Y-24135000D03*
%TD*%
%TO.P,J5,20,Pin_20*%
%TO.N,GND*%
X106000000Y-22980000D03*
%TO.P,J5,19,Pin_19*%
%TO.N,Net-(J5-Pin_19)*%
X106000000Y-25520000D03*
%TO.P,J5,18,Pin_18*%
%TO.N,Net-(J5-Pin_18)*%
X106000000Y-28060000D03*
%TO.P,J5,17,Pin_17*%
%TO.N,Net-(J5-Pin_17)*%
X106000000Y-30600000D03*
%TO.P,J5,16,Pin_16*%
%TO.N,Net-(J5-Pin_16)*%
X106000000Y-33140000D03*
%TO.P,J5,15,Pin_15*%
%TO.N,Net-(J5-Pin_15)*%
X106000000Y-35680000D03*
%TO.P,J5,14,Pin_14*%
%TO.N,Net-(J5-Pin_14)*%
X106000000Y-38220000D03*
%TO.P,J5,13,Pin_13*%
%TO.N,Net-(J5-Pin_13)*%
X106000000Y-40760000D03*
%TO.P,J5,12,Pin_12*%
%TO.N,Net-(J5-Pin_12)*%
X106000000Y-43300000D03*
%TO.P,J5,11,Pin_11*%
%TO.N,Net-(J5-Pin_11)*%
X106000000Y-45840000D03*
%TO.P,J5,10,Pin_10*%
%TO.N,Net-(J5-Pin_10)*%
X106000000Y-48380000D03*
%TO.P,J5,9,Pin_9*%
%TO.N,Net-(J5-Pin_9)*%
X106000000Y-50920000D03*
%TO.P,J5,8,Pin_8*%
%TO.N,Net-(J5-Pin_8)*%
X106000000Y-53460000D03*
%TO.P,J5,7,Pin_7*%
%TO.N,Net-(J5-Pin_7)*%
X106000000Y-56000000D03*
%TO.P,J5,6,Pin_6*%
%TO.N,Net-(J5-Pin_6)*%
X106000000Y-58540000D03*
%TO.P,J5,5,Pin_5*%
%TO.N,Net-(J5-Pin_5)*%
X106000000Y-61080000D03*
%TO.P,J5,4,Pin_4*%
%TO.N,Net-(J5-Pin_4)*%
X106000000Y-63620000D03*
%TO.P,J5,3,Pin_3*%
%TO.N,Net-(J5-Pin_3)*%
X106000000Y-66160000D03*
%TO.P,J5,2,Pin_2*%
%TO.N,Net-(J5-Pin_2)*%
X106000000Y-68700000D03*
D10*
%TO.P,J5,1,Pin_1*%
%TO.N,Net-(J5-Pin_1)*%
X106000000Y-71240000D03*
%TD*%
%TO.P,J4,1,Pin_1*%
%TO.N,/IR Emitter + Receiver/Vsup*%
X117957500Y-35555000D03*
D11*
%TO.P,J4,2,Pin_2*%
%TO.N,/IR Emitter + Receiver/RecSup*%
X117957500Y-33015000D03*
%TO.P,J4,3,Pin_3*%
%TO.N,/IR Emitter + Receiver/Emit_Direct*%
X117957500Y-30475000D03*
%TO.P,J4,4,Pin_4*%
%TO.N,/IR Emitter + Receiver/Emit_MOS*%
X117957500Y-27935000D03*
%TD*%
D10*
%TO.P,J3,1,Pin_1*%
%TO.N,Net-(J3-Pin_1)*%
X69921500Y-39360000D03*
D11*
%TO.P,J3,2,Pin_2*%
%TO.N,Net-(J3-Pin_2)*%
X69921500Y-36820000D03*
%TO.P,J3,3,Pin_3*%
%TO.N,Net-(J3-Pin_3)*%
X69921500Y-34280000D03*
%TO.P,J3,4,Pin_4*%
%TO.N,Net-(J3-Pin_4)*%
X69921500Y-31740000D03*
%TD*%
D10*
%TO.P,J2,1,Pin_1*%
%TO.N,3.3V*%
X74930000Y-57150000D03*
D11*
%TO.P,J2,2,Pin_2*%
%TO.N,Net-(J2-Pin_2)*%
X77470000Y-57150000D03*
%TO.P,J2,3,Pin_3*%
%TO.N,Net-(J2-Pin_3)*%
X80010000Y-57150000D03*
%TO.P,J2,4,Pin_4*%
%TO.N,GND*%
X82550000Y-57150000D03*
%TO.P,J2,5,Pin_5*%
%TO.N,Net-(J2-Pin_5)*%
X85090000Y-57150000D03*
%TO.P,J2,6,Pin_6*%
%TO.N,Net-(J2-Pin_6)*%
X87630000Y-57150000D03*
%TO.P,J2,7,Pin_7*%
%TO.N,unconnected-(J2-Pin_7-Pad7)*%
X90170000Y-57150000D03*
%TO.P,J2,8,Pin_8*%
%TO.N,unconnected-(J2-Pin_8-Pad8)*%
X92710000Y-57150000D03*
%TD*%
D10*
%TO.P,J1,1,Pin_1*%
%TO.N,Net-(J1-Pin_1)*%
X128510000Y-36830000D03*
D11*
%TO.P,J1,2,Pin_2*%
%TO.N,GND*%
X128510000Y-34290000D03*
%TD*%
%TO.P,BT1,2,-*%
%TO.N,GND*%
X65920500Y-55880000D03*
D10*
%TO.P,BT1,1,+*%
%TO.N,/PowerSupply/VBatt*%
X63380500Y-55880000D03*
%TD*%
D12*
%TO.N,GND*%
X85090000Y-39370000D03*
X82550000Y-39370000D03*
X85090000Y-34290000D03*
X82550000Y-34290000D03*
X122160000Y-69850000D03*
%TO.N,18V*%
X133590000Y-50800000D03*
X132000000Y-75000000D03*
X96000000Y-74930000D03*
X134860000Y-39370000D03*
X96000000Y-66040000D03*
X54871500Y-31750000D03*
X54610000Y-66040000D03*
%TO.N,GND*%
X119620000Y-53340000D03*
X132320000Y-55880000D03*
X123430000Y-60960000D03*
%TO.N,/IR Emitter + Receiver/Vsup*%
X114540000Y-68580000D03*
X114540000Y-58420000D03*
%TO.N,GND*%
X55927500Y-36237500D03*
X66301500Y-29210000D03*
X58681500Y-57150000D03*
X52331500Y-59690000D03*
X92710000Y-30480000D03*
X78740000Y-48260000D03*
X74930000Y-29210000D03*
%TO.N,/IR Emitter + Receiver/RecSup*%
X127240000Y-64770000D03*
%TO.N,Net-(J5-Pin_19)*%
X78740000Y-39370000D03*
X78740000Y-29210000D03*
X90170000Y-29210000D03*
X96520000Y-27940000D03*
%TO.N,Net-(J5-Pin_18)*%
X80010000Y-38100000D03*
X80010000Y-30480000D03*
X92710000Y-29210000D03*
X96520000Y-29210000D03*
%TO.N,Net-(J5-Pin_17)*%
X87630000Y-43180000D03*
X87630000Y-31750000D03*
X92710000Y-31750000D03*
X96520000Y-33020000D03*
%TO.N,Net-(J5-Pin_16)*%
X91440000Y-41910000D03*
X96520000Y-34290000D03*
%TO.N,Net-(J5-Pin_15)*%
X92710000Y-40640000D03*
X96520000Y-36830000D03*
%TO.N,Net-(J5-Pin_1)*%
X97790000Y-71120000D03*
X97790000Y-54610000D03*
X93980000Y-48260000D03*
X93980000Y-54610000D03*
%TO.N,Net-(J5-Pin_7)*%
X95250000Y-49530000D03*
X95250000Y-55880000D03*
%TO.N,Net-(J5-Pin_6)*%
X69850000Y-44450000D03*
X69850000Y-58420000D03*
%TO.N,Net-(J5-Pin_5)*%
X71120000Y-50800000D03*
X81280000Y-50800000D03*
X81280000Y-48260000D03*
X71125000Y-60955000D03*
%TO.N,Net-(J5-Pin_4)*%
X72390000Y-63500000D03*
X72390000Y-45720000D03*
%TO.N,Net-(J2-Pin_6)*%
X96520000Y-52070000D03*
X96520000Y-45720000D03*
X87630000Y-52070000D03*
%TO.N,Net-(J2-Pin_2)*%
X77470000Y-54610000D03*
X88900000Y-54610000D03*
X88900000Y-34290000D03*
%TO.N,Net-(J2-Pin_3)*%
X80010000Y-53340000D03*
X90170000Y-53340000D03*
X90170000Y-33020000D03*
%TO.N,Net-(J2-Pin_5)*%
X85090000Y-52070000D03*
X74930000Y-52070000D03*
X74930000Y-31750000D03*
%TO.N,Net-(J5-Pin_2)*%
X102000000Y-68575000D03*
X102000000Y-44445000D03*
%TO.N,Net-(J5-Pin_3)*%
X103000000Y-66035000D03*
X103000000Y-42000000D03*
%TO.N,Net-(J5-Pin_8)*%
X97000000Y-53335000D03*
X97000000Y-43175000D03*
%TO.N,Net-(J5-Pin_9)*%
X99000000Y-50795000D03*
X98000000Y-41805000D03*
%TO.N,Net-(J5-Pin_10)*%
X100000000Y-48255000D03*
X99000000Y-39365000D03*
%TO.N,Net-(J5-Pin_11)*%
X100000000Y-37995000D03*
X101000000Y-45715000D03*
%TO.N,Net-(J5-Pin_12)*%
X102000000Y-43175000D03*
X100000000Y-35455000D03*
%TO.N,Net-(J5-Pin_13)*%
X103000000Y-40000000D03*
X103000000Y-31645000D03*
%TO.N,Net-(J5-Pin_14)*%
X104000000Y-30375000D03*
X104000000Y-38095000D03*
%TO.N,GND*%
X59243768Y-52645694D03*
%TD*%
D13*
%TO.N,18V*%
X135000000Y-52210000D02*
X134860000Y-52070000D01*
X132000000Y-75000000D02*
X135000000Y-72000000D01*
X135000000Y-72000000D02*
X135000000Y-52210000D01*
D14*
%TO.N,Net-(J5-Pin_3)*%
X103000000Y-66035000D02*
X103000000Y-42000000D01*
%TO.N,Net-(J5-Pin_2)*%
X102000000Y-68575000D02*
X102000000Y-44445000D01*
D13*
%TO.N,18V*%
X96000000Y-74930000D02*
X96000000Y-66040000D01*
D14*
%TO.N,Net-(J5-Pin_14)*%
X104000000Y-38095000D02*
X104000000Y-30375000D01*
%TO.N,Net-(J5-Pin_13)*%
X103000000Y-40000000D02*
X103000000Y-31645000D01*
%TO.N,Net-(J5-Pin_12)*%
X102000000Y-37455000D02*
X100000000Y-35455000D01*
X102000000Y-43175000D02*
X102000000Y-37455000D01*
%TO.N,Net-(J5-Pin_11)*%
X101000000Y-38995000D02*
X100000000Y-37995000D01*
X101000000Y-45715000D02*
X101000000Y-38995000D01*
%TO.N,Net-(J5-Pin_10)*%
X100000000Y-40365000D02*
X99000000Y-39365000D01*
X100000000Y-48255000D02*
X100000000Y-40365000D01*
%TO.N,Net-(J5-Pin_9)*%
X99000000Y-42805000D02*
X98000000Y-41805000D01*
X99000000Y-50795000D02*
X99000000Y-42805000D01*
%TO.N,Net-(J5-Pin_8)*%
X98000000Y-52335000D02*
X97000000Y-53335000D01*
X98000000Y-44175000D02*
X98000000Y-52335000D01*
X97000000Y-43175000D02*
X98000000Y-44175000D01*
D13*
%TO.N,18V*%
X134860000Y-52070000D02*
X133590000Y-50800000D01*
X134860000Y-52070000D02*
X134860000Y-39370000D01*
X54871500Y-31750000D02*
X54871500Y-66040000D01*
D14*
%TO.N,/IR Emitter + Receiver/Vsup*%
X114540000Y-38972500D02*
X117957500Y-35555000D01*
X114540000Y-58420000D02*
X114540000Y-38972500D01*
X114540000Y-58420000D02*
X114540000Y-68580000D01*
%TO.N,/IR Emitter + Receiver/RecSup*%
X127240000Y-42297500D02*
X117957500Y-33015000D01*
X127240000Y-64770000D02*
X127240000Y-42297500D01*
%TO.N,Net-(J5-Pin_19)*%
X78740000Y-29210000D02*
X78740000Y-39370000D01*
X91440000Y-27940000D02*
X90170000Y-29210000D01*
X96520000Y-27940000D02*
X91440000Y-27940000D01*
%TO.N,Net-(J5-Pin_18)*%
X80010000Y-30480000D02*
X80010000Y-38100000D01*
X96520000Y-29210000D02*
X92710000Y-29210000D01*
%TO.N,Net-(J5-Pin_17)*%
X87630000Y-43180000D02*
X87630000Y-31750000D01*
X92710000Y-33020000D02*
X92710000Y-31750000D01*
X96520000Y-33020000D02*
X92710000Y-33020000D01*
%TO.N,Net-(J5-Pin_16)*%
X91440000Y-35560000D02*
X91440000Y-41910000D01*
X95250000Y-35560000D02*
X91440000Y-35560000D01*
X96520000Y-34290000D02*
X95250000Y-35560000D01*
%TO.N,Net-(J5-Pin_15)*%
X96520000Y-36830000D02*
X92710000Y-36830000D01*
X92710000Y-36830000D02*
X92710000Y-40640000D01*
%TO.N,Net-(J2-Pin_2)*%
X88900000Y-34290000D02*
X88900000Y-54610000D01*
%TO.N,Net-(J5-Pin_1)*%
X97790000Y-54610000D02*
X97790000Y-71120000D01*
X93980000Y-48260000D02*
X93980000Y-54610000D01*
%TO.N,Net-(J5-Pin_7)*%
X95250000Y-55880000D02*
X95250000Y-49530000D01*
%TO.N,Net-(J5-Pin_6)*%
X69850000Y-58420000D02*
X69850000Y-44450000D01*
%TO.N,Net-(J5-Pin_5)*%
X71120000Y-60950000D02*
X71125000Y-60955000D01*
X71120000Y-50800000D02*
X71120000Y-60950000D01*
X81280000Y-48260000D02*
X81280000Y-50800000D01*
%TO.N,Net-(J5-Pin_4)*%
X72390000Y-63500000D02*
X72390000Y-45720000D01*
%TO.N,Net-(J2-Pin_6)*%
X87630000Y-52070000D02*
X87630000Y-57150000D01*
X96520000Y-45720000D02*
X96520000Y-52070000D01*
%TO.N,Net-(J2-Pin_2)*%
X77470000Y-54610000D02*
X77470000Y-57150000D01*
%TO.N,Net-(J2-Pin_3)*%
X80010000Y-53340000D02*
X80010000Y-57150000D01*
X90170000Y-33020000D02*
X90170000Y-53340000D01*
%TO.N,Net-(J2-Pin_5)*%
X85090000Y-52070000D02*
X85090000Y-57150000D01*
X74930000Y-31750000D02*
X74930000Y-52070000D01*
%TD*%
M02*
