%TF.GenerationSoftware,KiCad,Pcbnew,7.0.7*%
%TF.CreationDate,2023-09-28T17:42:14-05:00*%
%TF.ProjectId,CatLasers,4361744c-6173-4657-9273-2e6b69636164,rev?*%
%TF.SameCoordinates,Original*%
%TF.FileFunction,Copper,L1,Top*%
%TF.FilePolarity,Positive*%
%FSLAX46Y46*%
G04 Gerber Fmt 4.6, Leading zero omitted, Abs format (unit mm)*
G04 Created by KiCad (PCBNEW 7.0.7) date 2023-09-28 17:42:14*
%MOMM*%
%LPD*%
G01*
G04 APERTURE LIST*
G04 Aperture macros list*
%AMRoundRect*
0 Rectangle with rounded corners*
0 $1 Rounding radius*
0 $2 $3 $4 $5 $6 $7 $8 $9 X,Y pos of 4 corners*
0 Add a 4 corners polygon primitive as box body*
4,1,4,$2,$3,$4,$5,$6,$7,$8,$9,$2,$3,0*
0 Add four circle primitives for the rounded corners*
1,1,$1+$1,$2,$3*
1,1,$1+$1,$4,$5*
1,1,$1+$1,$6,$7*
1,1,$1+$1,$8,$9*
0 Add four rect primitives between the rounded corners*
20,1,$1+$1,$2,$3,$4,$5,0*
20,1,$1+$1,$4,$5,$6,$7,0*
20,1,$1+$1,$6,$7,$8,$9,0*
20,1,$1+$1,$8,$9,$2,$3,0*%
G04 Aperture macros list end*
%TA.AperFunction,SMDPad,CuDef*%
%ADD10R,1.500000X0.900000*%
%TD*%
%TA.AperFunction,SMDPad,CuDef*%
%ADD11R,0.900000X1.500000*%
%TD*%
%TA.AperFunction,SMDPad,CuDef*%
%ADD12R,0.900000X0.900000*%
%TD*%
%TA.AperFunction,SMDPad,CuDef*%
%ADD13R,1.701800X0.558800*%
%TD*%
%TA.AperFunction,ComponentPad*%
%ADD14R,1.700000X1.700000*%
%TD*%
%TA.AperFunction,ComponentPad*%
%ADD15O,1.700000X1.700000*%
%TD*%
%TA.AperFunction,SMDPad,CuDef*%
%ADD16R,3.800000X2.030000*%
%TD*%
%TA.AperFunction,SMDPad,CuDef*%
%ADD17RoundRect,0.183000X-0.427000X0.437000X-0.427000X-0.437000X0.427000X-0.437000X0.427000X0.437000X0*%
%TD*%
%TA.AperFunction,SMDPad,CuDef*%
%ADD18RoundRect,0.042000X0.258000X-0.943000X0.258000X0.943000X-0.258000X0.943000X-0.258000X-0.943000X0*%
%TD*%
%TA.AperFunction,SMDPad,CuDef*%
%ADD19R,2.413000X0.939800*%
%TD*%
%TA.AperFunction,SMDPad,CuDef*%
%ADD20R,6.019800X5.562600*%
%TD*%
%TA.AperFunction,SMDPad,CuDef*%
%ADD21RoundRect,0.041300X0.253700X-0.578700X0.253700X0.578700X-0.253700X0.578700X-0.253700X-0.578700X0*%
%TD*%
%TA.AperFunction,SMDPad,CuDef*%
%ADD22RoundRect,0.041300X-0.253700X0.578700X-0.253700X-0.578700X0.253700X-0.578700X0.253700X0.578700X0*%
%TD*%
%TA.AperFunction,SMDPad,CuDef*%
%ADD23RoundRect,0.250000X-0.450000X0.262500X-0.450000X-0.262500X0.450000X-0.262500X0.450000X0.262500X0*%
%TD*%
%TA.AperFunction,SMDPad,CuDef*%
%ADD24RoundRect,0.250000X0.450000X-0.262500X0.450000X0.262500X-0.450000X0.262500X-0.450000X-0.262500X0*%
%TD*%
%TA.AperFunction,SMDPad,CuDef*%
%ADD25RoundRect,0.250000X-0.262500X-0.450000X0.262500X-0.450000X0.262500X0.450000X-0.262500X0.450000X0*%
%TD*%
%TA.AperFunction,SMDPad,CuDef*%
%ADD26RoundRect,0.250000X0.262500X0.450000X-0.262500X0.450000X-0.262500X-0.450000X0.262500X-0.450000X0*%
%TD*%
%TA.AperFunction,SMDPad,CuDef*%
%ADD27R,0.508000X0.508000*%
%TD*%
%TA.AperFunction,SMDPad,CuDef*%
%ADD28R,1.600200X5.689600*%
%TD*%
%TA.AperFunction,SMDPad,CuDef*%
%ADD29RoundRect,0.250000X-0.250000X-0.475000X0.250000X-0.475000X0.250000X0.475000X-0.250000X0.475000X0*%
%TD*%
%TA.AperFunction,SMDPad,CuDef*%
%ADD30RoundRect,0.250000X0.475000X-0.250000X0.475000X0.250000X-0.475000X0.250000X-0.475000X-0.250000X0*%
%TD*%
%TA.AperFunction,ViaPad*%
%ADD31C,0.800000*%
%TD*%
%TA.AperFunction,Conductor*%
%ADD32C,0.500000*%
%TD*%
%TA.AperFunction,Conductor*%
%ADD33C,0.250000*%
%TD*%
G04 APERTURE END LIST*
D10*
%TO.P,U2,1,GND*%
%TO.N,GND*%
X76975000Y-29105000D03*
%TO.P,U2,2,3V3*%
%TO.N,3.3V*%
X76975000Y-30375000D03*
%TO.P,U2,3,EN*%
%TO.N,Net-(J2-Pin_5)*%
X76975000Y-31645000D03*
%TO.P,U2,4,SENSOR_VP*%
%TO.N,Net-(J3-Pin_4)*%
X76975000Y-32915000D03*
%TO.P,U2,5,SENSOR_VN*%
%TO.N,Net-(J3-Pin_3)*%
X76975000Y-34185000D03*
%TO.P,U2,6,IO34*%
%TO.N,Net-(J3-Pin_2)*%
X76975000Y-35455000D03*
%TO.P,U2,7,IO35*%
%TO.N,Net-(J3-Pin_1)*%
X76975000Y-36725000D03*
%TO.P,U2,8,IO32*%
%TO.N,Net-(J5-Pin_18)*%
X76975000Y-37995000D03*
%TO.P,U2,9,IO33*%
%TO.N,Net-(J5-Pin_19)*%
X76975000Y-39265000D03*
%TO.P,U2,10,IO25*%
%TO.N,Net-(J5-Pin_15)*%
X76975000Y-40535000D03*
%TO.P,U2,11,IO26*%
%TO.N,Net-(J5-Pin_16)*%
X76975000Y-41805000D03*
%TO.P,U2,12,IO27*%
%TO.N,Net-(J5-Pin_17)*%
X76975000Y-43075000D03*
%TO.P,U2,13,IO14*%
%TO.N,Net-(J5-Pin_6)*%
X76975000Y-44345000D03*
%TO.P,U2,14,IO12*%
%TO.N,Net-(J5-Pin_4)*%
X76975000Y-45615000D03*
D11*
%TO.P,U2,15,GND*%
%TO.N,GND*%
X80010000Y-46865000D03*
%TO.P,U2,16,IO13*%
%TO.N,Net-(J5-Pin_5)*%
X81280000Y-46865000D03*
%TO.P,U2,17,NC*%
%TO.N,unconnected-(U2-NC-Pad17)*%
X82550000Y-46865000D03*
%TO.P,U2,18,NC*%
%TO.N,unconnected-(U2-NC-Pad18)*%
X83820000Y-46865000D03*
%TO.P,U2,19,NC*%
%TO.N,unconnected-(U2-NC-Pad19)*%
X85090000Y-46865000D03*
%TO.P,U2,20,NC*%
%TO.N,unconnected-(U2-NC-Pad20)*%
X86360000Y-46865000D03*
%TO.P,U2,21,NC*%
%TO.N,unconnected-(U2-NC-Pad21)*%
X87630000Y-46865000D03*
%TO.P,U2,22,NC*%
%TO.N,unconnected-(U2-NC-Pad22)*%
X88900000Y-46865000D03*
%TO.P,U2,23,IO15*%
%TO.N,Net-(J5-Pin_7)*%
X90170000Y-46865000D03*
%TO.P,U2,24,IO2*%
%TO.N,Net-(J5-Pin_1)*%
X91440000Y-46865000D03*
D10*
%TO.P,U2,25,IO0*%
%TO.N,Net-(J2-Pin_6)*%
X94475000Y-45615000D03*
%TO.P,U2,26,IO4*%
%TO.N,Net-(J5-Pin_2)*%
X94475000Y-44345000D03*
%TO.P,U2,27,IO16*%
%TO.N,Net-(J5-Pin_8)*%
X94475000Y-43075000D03*
%TO.P,U2,28,IO17*%
%TO.N,Net-(J5-Pin_9)*%
X94475000Y-41805000D03*
%TO.P,U2,29,IO5*%
%TO.N,Net-(J5-Pin_3)*%
X94475000Y-40535000D03*
%TO.P,U2,30,IO18*%
%TO.N,Net-(J5-Pin_10)*%
X94475000Y-39265000D03*
%TO.P,U2,31,IO19*%
%TO.N,Net-(J5-Pin_11)*%
X94475000Y-37995000D03*
%TO.P,U2,32,NC1*%
%TO.N,unconnected-(U2-NC1-Pad32)*%
X94475000Y-36725000D03*
%TO.P,U2,33,IO21*%
%TO.N,Net-(J5-Pin_12)*%
X94475000Y-35455000D03*
%TO.P,U2,34,RXD0*%
%TO.N,Net-(J2-Pin_2)*%
X94475000Y-34185000D03*
%TO.P,U2,35,TXD0*%
%TO.N,Net-(J2-Pin_3)*%
X94475000Y-32915000D03*
%TO.P,U2,36,IO22*%
%TO.N,Net-(J5-Pin_13)*%
X94475000Y-31645000D03*
%TO.P,U2,37,IO23*%
%TO.N,Net-(J5-Pin_14)*%
X94475000Y-30375000D03*
%TO.P,U2,38,GND*%
%TO.N,GND*%
X94475000Y-29105000D03*
D12*
%TO.P,U2,39_1,GND*%
X82825000Y-35425000D03*
%TO.P,U2,39_2,GND*%
X84225000Y-35425000D03*
%TO.P,U2,39_3,GND*%
X85625000Y-35425000D03*
%TO.P,U2,39_4,GND*%
X82825000Y-36825000D03*
%TO.P,U2,39_5,GND*%
X84225000Y-36825000D03*
%TO.P,U2,39_6,GND*%
X85625000Y-36825000D03*
%TO.P,U2,39_7,GND*%
X82825000Y-38225000D03*
%TO.P,U2,39_8,GND*%
X84225000Y-38225000D03*
%TO.P,U2,39_9,GND*%
X85625000Y-38225000D03*
%TD*%
D13*
%TO.P,U4,1,ANODE*%
%TO.N,/Buzzer/PWM*%
X121855200Y-52070000D03*
%TO.P,U4,2,NC*%
%TO.N,unconnected-(U4-NC-Pad2)*%
X121855200Y-53340000D03*
%TO.P,U4,3,CATHODE*%
%TO.N,Net-(U4-CATHODE)*%
X121855200Y-54610000D03*
%TO.P,U4,4,VEE*%
%TO.N,GND*%
X132624800Y-54610000D03*
%TO.P,U4,5,VOUT*%
%TO.N,Net-(U4-VOUT)*%
X132624800Y-53340000D03*
%TO.P,U4,6,VCC*%
%TO.N,18V*%
X132624800Y-52070000D03*
%TD*%
D14*
%TO.P,J9,1,Pin_1*%
%TO.N,unconnected-(J9-Pin_1-Pad1)*%
X117957500Y-49525000D03*
D15*
%TO.P,J9,2,Pin_2*%
%TO.N,unconnected-(J9-Pin_2-Pad2)*%
X117957500Y-46985000D03*
%TO.P,J9,3,Pin_3*%
%TO.N,/IR Emitter + Receiver/Rec_out*%
X117957500Y-44445000D03*
%TO.P,J9,4,Pin_4*%
%TO.N,/Buzzer/PWM*%
X117957500Y-41905000D03*
%TD*%
D16*
%TO.P,VBatt,TP*%
%TO.N,/PowerSupply/VBatt*%
X62110500Y-59690000D03*
%TD*%
%TO.P,3.3V,TP,1*%
%TO.N,3.3V*%
X55760500Y-59690000D03*
%TD*%
%TO.P,GND,TP,1*%
%TO.N,GND*%
X68000000Y-61000000D03*
%TD*%
%TO.P,18V,TP,1*%
%TO.N,18V*%
X59570500Y-30480000D03*
%TD*%
D17*
%TO.P,D2,2,A*%
%TO.N,/PowerSupply/SW_3.3*%
X49791500Y-50580000D03*
%TO.P,D2,1,K*%
%TO.N,3.3V*%
X49791500Y-53560000D03*
%TD*%
%TO.P,D1,1,A*%
%TO.N,/PowerSupply/SW_18*%
X64460000Y-38320000D03*
%TO.P,D1,2,C*%
%TO.N,18V*%
X64460000Y-35340000D03*
%TD*%
D18*
%TO.P,U6,1,1OUT*%
%TO.N,/IR Emitter + Receiver/Rec_out*%
X116445000Y-63430000D03*
%TO.P,U6,2,1IN-*%
%TO.N,/IR Emitter + Receiver/Vref*%
X117715000Y-63430000D03*
%TO.P,U6,3,1IN+*%
%TO.N,/IR Emitter + Receiver/Vrec*%
X118985000Y-63430000D03*
%TO.P,U6,4,GND*%
%TO.N,GND*%
X120255000Y-63430000D03*
%TO.P,U6,5,2IN+*%
%TO.N,unconnected-(U6-2IN+-Pad5)*%
X120255000Y-58490000D03*
%TO.P,U6,6,2IN-*%
%TO.N,unconnected-(U6-2IN--Pad6)*%
X118985000Y-58490000D03*
%TO.P,U6,7,2OUT*%
%TO.N,unconnected-(U6-2OUT-Pad7)*%
X117715000Y-58490000D03*
%TO.P,U6,8,VCC*%
%TO.N,/IR Emitter + Receiver/Vsup*%
X116445000Y-58490000D03*
%TD*%
D19*
%TO.P,U5,1,Gate*%
%TO.N,Net-(U5-Gate)*%
X133577300Y-45480000D03*
%TO.P,U5,3,Source*%
%TO.N,18V*%
X133577300Y-40880000D03*
D20*
%TO.P,U5,2,Drain*%
%TO.N,Net-(J1-Pin_1)*%
X125220700Y-43180000D03*
%TD*%
D21*
%TO.P,U3,5,VIN*%
%TO.N,/PowerSupply/Vin*%
X52590500Y-49700000D03*
%TO.P,U3,4,EN*%
X54490500Y-49700000D03*
%TO.P,U3,3,FB*%
%TO.N,/PowerSupply/FB_3.3*%
X54490500Y-52070000D03*
%TO.P,U3,2,GND*%
%TO.N,GND*%
X53540500Y-52070000D03*
%TO.P,U3,1,SW*%
%TO.N,/PowerSupply/SW_3.3*%
X52590500Y-52070000D03*
%TD*%
D22*
%TO.P,U1,1,SW*%
%TO.N,/PowerSupply/SW_18*%
X61600000Y-36915000D03*
%TO.P,U1,2,GND*%
%TO.N,GND*%
X60650000Y-36915000D03*
%TO.P,U1,3,FB*%
%TO.N,/PowerSupply/FB_18*%
X59700000Y-36915000D03*
%TO.P,U1,4,EN*%
%TO.N,/PowerSupply/Vin*%
X59700000Y-39285000D03*
%TO.P,U1,5,VIN*%
X61600000Y-39285000D03*
%TD*%
D23*
%TO.P,R12,1*%
%TO.N,/IR Emitter + Receiver/Vref*%
X118350000Y-66397500D03*
%TO.P,R12,2*%
%TO.N,GND*%
X118350000Y-68222500D03*
%TD*%
D24*
%TO.P,R11,1*%
%TO.N,/IR Emitter + Receiver/Vsup*%
X115810000Y-68222500D03*
%TO.P,R11,2*%
%TO.N,/IR Emitter + Receiver/Vref*%
X115810000Y-66397500D03*
%TD*%
D25*
%TO.P,R10,1*%
%TO.N,3.3V*%
X111087500Y-62230000D03*
%TO.P,R10,2*%
%TO.N,/IR Emitter + Receiver/Rec_out*%
X112912500Y-62230000D03*
%TD*%
D23*
%TO.P,R9,1*%
%TO.N,/IR Emitter + Receiver/Vrec*%
X120890000Y-66397500D03*
%TO.P,R9,2*%
%TO.N,GND*%
X120890000Y-68222500D03*
%TD*%
%TO.P,R8,1*%
%TO.N,Net-(J6-Pin_2)*%
X128117500Y-27032500D03*
%TO.P,R8,2*%
%TO.N,GND*%
X128117500Y-28857500D03*
%TD*%
D25*
%TO.P,R7,1*%
%TO.N,Net-(U4-CATHODE)*%
X122517500Y-57150000D03*
%TO.P,R7,2*%
%TO.N,GND*%
X124342500Y-57150000D03*
%TD*%
D24*
%TO.P,R6,1*%
%TO.N,Net-(U4-VOUT)*%
X133590000Y-49172500D03*
%TO.P,R6,2*%
%TO.N,Net-(U5-Gate)*%
X133590000Y-47347500D03*
%TD*%
%TO.P,R5,1*%
%TO.N,Net-(J1-Pin_1)*%
X124700000Y-37385000D03*
%TO.P,R5,2*%
%TO.N,GND*%
X124700000Y-35560000D03*
%TD*%
D26*
%TO.P,R4,2*%
%TO.N,/PowerSupply/FB_3.3*%
X56499000Y-54610000D03*
%TO.P,R4,1*%
%TO.N,GND*%
X58324000Y-54610000D03*
%TD*%
%TO.P,R3,1*%
%TO.N,/PowerSupply/FB_18*%
X57752500Y-34290000D03*
%TO.P,R3,2*%
%TO.N,GND*%
X55927500Y-34290000D03*
%TD*%
%TO.P,R2,1*%
%TO.N,18V*%
X61562500Y-34290000D03*
%TO.P,R2,2*%
%TO.N,/PowerSupply/FB_18*%
X59737500Y-34290000D03*
%TD*%
%TO.P,R1,2*%
%TO.N,3.3V*%
X52689000Y-54610000D03*
%TO.P,R1,1*%
%TO.N,/PowerSupply/FB_3.3*%
X54514000Y-54610000D03*
%TD*%
D27*
%TO.P,FET2,1,1*%
%TO.N,GND*%
X63060501Y-49606200D03*
%TO.P,FET2,2,2*%
%TO.N,/PowerSupply/Vin*%
X61160499Y-49606200D03*
%TO.P,FET2,3,3*%
%TO.N,/PowerSupply/VBatt*%
X62110500Y-51993800D03*
%TD*%
%TO.P,FET1,1,1*%
%TO.N,/IR Emitter + Receiver/Emit_MOS*%
X121767500Y-29215000D03*
%TO.P,FET1,2,2*%
%TO.N,/IR Emitter + Receiver/Emit_Direct*%
X123667502Y-29215000D03*
%TO.P,FET1,3,3*%
%TO.N,3.3V*%
X122717501Y-26827400D03*
%TD*%
D28*
%TO.P,L2,1,1*%
%TO.N,/PowerSupply/Vin*%
X54490500Y-44450000D03*
%TO.P,L2,2,2*%
%TO.N,/PowerSupply/SW_3.3*%
X49791500Y-44450000D03*
%TD*%
%TO.P,L1,2,2*%
%TO.N,/PowerSupply/SW_18*%
X64269500Y-44450000D03*
%TO.P,L1,1,1*%
%TO.N,/PowerSupply/Vin*%
X59570500Y-44450000D03*
%TD*%
D15*
%TO.P,J8,2,Pin_2*%
%TO.N,/IR Emitter + Receiver/Vrec*%
X124700000Y-67310000D03*
D14*
%TO.P,J8,1,Pin_1*%
%TO.N,/IR Emitter + Receiver/RecSup*%
X127240000Y-67310000D03*
%TD*%
%TO.P,J7,1,Pin_1*%
%TO.N,18V*%
X49000000Y-30200000D03*
D15*
%TO.P,J7,2,Pin_2*%
%TO.N,3.3V*%
X49000000Y-32740000D03*
%TO.P,J7,3,Pin_3*%
%TO.N,GND*%
X49000000Y-35280000D03*
%TO.P,J7,4,Pin_4*%
X49000000Y-37820000D03*
%TD*%
D14*
%TO.P,J6,1,Pin_1*%
%TO.N,/IR Emitter + Receiver/Emit_Direct*%
X125577500Y-24135000D03*
D15*
%TO.P,J6,2,Pin_2*%
%TO.N,Net-(J6-Pin_2)*%
X128117500Y-24135000D03*
%TD*%
%TO.P,J5,20,Pin_20*%
%TO.N,GND*%
X106000000Y-22980000D03*
%TO.P,J5,19,Pin_19*%
%TO.N,Net-(J5-Pin_19)*%
X106000000Y-25520000D03*
%TO.P,J5,18,Pin_18*%
%TO.N,Net-(J5-Pin_18)*%
X106000000Y-28060000D03*
%TO.P,J5,17,Pin_17*%
%TO.N,Net-(J5-Pin_17)*%
X106000000Y-30600000D03*
%TO.P,J5,16,Pin_16*%
%TO.N,Net-(J5-Pin_16)*%
X106000000Y-33140000D03*
%TO.P,J5,15,Pin_15*%
%TO.N,Net-(J5-Pin_15)*%
X106000000Y-35680000D03*
%TO.P,J5,14,Pin_14*%
%TO.N,Net-(J5-Pin_14)*%
X106000000Y-38220000D03*
%TO.P,J5,13,Pin_13*%
%TO.N,Net-(J5-Pin_13)*%
X106000000Y-40760000D03*
%TO.P,J5,12,Pin_12*%
%TO.N,Net-(J5-Pin_12)*%
X106000000Y-43300000D03*
%TO.P,J5,11,Pin_11*%
%TO.N,Net-(J5-Pin_11)*%
X106000000Y-45840000D03*
%TO.P,J5,10,Pin_10*%
%TO.N,Net-(J5-Pin_10)*%
X106000000Y-48380000D03*
%TO.P,J5,9,Pin_9*%
%TO.N,Net-(J5-Pin_9)*%
X106000000Y-50920000D03*
%TO.P,J5,8,Pin_8*%
%TO.N,Net-(J5-Pin_8)*%
X106000000Y-53460000D03*
%TO.P,J5,7,Pin_7*%
%TO.N,Net-(J5-Pin_7)*%
X106000000Y-56000000D03*
%TO.P,J5,6,Pin_6*%
%TO.N,Net-(J5-Pin_6)*%
X106000000Y-58540000D03*
%TO.P,J5,5,Pin_5*%
%TO.N,Net-(J5-Pin_5)*%
X106000000Y-61080000D03*
%TO.P,J5,4,Pin_4*%
%TO.N,Net-(J5-Pin_4)*%
X106000000Y-63620000D03*
%TO.P,J5,3,Pin_3*%
%TO.N,Net-(J5-Pin_3)*%
X106000000Y-66160000D03*
%TO.P,J5,2,Pin_2*%
%TO.N,Net-(J5-Pin_2)*%
X106000000Y-68700000D03*
D14*
%TO.P,J5,1,Pin_1*%
%TO.N,Net-(J5-Pin_1)*%
X106000000Y-71240000D03*
%TD*%
%TO.P,J4,1,Pin_1*%
%TO.N,/IR Emitter + Receiver/Vsup*%
X117957500Y-35555000D03*
D15*
%TO.P,J4,2,Pin_2*%
%TO.N,/IR Emitter + Receiver/RecSup*%
X117957500Y-33015000D03*
%TO.P,J4,3,Pin_3*%
%TO.N,/IR Emitter + Receiver/Emit_Direct*%
X117957500Y-30475000D03*
%TO.P,J4,4,Pin_4*%
%TO.N,/IR Emitter + Receiver/Emit_MOS*%
X117957500Y-27935000D03*
%TD*%
D14*
%TO.P,J3,1,Pin_1*%
%TO.N,Net-(J3-Pin_1)*%
X69921500Y-39360000D03*
D15*
%TO.P,J3,2,Pin_2*%
%TO.N,Net-(J3-Pin_2)*%
X69921500Y-36820000D03*
%TO.P,J3,3,Pin_3*%
%TO.N,Net-(J3-Pin_3)*%
X69921500Y-34280000D03*
%TO.P,J3,4,Pin_4*%
%TO.N,Net-(J3-Pin_4)*%
X69921500Y-31740000D03*
%TD*%
D14*
%TO.P,J2,1,Pin_1*%
%TO.N,3.3V*%
X74930000Y-57150000D03*
D15*
%TO.P,J2,2,Pin_2*%
%TO.N,Net-(J2-Pin_2)*%
X77470000Y-57150000D03*
%TO.P,J2,3,Pin_3*%
%TO.N,Net-(J2-Pin_3)*%
X80010000Y-57150000D03*
%TO.P,J2,4,Pin_4*%
%TO.N,GND*%
X82550000Y-57150000D03*
%TO.P,J2,5,Pin_5*%
%TO.N,Net-(J2-Pin_5)*%
X85090000Y-57150000D03*
%TO.P,J2,6,Pin_6*%
%TO.N,Net-(J2-Pin_6)*%
X87630000Y-57150000D03*
%TO.P,J2,7,Pin_7*%
%TO.N,unconnected-(J2-Pin_7-Pad7)*%
X90170000Y-57150000D03*
%TO.P,J2,8,Pin_8*%
%TO.N,unconnected-(J2-Pin_8-Pad8)*%
X92710000Y-57150000D03*
%TD*%
D14*
%TO.P,J1,1,Pin_1*%
%TO.N,Net-(J1-Pin_1)*%
X128510000Y-36830000D03*
D15*
%TO.P,J1,2,Pin_2*%
%TO.N,GND*%
X128510000Y-34290000D03*
%TD*%
D29*
%TO.P,C5,1*%
%TO.N,/IR Emitter + Receiver/Vsup*%
X117400000Y-55880000D03*
%TO.P,C5,2*%
%TO.N,GND*%
X119300000Y-55880000D03*
%TD*%
D30*
%TO.P,C4,2*%
%TO.N,3.3V*%
X49791500Y-57470000D03*
%TO.P,C4,1*%
%TO.N,GND*%
X49791500Y-59370000D03*
%TD*%
%TO.P,C3,2*%
%TO.N,/PowerSupply/Vin*%
X57411500Y-49850000D03*
%TO.P,C3,1*%
%TO.N,GND*%
X57411500Y-51750000D03*
%TD*%
%TO.P,C2,1*%
%TO.N,18V*%
X64460000Y-31430000D03*
%TO.P,C2,2*%
%TO.N,GND*%
X64460000Y-29530000D03*
%TD*%
%TO.P,C1,2*%
%TO.N,GND*%
X56840000Y-37150000D03*
%TO.P,C1,1*%
%TO.N,/PowerSupply/Vin*%
X56840000Y-39050000D03*
%TD*%
D15*
%TO.P,BT1,2,-*%
%TO.N,GND*%
X65920500Y-55880000D03*
D14*
%TO.P,BT1,1,+*%
%TO.N,/PowerSupply/VBatt*%
X63380500Y-55880000D03*
%TD*%
D31*
%TO.N,GND*%
X85090000Y-39370000D03*
X82550000Y-39370000D03*
X85090000Y-34290000D03*
X82550000Y-34290000D03*
X122160000Y-69850000D03*
%TO.N,18V*%
X133590000Y-50800000D03*
X132000000Y-75000000D03*
X96000000Y-74930000D03*
X134860000Y-39370000D03*
X96000000Y-66040000D03*
X54871500Y-31750000D03*
X54610000Y-66040000D03*
%TO.N,GND*%
X119620000Y-53340000D03*
X132320000Y-55880000D03*
X123430000Y-60960000D03*
%TO.N,/IR Emitter + Receiver/Vsup*%
X114540000Y-68580000D03*
X114540000Y-58420000D03*
%TO.N,GND*%
X55927500Y-36237500D03*
X66301500Y-29210000D03*
X58681500Y-57150000D03*
X52331500Y-59690000D03*
X92710000Y-30480000D03*
X78740000Y-48260000D03*
X74930000Y-29210000D03*
%TO.N,/IR Emitter + Receiver/RecSup*%
X127240000Y-64770000D03*
%TO.N,Net-(J5-Pin_19)*%
X78740000Y-39370000D03*
X78740000Y-29210000D03*
X90170000Y-29210000D03*
X96520000Y-27940000D03*
%TO.N,Net-(J5-Pin_18)*%
X80010000Y-38100000D03*
X80010000Y-30480000D03*
X92710000Y-29210000D03*
X96520000Y-29210000D03*
%TO.N,Net-(J5-Pin_17)*%
X87630000Y-43180000D03*
X87630000Y-31750000D03*
X92710000Y-31750000D03*
X96520000Y-33020000D03*
%TO.N,Net-(J5-Pin_16)*%
X91440000Y-41910000D03*
X96520000Y-34290000D03*
%TO.N,Net-(J5-Pin_15)*%
X92710000Y-40640000D03*
X96520000Y-36830000D03*
%TO.N,Net-(J5-Pin_1)*%
X97790000Y-71120000D03*
X97790000Y-54610000D03*
X93980000Y-48260000D03*
X93980000Y-54610000D03*
%TO.N,Net-(J5-Pin_7)*%
X95250000Y-49530000D03*
X95250000Y-55880000D03*
%TO.N,Net-(J5-Pin_6)*%
X69850000Y-44450000D03*
X69850000Y-58420000D03*
%TO.N,Net-(J5-Pin_5)*%
X71120000Y-50800000D03*
X81280000Y-50800000D03*
X81280000Y-48260000D03*
X71125000Y-60955000D03*
%TO.N,Net-(J5-Pin_4)*%
X72390000Y-63500000D03*
X72390000Y-45720000D03*
%TO.N,Net-(J2-Pin_6)*%
X96520000Y-52070000D03*
X96520000Y-45720000D03*
X87630000Y-52070000D03*
%TO.N,Net-(J2-Pin_2)*%
X77470000Y-54610000D03*
X88900000Y-54610000D03*
X88900000Y-34290000D03*
%TO.N,Net-(J2-Pin_3)*%
X80010000Y-53340000D03*
X90170000Y-53340000D03*
X90170000Y-33020000D03*
%TO.N,Net-(J2-Pin_5)*%
X85090000Y-52070000D03*
X74930000Y-52070000D03*
X74930000Y-31750000D03*
%TO.N,Net-(J5-Pin_2)*%
X102000000Y-68575000D03*
X102000000Y-44445000D03*
%TO.N,Net-(J5-Pin_3)*%
X103000000Y-66035000D03*
X103000000Y-42000000D03*
%TO.N,Net-(J5-Pin_8)*%
X97000000Y-53335000D03*
X97000000Y-43175000D03*
%TO.N,Net-(J5-Pin_9)*%
X99000000Y-50795000D03*
X98000000Y-41805000D03*
%TO.N,Net-(J5-Pin_10)*%
X100000000Y-48255000D03*
X99000000Y-39365000D03*
%TO.N,Net-(J5-Pin_11)*%
X100000000Y-37995000D03*
X101000000Y-45715000D03*
%TO.N,Net-(J5-Pin_12)*%
X102000000Y-43175000D03*
X100000000Y-35455000D03*
%TO.N,Net-(J5-Pin_13)*%
X103000000Y-40000000D03*
X103000000Y-31645000D03*
%TO.N,Net-(J5-Pin_14)*%
X104000000Y-30375000D03*
X104000000Y-38095000D03*
%TO.N,GND*%
X59243768Y-52645694D03*
%TD*%
D32*
%TO.N,18V*%
X54610000Y-66040000D02*
X96000000Y-66040000D01*
X49280000Y-30480000D02*
X54871500Y-30480000D01*
X49000000Y-30200000D02*
X49280000Y-30480000D01*
D33*
%TO.N,GND*%
X68000000Y-57959500D02*
X65920500Y-55880000D01*
X68000000Y-61000000D02*
X68000000Y-57959500D01*
D32*
%TO.N,18V*%
X96000000Y-74930000D02*
X131930000Y-74930000D01*
X131930000Y-74930000D02*
X132000000Y-75000000D01*
D33*
%TO.N,Net-(J5-Pin_1)*%
X97910000Y-71000000D02*
X106000000Y-71000000D01*
X97790000Y-71120000D02*
X97910000Y-71000000D01*
%TO.N,Net-(J5-Pin_2)*%
X102000000Y-68575000D02*
X106000000Y-68575000D01*
%TO.N,Net-(J5-Pin_3)*%
X105965000Y-66035000D02*
X106000000Y-66000000D01*
X103000000Y-66035000D02*
X105965000Y-66035000D01*
%TO.N,Net-(J5-Pin_4)*%
X72395000Y-63495000D02*
X72390000Y-63500000D01*
X106000000Y-63495000D02*
X72395000Y-63495000D01*
%TO.N,Net-(J5-Pin_5)*%
X106000000Y-60955000D02*
X71125000Y-60955000D01*
%TO.N,Net-(J5-Pin_6)*%
X69855000Y-58415000D02*
X69850000Y-58420000D01*
X106000000Y-58415000D02*
X69855000Y-58415000D01*
%TO.N,Net-(J5-Pin_7)*%
X95255000Y-55875000D02*
X95250000Y-55880000D01*
X106000000Y-55875000D02*
X95255000Y-55875000D01*
%TO.N,Net-(J5-Pin_8)*%
X97000000Y-53335000D02*
X106000000Y-53335000D01*
%TO.N,Net-(J5-Pin_9)*%
X99000000Y-50795000D02*
X106000000Y-50795000D01*
%TO.N,Net-(J5-Pin_10)*%
X105745000Y-48255000D02*
X106000000Y-48000000D01*
X100000000Y-48255000D02*
X105745000Y-48255000D01*
%TO.N,Net-(J5-Pin_11)*%
X101000000Y-45715000D02*
X106000000Y-45715000D01*
%TO.N,Net-(J5-Pin_12)*%
X105825000Y-43175000D02*
X106000000Y-43000000D01*
X102000000Y-43175000D02*
X105825000Y-43175000D01*
%TO.N,Net-(J5-Pin_13)*%
X103000000Y-40000000D02*
X103635000Y-40635000D01*
X103635000Y-40635000D02*
X106000000Y-40635000D01*
%TO.N,Net-(J5-Pin_14)*%
X105905000Y-38095000D02*
X106000000Y-38000000D01*
X104000000Y-38095000D02*
X105905000Y-38095000D01*
%TO.N,Net-(J5-Pin_15)*%
X103388750Y-36830000D02*
X96520000Y-36830000D01*
X104663750Y-35555000D02*
X103388750Y-36830000D01*
X106000000Y-35555000D02*
X104663750Y-35555000D01*
%TO.N,Net-(J5-Pin_16)*%
X103658750Y-34290000D02*
X96520000Y-34290000D01*
X104933750Y-33015000D02*
X103658750Y-34290000D01*
X106000000Y-33015000D02*
X104933750Y-33015000D01*
%TO.N,Net-(J5-Pin_19)*%
X104000000Y-28000000D02*
X103940000Y-27940000D01*
X103940000Y-27940000D02*
X96520000Y-27940000D01*
X106000000Y-26000000D02*
X104000000Y-28000000D01*
X106000000Y-25395000D02*
X106000000Y-26000000D01*
%TO.N,Net-(J5-Pin_18)*%
X103698750Y-29210000D02*
X96520000Y-29210000D01*
X104973750Y-27935000D02*
X103698750Y-29210000D01*
X106000000Y-27935000D02*
X104973750Y-27935000D01*
%TO.N,Net-(J5-Pin_17)*%
X102980000Y-33020000D02*
X96520000Y-33020000D01*
X105525000Y-30475000D02*
X102980000Y-33020000D01*
X106000000Y-30475000D02*
X105525000Y-30475000D01*
%TO.N,Net-(J5-Pin_3)*%
X99535000Y-40535000D02*
X94475000Y-40535000D01*
X103000000Y-42000000D02*
X102905000Y-41905000D01*
X102905000Y-41905000D02*
X100905000Y-41905000D01*
X100905000Y-41905000D02*
X99535000Y-40535000D01*
%TO.N,Net-(J5-Pin_2)*%
X101900000Y-44345000D02*
X94475000Y-44345000D01*
X102000000Y-44445000D02*
X101900000Y-44345000D01*
%TO.N,Net-(J5-Pin_14)*%
X104000000Y-30375000D02*
X94475000Y-30375000D01*
%TO.N,Net-(J5-Pin_13)*%
X103000000Y-31645000D02*
X94475000Y-31645000D01*
%TO.N,Net-(J5-Pin_12)*%
X100000000Y-35455000D02*
X94475000Y-35455000D01*
%TO.N,Net-(J5-Pin_11)*%
X94475000Y-37995000D02*
X100000000Y-37995000D01*
%TO.N,Net-(J5-Pin_10)*%
X98900000Y-39265000D02*
X94475000Y-39265000D01*
X99000000Y-39365000D02*
X98900000Y-39265000D01*
%TO.N,Net-(J5-Pin_9)*%
X98000000Y-41805000D02*
X94475000Y-41805000D01*
%TO.N,Net-(J5-Pin_8)*%
X97000000Y-43175000D02*
X96900000Y-43075000D01*
X96900000Y-43075000D02*
X94475000Y-43075000D01*
D32*
%TO.N,18V*%
X64140000Y-31750000D02*
X64460000Y-31430000D01*
X61221500Y-31750000D02*
X64140000Y-31750000D01*
X59951500Y-30480000D02*
X61221500Y-31750000D01*
X59570500Y-30480000D02*
X59951500Y-30480000D01*
D33*
%TO.N,GND*%
X120890000Y-68580000D02*
X122160000Y-69850000D01*
X120890000Y-68222500D02*
X120890000Y-68580000D01*
X118350000Y-68222500D02*
X120890000Y-68222500D01*
%TO.N,Net-(J6-Pin_2)*%
X128117500Y-24135000D02*
X128117500Y-27032500D01*
%TO.N,GND*%
X128510000Y-29250000D02*
X128510000Y-34290000D01*
X128117500Y-28857500D02*
X128510000Y-29250000D01*
D32*
%TO.N,18V*%
X133590000Y-50800000D02*
X133590000Y-51104800D01*
X133590000Y-51104800D02*
X132624800Y-52070000D01*
X134860000Y-39597300D02*
X133577300Y-40880000D01*
X54871500Y-30480000D02*
X54871500Y-31750000D01*
X54871500Y-30480000D02*
X59570500Y-30480000D01*
X134860000Y-39370000D02*
X134860000Y-39597300D01*
D33*
%TO.N,GND*%
X119300000Y-53660000D02*
X119620000Y-53340000D01*
X119300000Y-55880000D02*
X119300000Y-53660000D01*
%TO.N,Net-(U4-CATHODE)*%
X121855200Y-56487700D02*
X122517500Y-57150000D01*
X121855200Y-54610000D02*
X121855200Y-56487700D01*
%TO.N,GND*%
X132624800Y-55575200D02*
X132320000Y-55880000D01*
X132624800Y-54610000D02*
X132624800Y-55575200D01*
X124342500Y-60047500D02*
X123430000Y-60960000D01*
X124342500Y-57150000D02*
X124342500Y-60047500D01*
X120960000Y-63430000D02*
X123430000Y-60960000D01*
X120255000Y-63430000D02*
X120960000Y-63430000D01*
%TO.N,Net-(J1-Pin_1)*%
X124700000Y-37385000D02*
X125255000Y-36830000D01*
X125255000Y-36830000D02*
X128510000Y-36830000D01*
X125220700Y-37905700D02*
X124700000Y-37385000D01*
X125220700Y-43180000D02*
X125220700Y-37905700D01*
%TO.N,GND*%
X124700000Y-35560000D02*
X125970000Y-34290000D01*
X125970000Y-34290000D02*
X128510000Y-34290000D01*
%TO.N,/IR Emitter + Receiver/Vsup*%
X116445000Y-58490000D02*
X116445000Y-56835000D01*
X116445000Y-56835000D02*
X117400000Y-55880000D01*
X115452500Y-68580000D02*
X115810000Y-68222500D01*
X114540000Y-68580000D02*
X115452500Y-68580000D01*
X114610000Y-58490000D02*
X114540000Y-58420000D01*
X116445000Y-58490000D02*
X114610000Y-58490000D01*
%TO.N,GND*%
X65981500Y-29530000D02*
X66301500Y-29210000D01*
X64460000Y-29530000D02*
X65981500Y-29530000D01*
X56840000Y-37150000D02*
X55927500Y-36237500D01*
X55927500Y-36237500D02*
X55927500Y-34290000D01*
X59865426Y-38100000D02*
X57790000Y-38100000D01*
X57790000Y-38100000D02*
X56840000Y-37150000D01*
X60650000Y-37315426D02*
X59865426Y-38100000D01*
X60650000Y-36915000D02*
X60650000Y-37315426D01*
X58681500Y-54967500D02*
X58681500Y-57150000D01*
X58324000Y-54610000D02*
X58681500Y-54967500D01*
X50111500Y-59690000D02*
X52331500Y-59690000D01*
X49791500Y-59370000D02*
X50111500Y-59690000D01*
%TO.N,/PowerSupply/VBatt*%
X62110500Y-59690000D02*
X62110500Y-57150000D01*
X62110500Y-57150000D02*
X63380500Y-55880000D01*
%TO.N,GND*%
X94085000Y-29105000D02*
X92710000Y-30480000D01*
X94475000Y-29105000D02*
X94085000Y-29105000D01*
X80010000Y-46990000D02*
X78740000Y-48260000D01*
X80010000Y-46865000D02*
X80010000Y-46990000D01*
X75035000Y-29105000D02*
X74930000Y-29210000D01*
X76975000Y-29105000D02*
X75035000Y-29105000D01*
%TO.N,/IR Emitter + Receiver/RecSup*%
X127240000Y-67310000D02*
X127240000Y-64770000D01*
%TO.N,/IR Emitter + Receiver/Vrec*%
X123787500Y-66397500D02*
X120890000Y-66397500D01*
X124700000Y-67310000D02*
X123787500Y-66397500D01*
%TO.N,/IR Emitter + Receiver/Rec_out*%
X112912500Y-49490000D02*
X117957500Y-44445000D01*
X112912500Y-62230000D02*
X112912500Y-49490000D01*
X114112500Y-63430000D02*
X112912500Y-62230000D01*
X116445000Y-63430000D02*
X114112500Y-63430000D01*
%TO.N,/IR Emitter + Receiver/Vref*%
X115810000Y-66397500D02*
X118350000Y-66397500D01*
X117715000Y-65762500D02*
X117715000Y-63430000D01*
X118350000Y-66397500D02*
X117715000Y-65762500D01*
%TO.N,/IR Emitter + Receiver/Vrec*%
X118985000Y-64492500D02*
X118985000Y-63430000D01*
X120890000Y-66397500D02*
X118985000Y-64492500D01*
%TO.N,/Buzzer/PWM*%
X117957500Y-41905000D02*
X121855200Y-45802700D01*
X121855200Y-45802700D02*
X121855200Y-52070000D01*
%TO.N,Net-(U4-VOUT)*%
X134860000Y-50442500D02*
X133590000Y-49172500D01*
X134860000Y-51676300D02*
X134860000Y-50442500D01*
X133196300Y-53340000D02*
X134860000Y-51676300D01*
X132624800Y-53340000D02*
X133196300Y-53340000D01*
%TO.N,Net-(U5-Gate)*%
X133577300Y-47334800D02*
X133590000Y-47347500D01*
X133577300Y-45480000D02*
X133577300Y-47334800D01*
%TO.N,/IR Emitter + Receiver/Emit_MOS*%
X119237500Y-29215000D02*
X117957500Y-27935000D01*
X121767500Y-29215000D02*
X119237500Y-29215000D01*
%TO.N,/IR Emitter + Receiver/Emit_Direct*%
X123667502Y-28584998D02*
X125577500Y-26675000D01*
X123667502Y-29215000D02*
X123667502Y-28584998D01*
X125577500Y-26675000D02*
X125577500Y-24135000D01*
X122407502Y-30475000D02*
X123667502Y-29215000D01*
X117957500Y-30475000D02*
X122407502Y-30475000D01*
%TO.N,Net-(J5-Pin_19)*%
X77080000Y-39370000D02*
X76975000Y-39265000D01*
X78740000Y-39370000D02*
X77080000Y-39370000D01*
X90170000Y-29210000D02*
X78740000Y-29210000D01*
%TO.N,Net-(J5-Pin_18)*%
X79905000Y-37995000D02*
X76975000Y-37995000D01*
X80010000Y-38100000D02*
X79905000Y-37995000D01*
X91440000Y-30480000D02*
X80010000Y-30480000D01*
X92710000Y-29210000D02*
X91440000Y-30480000D01*
%TO.N,Net-(J5-Pin_17)*%
X87525000Y-43075000D02*
X87630000Y-43180000D01*
X76975000Y-43075000D02*
X87525000Y-43075000D01*
X92710000Y-31750000D02*
X87630000Y-31750000D01*
%TO.N,Net-(J5-Pin_16)*%
X91335000Y-41805000D02*
X76975000Y-41805000D01*
X91440000Y-41910000D02*
X91335000Y-41805000D01*
%TO.N,Net-(J5-Pin_15)*%
X78635000Y-40535000D02*
X76975000Y-40535000D01*
X78740000Y-40640000D02*
X78635000Y-40535000D01*
X92710000Y-40640000D02*
X78740000Y-40640000D01*
%TO.N,Net-(J2-Pin_3)*%
X90275000Y-32915000D02*
X90170000Y-33020000D01*
X94475000Y-32915000D02*
X90275000Y-32915000D01*
%TO.N,Net-(J2-Pin_2)*%
X89005000Y-34185000D02*
X88900000Y-34290000D01*
X94475000Y-34185000D02*
X89005000Y-34185000D01*
%TO.N,Net-(J2-Pin_3)*%
X90170000Y-53340000D02*
X80010000Y-53340000D01*
%TO.N,Net-(J2-Pin_2)*%
X88900000Y-54610000D02*
X77470000Y-54610000D01*
%TO.N,Net-(J5-Pin_1)*%
X93980000Y-54610000D02*
X97790000Y-54610000D01*
X92585000Y-46865000D02*
X93980000Y-48260000D01*
X91440000Y-46865000D02*
X92585000Y-46865000D01*
%TO.N,Net-(J5-Pin_7)*%
X90170000Y-47865000D02*
X90170000Y-46865000D01*
X95250000Y-49530000D02*
X91835000Y-49530000D01*
X91835000Y-49530000D02*
X90170000Y-47865000D01*
%TO.N,Net-(J5-Pin_6)*%
X69955000Y-44345000D02*
X76975000Y-44345000D01*
X69850000Y-44450000D02*
X69955000Y-44345000D01*
%TO.N,Net-(J5-Pin_5)*%
X81280000Y-50800000D02*
X71120000Y-50800000D01*
X81280000Y-46865000D02*
X81280000Y-48260000D01*
X71120000Y-60960000D02*
X71125000Y-60955000D01*
%TO.N,Net-(J5-Pin_4)*%
X72495000Y-45615000D02*
X76975000Y-45615000D01*
X72390000Y-45720000D02*
X72495000Y-45615000D01*
%TO.N,Net-(J2-Pin_6)*%
X96520000Y-52070000D02*
X87630000Y-52070000D01*
X96415000Y-45615000D02*
X96520000Y-45720000D01*
X94475000Y-45615000D02*
X96415000Y-45615000D01*
%TO.N,Net-(J2-Pin_5)*%
X74930000Y-52070000D02*
X85090000Y-52070000D01*
X75035000Y-31645000D02*
X74930000Y-31750000D01*
X76975000Y-31645000D02*
X75035000Y-31645000D01*
%TO.N,Net-(J3-Pin_4)*%
X71025000Y-32915000D02*
X69850000Y-31740000D01*
X76975000Y-32915000D02*
X71025000Y-32915000D01*
%TO.N,Net-(J3-Pin_1)*%
X76975000Y-36725000D02*
X72485000Y-36725000D01*
X72485000Y-36725000D02*
X69850000Y-39360000D01*
%TO.N,Net-(J3-Pin_2)*%
X71215000Y-35455000D02*
X69850000Y-36820000D01*
X76975000Y-35455000D02*
X71215000Y-35455000D01*
%TO.N,Net-(J3-Pin_3)*%
X69945000Y-34185000D02*
X69850000Y-34280000D01*
X76975000Y-34185000D02*
X69945000Y-34185000D01*
%TO.N,GND*%
X60916701Y-51750000D02*
X57411500Y-51750000D01*
X63060501Y-49606200D02*
X60916701Y-51750000D01*
X57411500Y-51750000D02*
X58324000Y-52662500D01*
X58324000Y-52662500D02*
X58324000Y-54610000D01*
X56786500Y-51125000D02*
X57411500Y-51750000D01*
X53540500Y-51669574D02*
X54085074Y-51125000D01*
X53540500Y-52070000D02*
X53540500Y-51669574D01*
X54085074Y-51125000D02*
X56786500Y-51125000D01*
%TO.N,/PowerSupply/VBatt*%
X63380500Y-53263800D02*
X62110500Y-51993800D01*
X63380500Y-55880000D02*
X63380500Y-53263800D01*
%TO.N,/PowerSupply/FB_3.3*%
X56499000Y-54610000D02*
X54514000Y-54610000D01*
X54514000Y-52093500D02*
X54490500Y-52070000D01*
X54514000Y-54610000D02*
X54514000Y-52093500D01*
%TO.N,/PowerSupply/FB_18*%
X59737500Y-34290000D02*
X57752500Y-34290000D01*
X59737500Y-36877500D02*
X59700000Y-36915000D01*
X59737500Y-34290000D02*
X59737500Y-36877500D01*
%TO.N,/PowerSupply/SW_18*%
X64269500Y-38510500D02*
X64460000Y-38320000D01*
%TD*%
%TA.AperFunction,Conductor*%
%TO.N,/PowerSupply/Vin*%
G36*
X60948288Y-38119685D02*
G01*
X60994043Y-38172489D01*
X61003987Y-38241647D01*
X60974962Y-38305203D01*
X60965790Y-38313795D01*
X60965942Y-38313947D01*
X60959948Y-38319940D01*
X60870034Y-38438508D01*
X60815445Y-38576936D01*
X60805000Y-38663928D01*
X60805000Y-39035000D01*
X61726000Y-39035000D01*
X61793039Y-39054685D01*
X61838794Y-39107489D01*
X61850000Y-39159000D01*
X61850000Y-40405000D01*
X61883681Y-40438681D01*
X61917166Y-40500004D01*
X61920000Y-40526362D01*
X61920000Y-41278000D01*
X61900315Y-41345039D01*
X61847511Y-41390794D01*
X61796000Y-41402000D01*
X60905135Y-41402000D01*
X60838096Y-41382315D01*
X60805869Y-41352311D01*
X60727790Y-41248012D01*
X60727787Y-41248009D01*
X60612693Y-41161849D01*
X60612686Y-41161845D01*
X60477979Y-41111603D01*
X60477972Y-41111601D01*
X60418444Y-41105200D01*
X59820500Y-41105200D01*
X59820500Y-47794800D01*
X60418428Y-47794800D01*
X60418444Y-47794799D01*
X60477972Y-47788398D01*
X60477979Y-47788396D01*
X60612686Y-47738154D01*
X60612693Y-47738150D01*
X60727787Y-47651990D01*
X60727790Y-47651987D01*
X60805869Y-47547689D01*
X60861803Y-47505818D01*
X60905135Y-47498000D01*
X61796000Y-47498000D01*
X61863039Y-47517685D01*
X61908794Y-47570489D01*
X61920000Y-47622000D01*
X61919999Y-48858314D01*
X61900314Y-48925354D01*
X61847510Y-48971108D01*
X61778352Y-48981052D01*
X61721688Y-48957581D01*
X61656587Y-48908846D01*
X61656585Y-48908845D01*
X61521878Y-48858603D01*
X61521871Y-48858601D01*
X61462343Y-48852200D01*
X61410499Y-48852200D01*
X61410499Y-49732200D01*
X61390814Y-49799239D01*
X61338010Y-49844994D01*
X61286499Y-49856200D01*
X60406499Y-49856200D01*
X60406499Y-49908044D01*
X60412900Y-49967572D01*
X60412902Y-49967579D01*
X60463144Y-50102286D01*
X60467396Y-50110072D01*
X60464369Y-50111724D01*
X60482995Y-50161621D01*
X60468161Y-50229898D01*
X60418768Y-50279317D01*
X60359313Y-50294500D01*
X58759049Y-50294500D01*
X58692010Y-50274815D01*
X58646255Y-50222011D01*
X58635691Y-50157895D01*
X58636499Y-50149981D01*
X58636500Y-50149973D01*
X58636500Y-50100000D01*
X56186501Y-50100000D01*
X56186501Y-50149986D01*
X56187310Y-50157898D01*
X56174541Y-50226591D01*
X56126660Y-50277475D01*
X56063952Y-50294500D01*
X55884500Y-50294500D01*
X55884491Y-50294500D01*
X55884490Y-50294501D01*
X55777049Y-50306052D01*
X55777037Y-50306054D01*
X55725527Y-50317260D01*
X55623002Y-50351383D01*
X55622996Y-50351386D01*
X55501962Y-50429171D01*
X55501959Y-50429172D01*
X55488460Y-50440870D01*
X55424903Y-50469893D01*
X55355745Y-50459948D01*
X55302942Y-50414192D01*
X55283259Y-50347152D01*
X55284144Y-50332370D01*
X55285500Y-50321078D01*
X55285500Y-49950000D01*
X53695500Y-49950000D01*
X53695500Y-50321071D01*
X53705945Y-50408063D01*
X53736194Y-50484768D01*
X53742475Y-50554355D01*
X53710138Y-50616291D01*
X53700844Y-50624639D01*
X53684488Y-50640995D01*
X53669698Y-50653627D01*
X53653488Y-50665404D01*
X53653485Y-50665407D01*
X53623784Y-50701309D01*
X53619852Y-50705631D01*
X53561803Y-50763680D01*
X53500480Y-50797166D01*
X53474121Y-50800000D01*
X53377878Y-50800000D01*
X53310839Y-50780315D01*
X53265084Y-50727511D01*
X53255140Y-50658353D01*
X53279074Y-50601075D01*
X53320464Y-50546493D01*
X53375054Y-50408063D01*
X53385500Y-50321071D01*
X53385500Y-49950000D01*
X52464500Y-49950000D01*
X52397461Y-49930315D01*
X52351706Y-49877511D01*
X52340500Y-49826000D01*
X52340500Y-49600000D01*
X56186500Y-49600000D01*
X57161499Y-49600000D01*
X57161499Y-48850000D01*
X57661500Y-48850000D01*
X57661500Y-49600000D01*
X58636499Y-49600000D01*
X58636499Y-49550028D01*
X58636498Y-49550013D01*
X58626005Y-49447302D01*
X58595817Y-49356200D01*
X60406499Y-49356200D01*
X60910499Y-49356200D01*
X60910499Y-48852200D01*
X60858654Y-48852200D01*
X60799126Y-48858601D01*
X60799119Y-48858603D01*
X60664412Y-48908845D01*
X60664405Y-48908849D01*
X60549311Y-48995009D01*
X60549308Y-48995012D01*
X60463148Y-49110106D01*
X60463144Y-49110113D01*
X60412902Y-49244820D01*
X60412900Y-49244827D01*
X60406499Y-49304355D01*
X60406499Y-49356200D01*
X58595817Y-49356200D01*
X58570858Y-49280880D01*
X58570856Y-49280875D01*
X58478815Y-49131654D01*
X58354845Y-49007684D01*
X58205624Y-48915643D01*
X58205619Y-48915641D01*
X58039197Y-48860494D01*
X58039190Y-48860493D01*
X57936486Y-48850000D01*
X57661500Y-48850000D01*
X57161499Y-48850000D01*
X56886529Y-48850000D01*
X56886512Y-48850001D01*
X56783802Y-48860494D01*
X56617380Y-48915641D01*
X56617375Y-48915643D01*
X56468154Y-49007684D01*
X56344184Y-49131654D01*
X56252143Y-49280875D01*
X56252141Y-49280880D01*
X56196994Y-49447302D01*
X56196993Y-49447309D01*
X56186500Y-49550013D01*
X56186500Y-49600000D01*
X52340500Y-49600000D01*
X52340500Y-48580000D01*
X52840500Y-48580000D01*
X52840500Y-49450000D01*
X53385500Y-49450000D01*
X53695500Y-49450000D01*
X54240500Y-49450000D01*
X54240500Y-48580000D01*
X54740500Y-48580000D01*
X54740500Y-49450000D01*
X55285500Y-49450000D01*
X55285500Y-49078928D01*
X55275054Y-48991936D01*
X55220465Y-48853508D01*
X55130554Y-48734945D01*
X55011991Y-48645034D01*
X54873563Y-48590445D01*
X54786572Y-48580000D01*
X54740500Y-48580000D01*
X54240500Y-48580000D01*
X54194428Y-48580000D01*
X54107436Y-48590445D01*
X53969008Y-48645034D01*
X53850445Y-48734945D01*
X53760534Y-48853508D01*
X53705945Y-48991936D01*
X53695500Y-49078928D01*
X53695500Y-49450000D01*
X53385500Y-49450000D01*
X53385500Y-49078928D01*
X53375054Y-48991936D01*
X53320465Y-48853508D01*
X53230554Y-48734945D01*
X53111991Y-48645034D01*
X52973563Y-48590445D01*
X52886572Y-48580000D01*
X52840500Y-48580000D01*
X52340500Y-48580000D01*
X52340500Y-48557285D01*
X52334332Y-48545988D01*
X52331500Y-48519637D01*
X52331500Y-47622000D01*
X52351185Y-47554961D01*
X52403989Y-47509206D01*
X52455500Y-47498000D01*
X53155865Y-47498000D01*
X53222904Y-47517685D01*
X53255131Y-47547689D01*
X53333209Y-47651987D01*
X53333212Y-47651990D01*
X53448306Y-47738150D01*
X53448313Y-47738154D01*
X53583020Y-47788396D01*
X53583027Y-47788398D01*
X53642555Y-47794799D01*
X53642572Y-47794800D01*
X54240500Y-47794800D01*
X54240500Y-44700000D01*
X54740500Y-44700000D01*
X54740500Y-47794800D01*
X55338428Y-47794800D01*
X55338444Y-47794799D01*
X55397972Y-47788398D01*
X55397979Y-47788396D01*
X55532686Y-47738154D01*
X55532693Y-47738150D01*
X55647787Y-47651990D01*
X55647790Y-47651987D01*
X55733950Y-47536893D01*
X55733954Y-47536886D01*
X55784196Y-47402179D01*
X55784198Y-47402172D01*
X55790599Y-47342644D01*
X55790600Y-47342627D01*
X55790600Y-44700000D01*
X58270400Y-44700000D01*
X58270400Y-47342644D01*
X58276801Y-47402172D01*
X58276803Y-47402179D01*
X58327045Y-47536886D01*
X58327049Y-47536893D01*
X58413209Y-47651987D01*
X58413212Y-47651990D01*
X58528306Y-47738150D01*
X58528313Y-47738154D01*
X58663020Y-47788396D01*
X58663027Y-47788398D01*
X58722555Y-47794799D01*
X58722572Y-47794800D01*
X59320500Y-47794800D01*
X59320500Y-44700000D01*
X58270400Y-44700000D01*
X55790600Y-44700000D01*
X54740500Y-44700000D01*
X54240500Y-44700000D01*
X54240500Y-41105200D01*
X54740500Y-41105200D01*
X54740500Y-44200000D01*
X55790600Y-44200000D01*
X58270400Y-44200000D01*
X59320500Y-44200000D01*
X59320500Y-41105200D01*
X58722555Y-41105200D01*
X58663027Y-41111601D01*
X58663020Y-41111603D01*
X58528313Y-41161845D01*
X58528306Y-41161849D01*
X58413212Y-41248009D01*
X58413209Y-41248012D01*
X58327049Y-41363106D01*
X58327045Y-41363113D01*
X58276803Y-41497820D01*
X58276801Y-41497827D01*
X58270400Y-41557355D01*
X58270400Y-44200000D01*
X55790600Y-44200000D01*
X55790600Y-41557372D01*
X55790599Y-41557355D01*
X55784198Y-41497827D01*
X55784196Y-41497820D01*
X55733954Y-41363113D01*
X55733950Y-41363106D01*
X55647790Y-41248012D01*
X55647787Y-41248009D01*
X55532693Y-41161849D01*
X55532686Y-41161845D01*
X55397979Y-41111603D01*
X55397972Y-41111601D01*
X55338444Y-41105200D01*
X54740500Y-41105200D01*
X54240500Y-41105200D01*
X53642555Y-41105200D01*
X53583027Y-41111601D01*
X53583020Y-41111603D01*
X53448313Y-41161845D01*
X53448306Y-41161849D01*
X53333212Y-41248009D01*
X53333209Y-41248012D01*
X53255131Y-41352311D01*
X53199197Y-41394182D01*
X53155865Y-41402000D01*
X52455500Y-41402000D01*
X52388461Y-41382315D01*
X52342706Y-41329511D01*
X52331500Y-41278000D01*
X52331500Y-40764000D01*
X52351185Y-40696961D01*
X52403989Y-40651206D01*
X52455500Y-40640000D01*
X55570000Y-40640000D01*
X55570000Y-39865023D01*
X55589685Y-39797984D01*
X55642489Y-39752229D01*
X55711647Y-39742285D01*
X55775203Y-39771310D01*
X55781681Y-39777342D01*
X55896654Y-39892315D01*
X56045875Y-39984356D01*
X56045880Y-39984358D01*
X56212302Y-40039505D01*
X56212309Y-40039506D01*
X56315019Y-40049999D01*
X56589999Y-40049999D01*
X56590000Y-40049998D01*
X56590000Y-39300000D01*
X57090000Y-39300000D01*
X57090000Y-40049999D01*
X57364972Y-40049999D01*
X57364986Y-40049998D01*
X57467697Y-40039505D01*
X57634119Y-39984358D01*
X57634124Y-39984356D01*
X57783345Y-39892315D01*
X57907315Y-39768345D01*
X57999356Y-39619124D01*
X57999358Y-39619119D01*
X58027232Y-39535000D01*
X58905000Y-39535000D01*
X58905000Y-39906071D01*
X58915445Y-39993063D01*
X58970034Y-40131491D01*
X59059945Y-40250054D01*
X59178508Y-40339965D01*
X59316936Y-40394554D01*
X59403928Y-40405000D01*
X59450000Y-40405000D01*
X59450000Y-39535000D01*
X59950000Y-39535000D01*
X59950000Y-40405000D01*
X59996072Y-40405000D01*
X60083063Y-40394554D01*
X60221491Y-40339965D01*
X60340054Y-40250054D01*
X60429965Y-40131491D01*
X60484554Y-39993063D01*
X60495000Y-39906071D01*
X60495000Y-39535000D01*
X60805000Y-39535000D01*
X60805000Y-39906071D01*
X60815445Y-39993063D01*
X60870034Y-40131491D01*
X60959945Y-40250054D01*
X61078508Y-40339965D01*
X61216936Y-40394554D01*
X61303928Y-40405000D01*
X61350000Y-40405000D01*
X61350000Y-39535000D01*
X60805000Y-39535000D01*
X60495000Y-39535000D01*
X59950000Y-39535000D01*
X59450000Y-39535000D01*
X58905000Y-39535000D01*
X58027232Y-39535000D01*
X58054505Y-39452697D01*
X58054506Y-39452690D01*
X58064999Y-39349986D01*
X58065000Y-39349973D01*
X58065000Y-39300000D01*
X57090000Y-39300000D01*
X56590000Y-39300000D01*
X56590000Y-38924000D01*
X56609685Y-38856961D01*
X56662489Y-38811206D01*
X56714000Y-38800000D01*
X58064999Y-38800000D01*
X58101318Y-38763681D01*
X58103657Y-38766020D01*
X58137488Y-38736706D01*
X58188999Y-38725500D01*
X58781000Y-38725500D01*
X58848039Y-38745185D01*
X58893794Y-38797989D01*
X58905000Y-38849500D01*
X58905000Y-39035000D01*
X60495000Y-39035000D01*
X60495000Y-38663928D01*
X60484554Y-38576936D01*
X60454581Y-38500930D01*
X60448300Y-38431343D01*
X60480637Y-38369407D01*
X60482130Y-38367885D01*
X60713697Y-38136318D01*
X60775022Y-38102834D01*
X60801379Y-38100000D01*
X60881249Y-38100000D01*
X60948288Y-38119685D01*
G37*
%TD.AperFunction*%
%TD*%
%TA.AperFunction,Conductor*%
%TO.N,/PowerSupply/SW_18*%
G36*
X62550139Y-36608585D02*
G01*
X63190000Y-36830000D01*
X64460000Y-36830000D01*
X66876000Y-36830000D01*
X66943039Y-36849685D01*
X66988794Y-36902489D01*
X67000000Y-36954000D01*
X67000000Y-48136000D01*
X66980315Y-48203039D01*
X66927511Y-48248794D01*
X66876000Y-48260000D01*
X63314000Y-48260000D01*
X63246961Y-48240315D01*
X63201206Y-48187511D01*
X63190000Y-48136000D01*
X63190000Y-47902830D01*
X63209685Y-47835791D01*
X63262489Y-47790036D01*
X63331647Y-47780092D01*
X63357338Y-47786650D01*
X63362021Y-47788397D01*
X63362027Y-47788398D01*
X63421555Y-47794799D01*
X63421572Y-47794800D01*
X64019500Y-47794800D01*
X64019500Y-44700000D01*
X64519500Y-44700000D01*
X64519500Y-47794800D01*
X65117428Y-47794800D01*
X65117444Y-47794799D01*
X65176972Y-47788398D01*
X65176979Y-47788396D01*
X65311686Y-47738154D01*
X65311693Y-47738150D01*
X65426787Y-47651990D01*
X65426790Y-47651987D01*
X65512950Y-47536893D01*
X65512954Y-47536886D01*
X65563196Y-47402179D01*
X65563198Y-47402172D01*
X65569599Y-47342644D01*
X65569600Y-47342627D01*
X65569600Y-44700000D01*
X64519500Y-44700000D01*
X64019500Y-44700000D01*
X64019500Y-41105200D01*
X64519500Y-41105200D01*
X64519500Y-44200000D01*
X65569600Y-44200000D01*
X65569600Y-41557372D01*
X65569599Y-41557355D01*
X65563198Y-41497827D01*
X65563196Y-41497820D01*
X65512954Y-41363113D01*
X65512950Y-41363106D01*
X65426790Y-41248012D01*
X65426787Y-41248009D01*
X65311693Y-41161849D01*
X65311686Y-41161845D01*
X65176979Y-41111603D01*
X65176972Y-41111601D01*
X65117444Y-41105200D01*
X64519500Y-41105200D01*
X64019500Y-41105200D01*
X63421555Y-41105200D01*
X63362027Y-41111601D01*
X63362014Y-41111604D01*
X63357329Y-41113352D01*
X63287638Y-41118334D01*
X63226316Y-41084847D01*
X63192833Y-41023523D01*
X63190000Y-40997169D01*
X63190000Y-39127537D01*
X63209685Y-39060498D01*
X63262489Y-39014743D01*
X63331647Y-39004799D01*
X63395203Y-39033824D01*
X63420117Y-39063387D01*
X63491407Y-39181315D01*
X63608684Y-39298592D01*
X63750628Y-39384401D01*
X63908985Y-39433746D01*
X63977805Y-39439999D01*
X64209998Y-39439999D01*
X64209999Y-39439998D01*
X64210000Y-38570000D01*
X64710000Y-38570000D01*
X64710000Y-39439999D01*
X64942203Y-39439999D01*
X65011018Y-39433746D01*
X65169367Y-39384403D01*
X65311315Y-39298592D01*
X65428592Y-39181315D01*
X65514401Y-39039371D01*
X65563746Y-38881014D01*
X65570000Y-38812194D01*
X65570000Y-38570000D01*
X64710000Y-38570000D01*
X64210000Y-38570000D01*
X64209999Y-37200000D01*
X64710000Y-37200000D01*
X64710000Y-38070000D01*
X65569999Y-38070000D01*
X65569999Y-37827795D01*
X65563746Y-37758981D01*
X65514403Y-37600632D01*
X65428592Y-37458684D01*
X65311315Y-37341407D01*
X65169371Y-37255598D01*
X65011014Y-37206253D01*
X64942194Y-37200000D01*
X64710000Y-37200000D01*
X64209999Y-37200000D01*
X63977795Y-37200000D01*
X63908981Y-37206253D01*
X63750632Y-37255596D01*
X63608684Y-37341407D01*
X63491407Y-37458684D01*
X63405598Y-37600628D01*
X63356253Y-37758985D01*
X63350000Y-37827805D01*
X63350000Y-37981242D01*
X63330315Y-38048281D01*
X63277511Y-38094036D01*
X63208353Y-38103980D01*
X63185451Y-38098425D01*
X62438042Y-37839795D01*
X62381125Y-37799270D01*
X62355153Y-37734406D01*
X62363237Y-37677122D01*
X62384553Y-37623066D01*
X62395000Y-37536071D01*
X62395000Y-37165000D01*
X61569500Y-37165000D01*
X61502461Y-37145315D01*
X61456706Y-37092511D01*
X61445500Y-37041000D01*
X61445500Y-36789000D01*
X61465185Y-36721961D01*
X61517989Y-36676206D01*
X61569500Y-36665000D01*
X62394998Y-36665000D01*
X62421910Y-36638088D01*
X62483233Y-36604603D01*
X62550139Y-36608585D01*
G37*
%TD.AperFunction*%
%TD*%
%TA.AperFunction,Conductor*%
%TO.N,18V*%
G36*
X63392016Y-30499685D02*
G01*
X63437771Y-30552489D01*
X63447715Y-30621647D01*
X63418690Y-30685203D01*
X63412658Y-30691681D01*
X63392684Y-30711654D01*
X63300643Y-30860875D01*
X63300641Y-30860880D01*
X63245494Y-31027302D01*
X63245493Y-31027309D01*
X63235000Y-31130013D01*
X63235000Y-31130026D01*
X63234999Y-31179999D01*
X63235000Y-31180000D01*
X65684999Y-31180000D01*
X65684999Y-31130028D01*
X65684998Y-31130013D01*
X65674505Y-31027302D01*
X65619358Y-30860880D01*
X65619356Y-30860875D01*
X65527315Y-30711654D01*
X65507342Y-30691681D01*
X65473857Y-30630358D01*
X65478841Y-30560666D01*
X65520713Y-30504733D01*
X65586177Y-30480316D01*
X65595023Y-30480000D01*
X66876000Y-30480000D01*
X66943039Y-30499685D01*
X66988794Y-30552489D01*
X67000000Y-30604000D01*
X67000000Y-35436000D01*
X66980315Y-35503039D01*
X66927511Y-35548794D01*
X66876000Y-35560000D01*
X63190000Y-35560000D01*
X62361449Y-35560000D01*
X62294410Y-35540315D01*
X62248655Y-35487511D01*
X62238711Y-35418353D01*
X62267736Y-35354797D01*
X62288169Y-35337420D01*
X62287677Y-35336798D01*
X62293344Y-35332316D01*
X62417315Y-35208345D01*
X62490311Y-35090000D01*
X63350000Y-35090000D01*
X64209999Y-35090000D01*
X64209999Y-34220000D01*
X64710000Y-34220000D01*
X64710000Y-35090000D01*
X65569999Y-35090000D01*
X65569999Y-34847795D01*
X65563746Y-34778981D01*
X65514403Y-34620632D01*
X65428592Y-34478684D01*
X65311315Y-34361407D01*
X65169371Y-34275598D01*
X65011014Y-34226253D01*
X64942194Y-34220000D01*
X64710000Y-34220000D01*
X64209999Y-34220000D01*
X63977795Y-34220000D01*
X63908981Y-34226253D01*
X63750632Y-34275596D01*
X63608684Y-34361407D01*
X63491407Y-34478684D01*
X63405598Y-34620628D01*
X63356253Y-34778985D01*
X63350000Y-34847805D01*
X63350000Y-35090000D01*
X62490311Y-35090000D01*
X62509356Y-35059124D01*
X62509358Y-35059119D01*
X62564505Y-34892697D01*
X62564506Y-34892690D01*
X62574999Y-34789986D01*
X62575000Y-34789973D01*
X62575000Y-34540000D01*
X61436500Y-34540000D01*
X61369461Y-34520315D01*
X61323706Y-34467511D01*
X61312500Y-34416000D01*
X61312500Y-33090000D01*
X61812500Y-33090000D01*
X61812500Y-34040000D01*
X62574999Y-34040000D01*
X62574999Y-33790028D01*
X62574998Y-33790013D01*
X62564505Y-33687302D01*
X62509358Y-33520880D01*
X62509356Y-33520875D01*
X62417315Y-33371654D01*
X62293345Y-33247684D01*
X62144124Y-33155643D01*
X62144119Y-33155641D01*
X61977697Y-33100494D01*
X61977690Y-33100493D01*
X61874986Y-33090000D01*
X61812500Y-33090000D01*
X61312500Y-33090000D01*
X61312499Y-33089999D01*
X61250028Y-33090000D01*
X61250011Y-33090001D01*
X61147302Y-33100494D01*
X60980880Y-33155641D01*
X60980871Y-33155645D01*
X60839096Y-33243093D01*
X60771704Y-33261533D01*
X60705040Y-33240610D01*
X60660271Y-33186968D01*
X60650000Y-33137554D01*
X60650000Y-32119000D01*
X60669685Y-32051961D01*
X60722489Y-32006206D01*
X60774000Y-31995000D01*
X61518328Y-31995000D01*
X61518344Y-31994999D01*
X61577872Y-31988598D01*
X61577879Y-31988596D01*
X61712586Y-31938354D01*
X61712593Y-31938350D01*
X61827687Y-31852190D01*
X61827690Y-31852187D01*
X61913850Y-31737093D01*
X61913854Y-31737086D01*
X61935146Y-31680000D01*
X63235001Y-31680000D01*
X63235001Y-31729986D01*
X63245494Y-31832697D01*
X63300641Y-31999119D01*
X63300643Y-31999124D01*
X63392684Y-32148345D01*
X63516654Y-32272315D01*
X63665875Y-32364356D01*
X63665880Y-32364358D01*
X63832302Y-32419505D01*
X63832309Y-32419506D01*
X63935019Y-32429999D01*
X64209999Y-32429999D01*
X64210000Y-32429998D01*
X64210000Y-31680000D01*
X64710000Y-31680000D01*
X64710000Y-32429999D01*
X64984972Y-32429999D01*
X64984986Y-32429998D01*
X65087697Y-32419505D01*
X65254119Y-32364358D01*
X65254124Y-32364356D01*
X65403345Y-32272315D01*
X65527315Y-32148345D01*
X65619356Y-31999124D01*
X65619358Y-31999119D01*
X65674505Y-31832697D01*
X65674506Y-31832690D01*
X65684999Y-31729986D01*
X65685000Y-31729973D01*
X65685000Y-31680000D01*
X64710000Y-31680000D01*
X64210000Y-31680000D01*
X63235001Y-31680000D01*
X61935146Y-31680000D01*
X61964096Y-31602379D01*
X61964098Y-31602372D01*
X61970499Y-31542844D01*
X61970500Y-31542827D01*
X61970500Y-30604000D01*
X61990185Y-30536961D01*
X62042989Y-30491206D01*
X62094500Y-30480000D01*
X63324977Y-30480000D01*
X63392016Y-30499685D01*
G37*
%TD.AperFunction*%
%TD*%
%TA.AperFunction,Conductor*%
%TO.N,/PowerSupply/SW_3.3*%
G36*
X51004539Y-40659685D02*
G01*
X51050294Y-40712489D01*
X51061500Y-40764000D01*
X51061500Y-41084663D01*
X51041815Y-41151702D01*
X50989011Y-41197457D01*
X50919853Y-41207401D01*
X50863190Y-41183931D01*
X50833688Y-41161846D01*
X50833686Y-41161845D01*
X50698979Y-41111603D01*
X50698972Y-41111601D01*
X50639444Y-41105200D01*
X50041500Y-41105200D01*
X50041500Y-47794800D01*
X50639428Y-47794800D01*
X50639444Y-47794799D01*
X50698972Y-47788398D01*
X50698979Y-47788396D01*
X50833686Y-47738154D01*
X50833693Y-47738150D01*
X50863189Y-47716070D01*
X50928653Y-47691652D01*
X50996926Y-47706503D01*
X51046332Y-47755908D01*
X51061500Y-47815336D01*
X51061500Y-49772462D01*
X51041815Y-49839501D01*
X50989011Y-49885256D01*
X50919853Y-49895200D01*
X50856297Y-49866175D01*
X50831384Y-49836613D01*
X50760094Y-49718687D01*
X50760091Y-49718683D01*
X50642815Y-49601407D01*
X50500871Y-49515598D01*
X50342514Y-49466253D01*
X50273694Y-49460000D01*
X50041500Y-49460000D01*
X50041500Y-51699999D01*
X50273703Y-51699999D01*
X50342518Y-51693746D01*
X50500867Y-51644403D01*
X50642815Y-51558592D01*
X50760092Y-51441315D01*
X50845901Y-51299371D01*
X50895246Y-51141014D01*
X50901499Y-51072194D01*
X50901499Y-50918762D01*
X50921183Y-50851722D01*
X50973987Y-50805967D01*
X51043145Y-50796023D01*
X51056734Y-50798759D01*
X51061500Y-50799999D01*
X51061500Y-50800000D01*
X51817154Y-50996689D01*
X51877070Y-51032624D01*
X51908049Y-51095251D01*
X51900251Y-51164684D01*
X51884720Y-51191614D01*
X51860535Y-51223506D01*
X51805945Y-51361936D01*
X51795500Y-51448928D01*
X51795500Y-51820000D01*
X52621000Y-51820000D01*
X52688039Y-51839685D01*
X52733794Y-51892489D01*
X52745000Y-51944000D01*
X52745000Y-52196000D01*
X52725315Y-52263039D01*
X52672511Y-52308794D01*
X52621000Y-52320000D01*
X51795500Y-52320000D01*
X51795500Y-52345684D01*
X51775815Y-52412723D01*
X51723011Y-52458478D01*
X51653853Y-52468422D01*
X51639001Y-52465349D01*
X51139458Y-52329683D01*
X51139457Y-52329682D01*
X49636149Y-52336489D01*
X47375518Y-52302747D01*
X47308780Y-52282064D01*
X47263818Y-52228583D01*
X47253369Y-52178781D01*
X47253291Y-51699999D01*
X47253150Y-50830000D01*
X48681501Y-50830000D01*
X48681501Y-51072204D01*
X48687753Y-51141018D01*
X48737096Y-51299367D01*
X48822907Y-51441315D01*
X48940184Y-51558592D01*
X49082128Y-51644401D01*
X49240485Y-51693746D01*
X49309305Y-51699999D01*
X49541499Y-51699999D01*
X49541500Y-51699998D01*
X49541500Y-50830000D01*
X48681501Y-50830000D01*
X47253150Y-50830000D01*
X47253030Y-50087805D01*
X48681499Y-50087805D01*
X48681500Y-50330000D01*
X49541500Y-50330000D01*
X49541500Y-49460000D01*
X49309295Y-49460000D01*
X49240481Y-49466253D01*
X49082132Y-49515596D01*
X48940184Y-49601407D01*
X48822907Y-49718684D01*
X48737098Y-49860628D01*
X48687753Y-50018985D01*
X48681499Y-50087805D01*
X47253030Y-50087805D01*
X47252157Y-44700000D01*
X48491400Y-44700000D01*
X48491400Y-47342644D01*
X48497801Y-47402172D01*
X48497803Y-47402179D01*
X48548045Y-47536886D01*
X48548049Y-47536893D01*
X48634209Y-47651987D01*
X48634212Y-47651990D01*
X48749306Y-47738150D01*
X48749313Y-47738154D01*
X48884020Y-47788396D01*
X48884027Y-47788398D01*
X48943555Y-47794799D01*
X48943572Y-47794800D01*
X49541500Y-47794800D01*
X49541500Y-44700000D01*
X48491400Y-44700000D01*
X47252157Y-44700000D01*
X47252076Y-44199999D01*
X48491399Y-44199999D01*
X48491400Y-44200000D01*
X49541500Y-44200000D01*
X49541500Y-41105200D01*
X48943555Y-41105200D01*
X48884027Y-41111601D01*
X48884020Y-41111603D01*
X48749313Y-41161845D01*
X48749306Y-41161849D01*
X48634212Y-41248009D01*
X48634209Y-41248012D01*
X48548049Y-41363106D01*
X48548045Y-41363113D01*
X48497803Y-41497820D01*
X48497801Y-41497827D01*
X48491400Y-41557355D01*
X48491400Y-41557372D01*
X48491399Y-44199999D01*
X47252076Y-44199999D01*
X47251520Y-40764019D01*
X47271194Y-40696977D01*
X47323990Y-40651214D01*
X47375520Y-40640000D01*
X50937500Y-40640000D01*
X51004539Y-40659685D01*
G37*
%TD.AperFunction*%
%TD*%
%TA.AperFunction,Conductor*%
%TO.N,GND*%
G36*
X56343516Y-50819685D02*
G01*
X56389271Y-50872489D01*
X56399215Y-50941647D01*
X56370190Y-51005203D01*
X56364158Y-51011681D01*
X56344184Y-51031654D01*
X56252143Y-51180875D01*
X56252141Y-51180880D01*
X56196994Y-51347302D01*
X56196993Y-51347309D01*
X56186500Y-51450013D01*
X56186500Y-51500000D01*
X58636499Y-51500000D01*
X58636499Y-51450028D01*
X58636498Y-51450013D01*
X58626005Y-51347302D01*
X58570858Y-51180880D01*
X58570856Y-51180875D01*
X58478815Y-51031654D01*
X58458842Y-51011681D01*
X58425357Y-50950358D01*
X58430341Y-50880666D01*
X58472213Y-50824733D01*
X58537677Y-50800316D01*
X58546523Y-50800000D01*
X60716500Y-50800000D01*
X60783539Y-50819685D01*
X60829294Y-50872489D01*
X60840500Y-50924000D01*
X60840500Y-53216000D01*
X60820815Y-53283039D01*
X60768011Y-53328794D01*
X60716500Y-53340000D01*
X55884500Y-53340000D01*
X55817461Y-53320315D01*
X55771706Y-53267511D01*
X55760500Y-53216000D01*
X55760500Y-52000000D01*
X56186501Y-52000000D01*
X56186501Y-52049986D01*
X56196994Y-52152697D01*
X56252141Y-52319119D01*
X56252143Y-52319124D01*
X56344184Y-52468345D01*
X56468154Y-52592315D01*
X56617375Y-52684356D01*
X56617380Y-52684358D01*
X56783802Y-52739505D01*
X56783809Y-52739506D01*
X56886519Y-52749999D01*
X57161498Y-52749999D01*
X57161499Y-52749998D01*
X57161500Y-52000000D01*
X57661500Y-52000000D01*
X57661500Y-52749999D01*
X57936472Y-52749999D01*
X57936486Y-52749998D01*
X58039197Y-52739505D01*
X58205619Y-52684358D01*
X58205624Y-52684356D01*
X58354845Y-52592315D01*
X58478815Y-52468345D01*
X58570856Y-52319124D01*
X58570858Y-52319119D01*
X58626005Y-52152697D01*
X58626006Y-52152690D01*
X58636499Y-52049986D01*
X58636500Y-52049973D01*
X58636500Y-52000000D01*
X57661500Y-52000000D01*
X57161500Y-52000000D01*
X56186501Y-52000000D01*
X55760500Y-52000000D01*
X55760500Y-50924000D01*
X55780185Y-50856961D01*
X55832989Y-50811206D01*
X55884500Y-50800000D01*
X56276477Y-50800000D01*
X56343516Y-50819685D01*
G37*
%TD.AperFunction*%
%TD*%
%TA.AperFunction,Conductor*%
%TO.N,GND*%
G36*
X87573039Y-33039685D02*
G01*
X87618794Y-33092489D01*
X87630000Y-33144000D01*
X87630000Y-39890500D01*
X87610315Y-39957539D01*
X87557511Y-40003294D01*
X87506000Y-40014500D01*
X81404000Y-40014500D01*
X81336961Y-39994815D01*
X81291206Y-39942011D01*
X81280000Y-39890500D01*
X81280000Y-38475000D01*
X81875000Y-38475000D01*
X81875000Y-38722844D01*
X81881401Y-38782372D01*
X81881403Y-38782379D01*
X81931645Y-38917086D01*
X81931649Y-38917093D01*
X82017809Y-39032187D01*
X82017812Y-39032190D01*
X82132906Y-39118350D01*
X82132913Y-39118354D01*
X82267620Y-39168596D01*
X82267627Y-39168598D01*
X82327155Y-39174999D01*
X82327172Y-39175000D01*
X82575000Y-39175000D01*
X82575000Y-38475000D01*
X83075000Y-38475000D01*
X83075000Y-39175000D01*
X83322828Y-39175000D01*
X83322844Y-39174999D01*
X83382372Y-39168598D01*
X83382376Y-39168597D01*
X83481666Y-39131564D01*
X83551358Y-39126580D01*
X83568334Y-39131564D01*
X83667623Y-39168597D01*
X83667627Y-39168598D01*
X83727155Y-39174999D01*
X83727172Y-39175000D01*
X83975000Y-39175000D01*
X83975000Y-38475000D01*
X84475000Y-38475000D01*
X84475000Y-39175000D01*
X84722828Y-39175000D01*
X84722844Y-39174999D01*
X84782372Y-39168598D01*
X84782376Y-39168597D01*
X84881666Y-39131564D01*
X84951358Y-39126580D01*
X84968334Y-39131564D01*
X85067623Y-39168597D01*
X85067627Y-39168598D01*
X85127155Y-39174999D01*
X85127172Y-39175000D01*
X85375000Y-39175000D01*
X85375000Y-38475000D01*
X85875000Y-38475000D01*
X85875000Y-39175000D01*
X86122828Y-39175000D01*
X86122844Y-39174999D01*
X86182372Y-39168598D01*
X86182379Y-39168596D01*
X86317086Y-39118354D01*
X86317093Y-39118350D01*
X86432187Y-39032190D01*
X86432190Y-39032187D01*
X86518350Y-38917093D01*
X86518354Y-38917086D01*
X86568596Y-38782379D01*
X86568598Y-38782372D01*
X86574999Y-38722844D01*
X86575000Y-38722827D01*
X86575000Y-38475000D01*
X85875000Y-38475000D01*
X85375000Y-38475000D01*
X84475000Y-38475000D01*
X83975000Y-38475000D01*
X83075000Y-38475000D01*
X82575000Y-38475000D01*
X81875000Y-38475000D01*
X81280000Y-38475000D01*
X81280000Y-37075000D01*
X81875000Y-37075000D01*
X81875000Y-37322844D01*
X81881401Y-37382372D01*
X81881403Y-37382383D01*
X81918434Y-37481668D01*
X81923418Y-37551360D01*
X81918434Y-37568332D01*
X81881403Y-37667616D01*
X81881401Y-37667627D01*
X81875000Y-37727155D01*
X81875000Y-37975000D01*
X82575000Y-37975000D01*
X82575000Y-37075000D01*
X83075000Y-37075000D01*
X83075000Y-37975000D01*
X83975000Y-37975000D01*
X83975000Y-37075000D01*
X84475000Y-37075000D01*
X84475000Y-37975000D01*
X85375000Y-37975000D01*
X85375000Y-37075000D01*
X85875000Y-37075000D01*
X85875000Y-37975000D01*
X86575000Y-37975000D01*
X86575000Y-37727172D01*
X86574999Y-37727155D01*
X86568598Y-37667627D01*
X86568597Y-37667623D01*
X86531564Y-37568333D01*
X86526580Y-37498641D01*
X86531565Y-37481665D01*
X86568595Y-37382383D01*
X86568598Y-37382372D01*
X86574999Y-37322844D01*
X86575000Y-37322827D01*
X86575000Y-37075000D01*
X85875000Y-37075000D01*
X85375000Y-37075000D01*
X84475000Y-37075000D01*
X83975000Y-37075000D01*
X83075000Y-37075000D01*
X82575000Y-37075000D01*
X81875000Y-37075000D01*
X81280000Y-37075000D01*
X81280000Y-35675000D01*
X81875000Y-35675000D01*
X81875000Y-35922844D01*
X81881401Y-35982372D01*
X81881403Y-35982383D01*
X81918434Y-36081668D01*
X81923418Y-36151360D01*
X81918434Y-36168332D01*
X81881403Y-36267616D01*
X81881401Y-36267627D01*
X81875000Y-36327155D01*
X81875000Y-36575000D01*
X82575000Y-36575000D01*
X82575000Y-35675000D01*
X83075000Y-35675000D01*
X83075000Y-36575000D01*
X83975000Y-36575000D01*
X83975000Y-35675000D01*
X84475000Y-35675000D01*
X84475000Y-36575000D01*
X85375000Y-36575000D01*
X85375000Y-35675000D01*
X85875000Y-35675000D01*
X85875000Y-36575000D01*
X86575000Y-36575000D01*
X86575000Y-36327172D01*
X86574999Y-36327155D01*
X86568598Y-36267627D01*
X86568597Y-36267623D01*
X86531564Y-36168333D01*
X86526580Y-36098641D01*
X86531565Y-36081665D01*
X86568595Y-35982383D01*
X86568598Y-35982372D01*
X86574999Y-35922844D01*
X86575000Y-35922827D01*
X86575000Y-35675000D01*
X85875000Y-35675000D01*
X85375000Y-35675000D01*
X84475000Y-35675000D01*
X83975000Y-35675000D01*
X83075000Y-35675000D01*
X82575000Y-35675000D01*
X81875000Y-35675000D01*
X81280000Y-35675000D01*
X81280000Y-35175000D01*
X81875000Y-35175000D01*
X82575000Y-35175000D01*
X82575000Y-34475000D01*
X83075000Y-34475000D01*
X83075000Y-35175000D01*
X83975000Y-35175000D01*
X83975000Y-34475000D01*
X84475000Y-34475000D01*
X84475000Y-35175000D01*
X85375000Y-35175000D01*
X85375000Y-34475000D01*
X85875000Y-34475000D01*
X85875000Y-35175000D01*
X86575000Y-35175000D01*
X86575000Y-34927172D01*
X86574999Y-34927155D01*
X86568598Y-34867627D01*
X86568596Y-34867620D01*
X86518354Y-34732913D01*
X86518350Y-34732906D01*
X86432190Y-34617812D01*
X86432187Y-34617809D01*
X86317093Y-34531649D01*
X86317086Y-34531645D01*
X86182379Y-34481403D01*
X86182372Y-34481401D01*
X86122844Y-34475000D01*
X85875000Y-34475000D01*
X85375000Y-34475000D01*
X85127155Y-34475000D01*
X85067627Y-34481401D01*
X85067616Y-34481403D01*
X84968332Y-34518434D01*
X84898640Y-34523418D01*
X84881668Y-34518434D01*
X84782383Y-34481403D01*
X84782372Y-34481401D01*
X84722844Y-34475000D01*
X84475000Y-34475000D01*
X83975000Y-34475000D01*
X83727155Y-34475000D01*
X83667627Y-34481401D01*
X83667616Y-34481403D01*
X83568332Y-34518434D01*
X83498640Y-34523418D01*
X83481668Y-34518434D01*
X83382383Y-34481403D01*
X83382372Y-34481401D01*
X83322844Y-34475000D01*
X83075000Y-34475000D01*
X82575000Y-34475000D01*
X82327155Y-34475000D01*
X82267627Y-34481401D01*
X82267620Y-34481403D01*
X82132913Y-34531645D01*
X82132906Y-34531649D01*
X82017812Y-34617809D01*
X82017809Y-34617812D01*
X81931649Y-34732906D01*
X81931645Y-34732913D01*
X81881403Y-34867620D01*
X81881401Y-34867627D01*
X81875000Y-34927155D01*
X81875000Y-35175000D01*
X81280000Y-35175000D01*
X81280000Y-33144000D01*
X81299685Y-33076961D01*
X81352489Y-33031206D01*
X81404000Y-33020000D01*
X87506000Y-33020000D01*
X87573039Y-33039685D01*
G37*
%TD.AperFunction*%
%TD*%
M02*
