%TF.GenerationSoftware,KiCad,Pcbnew,7.0.7*%
%TF.CreationDate,2023-09-28T17:43:59-05:00*%
%TF.ProjectId,CatLasers,4361744c-6173-4657-9273-2e6b69636164,rev?*%
%TF.SameCoordinates,Original*%
%TF.FileFunction,Legend,Top*%
%TF.FilePolarity,Positive*%
%FSLAX46Y46*%
G04 Gerber Fmt 4.6, Leading zero omitted, Abs format (unit mm)*
G04 Created by KiCad (PCBNEW 7.0.7) date 2023-09-28 17:43:59*
%MOMM*%
%LPD*%
G01*
G04 APERTURE LIST*
G04 Aperture macros list*
%AMRoundRect*
0 Rectangle with rounded corners*
0 $1 Rounding radius*
0 $2 $3 $4 $5 $6 $7 $8 $9 X,Y pos of 4 corners*
0 Add a 4 corners polygon primitive as box body*
4,1,4,$2,$3,$4,$5,$6,$7,$8,$9,$2,$3,0*
0 Add four circle primitives for the rounded corners*
1,1,$1+$1,$2,$3*
1,1,$1+$1,$4,$5*
1,1,$1+$1,$6,$7*
1,1,$1+$1,$8,$9*
0 Add four rect primitives between the rounded corners*
20,1,$1+$1,$2,$3,$4,$5,0*
20,1,$1+$1,$4,$5,$6,$7,0*
20,1,$1+$1,$6,$7,$8,$9,0*
20,1,$1+$1,$8,$9,$2,$3,0*%
G04 Aperture macros list end*
%ADD10C,0.150000*%
%ADD11C,0.300000*%
%ADD12C,0.127000*%
%ADD13C,0.200000*%
%ADD14C,0.152400*%
%ADD15C,0.120000*%
%ADD16RoundRect,0.102000X-0.750000X-0.450000X0.750000X-0.450000X0.750000X0.450000X-0.750000X0.450000X0*%
%ADD17RoundRect,0.102000X-0.450000X-0.750000X0.450000X-0.750000X0.450000X0.750000X-0.450000X0.750000X0*%
%ADD18RoundRect,0.102000X-0.450000X-0.450000X0.450000X-0.450000X0.450000X0.450000X-0.450000X0.450000X0*%
%ADD19R,1.701800X0.558800*%
%ADD20R,1.700000X1.700000*%
%ADD21O,1.700000X1.700000*%
%ADD22RoundRect,0.102000X1.900000X1.015000X-1.900000X1.015000X-1.900000X-1.015000X1.900000X-1.015000X0*%
%ADD23RoundRect,0.102000X-1.900000X-1.015000X1.900000X-1.015000X1.900000X1.015000X-1.900000X1.015000X0*%
%ADD24RoundRect,0.285000X-0.427000X0.437000X-0.427000X-0.437000X0.427000X-0.437000X0.427000X0.437000X0*%
%ADD25RoundRect,0.144000X0.258000X-0.943000X0.258000X0.943000X-0.258000X0.943000X-0.258000X-0.943000X0*%
%ADD26R,2.413000X0.939800*%
%ADD27R,6.019800X5.562600*%
%ADD28RoundRect,0.143300X0.253700X-0.578700X0.253700X0.578700X-0.253700X0.578700X-0.253700X-0.578700X0*%
%ADD29RoundRect,0.143300X-0.253700X0.578700X-0.253700X-0.578700X0.253700X-0.578700X0.253700X0.578700X0*%
%ADD30RoundRect,0.250000X-0.450000X0.262500X-0.450000X-0.262500X0.450000X-0.262500X0.450000X0.262500X0*%
%ADD31RoundRect,0.250000X0.450000X-0.262500X0.450000X0.262500X-0.450000X0.262500X-0.450000X-0.262500X0*%
%ADD32RoundRect,0.250000X-0.262500X-0.450000X0.262500X-0.450000X0.262500X0.450000X-0.262500X0.450000X0*%
%ADD33RoundRect,0.250000X0.262500X0.450000X-0.262500X0.450000X-0.262500X-0.450000X0.262500X-0.450000X0*%
%ADD34R,0.508000X0.508000*%
%ADD35R,1.600200X5.689600*%
%ADD36RoundRect,0.250000X-0.250000X-0.475000X0.250000X-0.475000X0.250000X0.475000X-0.250000X0.475000X0*%
%ADD37RoundRect,0.250000X0.475000X-0.250000X0.475000X0.250000X-0.475000X0.250000X-0.475000X-0.250000X0*%
G04 APERTURE END LIST*
D10*
X51332264Y-37316254D02*
X51284645Y-37411492D01*
X51284645Y-37411492D02*
X51284645Y-37554349D01*
X51284645Y-37554349D02*
X51332264Y-37697206D01*
X51332264Y-37697206D02*
X51427502Y-37792444D01*
X51427502Y-37792444D02*
X51522740Y-37840063D01*
X51522740Y-37840063D02*
X51713216Y-37887682D01*
X51713216Y-37887682D02*
X51856073Y-37887682D01*
X51856073Y-37887682D02*
X52046549Y-37840063D01*
X52046549Y-37840063D02*
X52141787Y-37792444D01*
X52141787Y-37792444D02*
X52237026Y-37697206D01*
X52237026Y-37697206D02*
X52284645Y-37554349D01*
X52284645Y-37554349D02*
X52284645Y-37459111D01*
X52284645Y-37459111D02*
X52237026Y-37316254D01*
X52237026Y-37316254D02*
X52189406Y-37268635D01*
X52189406Y-37268635D02*
X51856073Y-37268635D01*
X51856073Y-37268635D02*
X51856073Y-37459111D01*
X52284645Y-36840063D02*
X51284645Y-36840063D01*
X51284645Y-36840063D02*
X52284645Y-36268635D01*
X52284645Y-36268635D02*
X51284645Y-36268635D01*
X52284645Y-35792444D02*
X51284645Y-35792444D01*
X51284645Y-35792444D02*
X51284645Y-35554349D01*
X51284645Y-35554349D02*
X51332264Y-35411492D01*
X51332264Y-35411492D02*
X51427502Y-35316254D01*
X51427502Y-35316254D02*
X51522740Y-35268635D01*
X51522740Y-35268635D02*
X51713216Y-35221016D01*
X51713216Y-35221016D02*
X51856073Y-35221016D01*
X51856073Y-35221016D02*
X52046549Y-35268635D01*
X52046549Y-35268635D02*
X52141787Y-35316254D01*
X52141787Y-35316254D02*
X52237026Y-35411492D01*
X52237026Y-35411492D02*
X52284645Y-35554349D01*
X52284645Y-35554349D02*
X52284645Y-35792444D01*
X51411541Y-32267516D02*
X52030588Y-32267516D01*
X52030588Y-32267516D02*
X51697255Y-32648468D01*
X51697255Y-32648468D02*
X51840112Y-32648468D01*
X51840112Y-32648468D02*
X51935350Y-32696087D01*
X51935350Y-32696087D02*
X51982969Y-32743706D01*
X51982969Y-32743706D02*
X52030588Y-32838944D01*
X52030588Y-32838944D02*
X52030588Y-33077039D01*
X52030588Y-33077039D02*
X51982969Y-33172277D01*
X51982969Y-33172277D02*
X51935350Y-33219897D01*
X51935350Y-33219897D02*
X51840112Y-33267516D01*
X51840112Y-33267516D02*
X51554398Y-33267516D01*
X51554398Y-33267516D02*
X51459160Y-33219897D01*
X51459160Y-33219897D02*
X51411541Y-33172277D01*
X52459160Y-33172277D02*
X52506779Y-33219897D01*
X52506779Y-33219897D02*
X52459160Y-33267516D01*
X52459160Y-33267516D02*
X52411541Y-33219897D01*
X52411541Y-33219897D02*
X52459160Y-33172277D01*
X52459160Y-33172277D02*
X52459160Y-33267516D01*
X52840112Y-32267516D02*
X53459159Y-32267516D01*
X53459159Y-32267516D02*
X53125826Y-32648468D01*
X53125826Y-32648468D02*
X53268683Y-32648468D01*
X53268683Y-32648468D02*
X53363921Y-32696087D01*
X53363921Y-32696087D02*
X53411540Y-32743706D01*
X53411540Y-32743706D02*
X53459159Y-32838944D01*
X53459159Y-32838944D02*
X53459159Y-33077039D01*
X53459159Y-33077039D02*
X53411540Y-33172277D01*
X53411540Y-33172277D02*
X53363921Y-33219897D01*
X53363921Y-33219897D02*
X53268683Y-33267516D01*
X53268683Y-33267516D02*
X52982969Y-33267516D01*
X52982969Y-33267516D02*
X52887731Y-33219897D01*
X52887731Y-33219897D02*
X52840112Y-33172277D01*
X53744874Y-32267516D02*
X54078207Y-33267516D01*
X54078207Y-33267516D02*
X54411540Y-32267516D01*
X52030588Y-30562034D02*
X51459160Y-30562034D01*
X51744874Y-30562034D02*
X51744874Y-29562034D01*
X51744874Y-29562034D02*
X51649636Y-29704891D01*
X51649636Y-29704891D02*
X51554398Y-29800129D01*
X51554398Y-29800129D02*
X51459160Y-29847748D01*
X52602017Y-29990605D02*
X52506779Y-29942986D01*
X52506779Y-29942986D02*
X52459160Y-29895367D01*
X52459160Y-29895367D02*
X52411541Y-29800129D01*
X52411541Y-29800129D02*
X52411541Y-29752510D01*
X52411541Y-29752510D02*
X52459160Y-29657272D01*
X52459160Y-29657272D02*
X52506779Y-29609653D01*
X52506779Y-29609653D02*
X52602017Y-29562034D01*
X52602017Y-29562034D02*
X52792493Y-29562034D01*
X52792493Y-29562034D02*
X52887731Y-29609653D01*
X52887731Y-29609653D02*
X52935350Y-29657272D01*
X52935350Y-29657272D02*
X52982969Y-29752510D01*
X52982969Y-29752510D02*
X52982969Y-29800129D01*
X52982969Y-29800129D02*
X52935350Y-29895367D01*
X52935350Y-29895367D02*
X52887731Y-29942986D01*
X52887731Y-29942986D02*
X52792493Y-29990605D01*
X52792493Y-29990605D02*
X52602017Y-29990605D01*
X52602017Y-29990605D02*
X52506779Y-30038224D01*
X52506779Y-30038224D02*
X52459160Y-30085843D01*
X52459160Y-30085843D02*
X52411541Y-30181081D01*
X52411541Y-30181081D02*
X52411541Y-30371557D01*
X52411541Y-30371557D02*
X52459160Y-30466795D01*
X52459160Y-30466795D02*
X52506779Y-30514415D01*
X52506779Y-30514415D02*
X52602017Y-30562034D01*
X52602017Y-30562034D02*
X52792493Y-30562034D01*
X52792493Y-30562034D02*
X52887731Y-30514415D01*
X52887731Y-30514415D02*
X52935350Y-30466795D01*
X52935350Y-30466795D02*
X52982969Y-30371557D01*
X52982969Y-30371557D02*
X52982969Y-30181081D01*
X52982969Y-30181081D02*
X52935350Y-30085843D01*
X52935350Y-30085843D02*
X52887731Y-30038224D01*
X52887731Y-30038224D02*
X52792493Y-29990605D01*
X53268684Y-29562034D02*
X53602017Y-30562034D01*
X53602017Y-30562034D02*
X53935350Y-29562034D01*
D11*
X74050098Y-63646117D02*
X74050098Y-62717545D01*
X74050098Y-62717545D02*
X74621527Y-63217545D01*
X74621527Y-63217545D02*
X74621527Y-63003260D01*
X74621527Y-63003260D02*
X74692955Y-62860403D01*
X74692955Y-62860403D02*
X74764384Y-62788974D01*
X74764384Y-62788974D02*
X74907241Y-62717545D01*
X74907241Y-62717545D02*
X75264384Y-62717545D01*
X75264384Y-62717545D02*
X75407241Y-62788974D01*
X75407241Y-62788974D02*
X75478670Y-62860403D01*
X75478670Y-62860403D02*
X75550098Y-63003260D01*
X75550098Y-63003260D02*
X75550098Y-63431831D01*
X75550098Y-63431831D02*
X75478670Y-63574688D01*
X75478670Y-63574688D02*
X75407241Y-63646117D01*
X75407241Y-62074689D02*
X75478670Y-62003260D01*
X75478670Y-62003260D02*
X75550098Y-62074689D01*
X75550098Y-62074689D02*
X75478670Y-62146117D01*
X75478670Y-62146117D02*
X75407241Y-62074689D01*
X75407241Y-62074689D02*
X75550098Y-62074689D01*
X74050098Y-61503260D02*
X74050098Y-60574688D01*
X74050098Y-60574688D02*
X74621527Y-61074688D01*
X74621527Y-61074688D02*
X74621527Y-60860403D01*
X74621527Y-60860403D02*
X74692955Y-60717546D01*
X74692955Y-60717546D02*
X74764384Y-60646117D01*
X74764384Y-60646117D02*
X74907241Y-60574688D01*
X74907241Y-60574688D02*
X75264384Y-60574688D01*
X75264384Y-60574688D02*
X75407241Y-60646117D01*
X75407241Y-60646117D02*
X75478670Y-60717546D01*
X75478670Y-60717546D02*
X75550098Y-60860403D01*
X75550098Y-60860403D02*
X75550098Y-61288974D01*
X75550098Y-61288974D02*
X75478670Y-61431831D01*
X75478670Y-61431831D02*
X75407241Y-61503260D01*
X74050098Y-60146117D02*
X75550098Y-59646117D01*
X75550098Y-59646117D02*
X74050098Y-59146117D01*
D10*
X109975707Y-44314819D02*
X109642374Y-43838628D01*
X109404279Y-44314819D02*
X109404279Y-43314819D01*
X109404279Y-43314819D02*
X109785231Y-43314819D01*
X109785231Y-43314819D02*
X109880469Y-43362438D01*
X109880469Y-43362438D02*
X109928088Y-43410057D01*
X109928088Y-43410057D02*
X109975707Y-43505295D01*
X109975707Y-43505295D02*
X109975707Y-43648152D01*
X109975707Y-43648152D02*
X109928088Y-43743390D01*
X109928088Y-43743390D02*
X109880469Y-43791009D01*
X109880469Y-43791009D02*
X109785231Y-43838628D01*
X109785231Y-43838628D02*
X109404279Y-43838628D01*
X110785231Y-44267200D02*
X110689993Y-44314819D01*
X110689993Y-44314819D02*
X110499517Y-44314819D01*
X110499517Y-44314819D02*
X110404279Y-44267200D01*
X110404279Y-44267200D02*
X110356660Y-44171961D01*
X110356660Y-44171961D02*
X110356660Y-43791009D01*
X110356660Y-43791009D02*
X110404279Y-43695771D01*
X110404279Y-43695771D02*
X110499517Y-43648152D01*
X110499517Y-43648152D02*
X110689993Y-43648152D01*
X110689993Y-43648152D02*
X110785231Y-43695771D01*
X110785231Y-43695771D02*
X110832850Y-43791009D01*
X110832850Y-43791009D02*
X110832850Y-43886247D01*
X110832850Y-43886247D02*
X110356660Y-43981485D01*
X111689993Y-44267200D02*
X111594755Y-44314819D01*
X111594755Y-44314819D02*
X111404279Y-44314819D01*
X111404279Y-44314819D02*
X111309041Y-44267200D01*
X111309041Y-44267200D02*
X111261422Y-44219580D01*
X111261422Y-44219580D02*
X111213803Y-44124342D01*
X111213803Y-44124342D02*
X111213803Y-43838628D01*
X111213803Y-43838628D02*
X111261422Y-43743390D01*
X111261422Y-43743390D02*
X111309041Y-43695771D01*
X111309041Y-43695771D02*
X111404279Y-43648152D01*
X111404279Y-43648152D02*
X111594755Y-43648152D01*
X111594755Y-43648152D02*
X111689993Y-43695771D01*
X111880470Y-44410057D02*
X112642374Y-44410057D01*
X113023327Y-44314819D02*
X112928089Y-44267200D01*
X112928089Y-44267200D02*
X112880470Y-44219580D01*
X112880470Y-44219580D02*
X112832851Y-44124342D01*
X112832851Y-44124342D02*
X112832851Y-43838628D01*
X112832851Y-43838628D02*
X112880470Y-43743390D01*
X112880470Y-43743390D02*
X112928089Y-43695771D01*
X112928089Y-43695771D02*
X113023327Y-43648152D01*
X113023327Y-43648152D02*
X113166184Y-43648152D01*
X113166184Y-43648152D02*
X113261422Y-43695771D01*
X113261422Y-43695771D02*
X113309041Y-43743390D01*
X113309041Y-43743390D02*
X113356660Y-43838628D01*
X113356660Y-43838628D02*
X113356660Y-44124342D01*
X113356660Y-44124342D02*
X113309041Y-44219580D01*
X113309041Y-44219580D02*
X113261422Y-44267200D01*
X113261422Y-44267200D02*
X113166184Y-44314819D01*
X113166184Y-44314819D02*
X113023327Y-44314819D01*
X114213803Y-43648152D02*
X114213803Y-44314819D01*
X113785232Y-43648152D02*
X113785232Y-44171961D01*
X113785232Y-44171961D02*
X113832851Y-44267200D01*
X113832851Y-44267200D02*
X113928089Y-44314819D01*
X113928089Y-44314819D02*
X114070946Y-44314819D01*
X114070946Y-44314819D02*
X114166184Y-44267200D01*
X114166184Y-44267200D02*
X114213803Y-44219580D01*
X114547137Y-43648152D02*
X114928089Y-43648152D01*
X114689994Y-43314819D02*
X114689994Y-44171961D01*
X114689994Y-44171961D02*
X114737613Y-44267200D01*
X114737613Y-44267200D02*
X114832851Y-44314819D01*
X114832851Y-44314819D02*
X114928089Y-44314819D01*
X111944279Y-41774819D02*
X111944279Y-40774819D01*
X111944279Y-40774819D02*
X112325231Y-40774819D01*
X112325231Y-40774819D02*
X112420469Y-40822438D01*
X112420469Y-40822438D02*
X112468088Y-40870057D01*
X112468088Y-40870057D02*
X112515707Y-40965295D01*
X112515707Y-40965295D02*
X112515707Y-41108152D01*
X112515707Y-41108152D02*
X112468088Y-41203390D01*
X112468088Y-41203390D02*
X112420469Y-41251009D01*
X112420469Y-41251009D02*
X112325231Y-41298628D01*
X112325231Y-41298628D02*
X111944279Y-41298628D01*
X112849041Y-40774819D02*
X113087136Y-41774819D01*
X113087136Y-41774819D02*
X113277612Y-41060533D01*
X113277612Y-41060533D02*
X113468088Y-41774819D01*
X113468088Y-41774819D02*
X113706184Y-40774819D01*
X114087136Y-41774819D02*
X114087136Y-40774819D01*
X114087136Y-40774819D02*
X114420469Y-41489104D01*
X114420469Y-41489104D02*
X114753802Y-40774819D01*
X114753802Y-40774819D02*
X114753802Y-41774819D01*
X111801422Y-34424819D02*
X112134755Y-35424819D01*
X112134755Y-35424819D02*
X112468088Y-34424819D01*
X112753803Y-35377200D02*
X112849041Y-35424819D01*
X112849041Y-35424819D02*
X113039517Y-35424819D01*
X113039517Y-35424819D02*
X113134755Y-35377200D01*
X113134755Y-35377200D02*
X113182374Y-35281961D01*
X113182374Y-35281961D02*
X113182374Y-35234342D01*
X113182374Y-35234342D02*
X113134755Y-35139104D01*
X113134755Y-35139104D02*
X113039517Y-35091485D01*
X113039517Y-35091485D02*
X112896660Y-35091485D01*
X112896660Y-35091485D02*
X112801422Y-35043866D01*
X112801422Y-35043866D02*
X112753803Y-34948628D01*
X112753803Y-34948628D02*
X112753803Y-34901009D01*
X112753803Y-34901009D02*
X112801422Y-34805771D01*
X112801422Y-34805771D02*
X112896660Y-34758152D01*
X112896660Y-34758152D02*
X113039517Y-34758152D01*
X113039517Y-34758152D02*
X113134755Y-34805771D01*
X114039517Y-34758152D02*
X114039517Y-35424819D01*
X113610946Y-34758152D02*
X113610946Y-35281961D01*
X113610946Y-35281961D02*
X113658565Y-35377200D01*
X113658565Y-35377200D02*
X113753803Y-35424819D01*
X113753803Y-35424819D02*
X113896660Y-35424819D01*
X113896660Y-35424819D02*
X113991898Y-35377200D01*
X113991898Y-35377200D02*
X114039517Y-35329580D01*
X114515708Y-34758152D02*
X114515708Y-35758152D01*
X114515708Y-34805771D02*
X114610946Y-34758152D01*
X114610946Y-34758152D02*
X114801422Y-34758152D01*
X114801422Y-34758152D02*
X114896660Y-34805771D01*
X114896660Y-34805771D02*
X114944279Y-34853390D01*
X114944279Y-34853390D02*
X114991898Y-34948628D01*
X114991898Y-34948628D02*
X114991898Y-35234342D01*
X114991898Y-35234342D02*
X114944279Y-35329580D01*
X114944279Y-35329580D02*
X114896660Y-35377200D01*
X114896660Y-35377200D02*
X114801422Y-35424819D01*
X114801422Y-35424819D02*
X114610946Y-35424819D01*
X114610946Y-35424819D02*
X114515708Y-35377200D01*
X111245707Y-32884819D02*
X110912374Y-32408628D01*
X110674279Y-32884819D02*
X110674279Y-31884819D01*
X110674279Y-31884819D02*
X111055231Y-31884819D01*
X111055231Y-31884819D02*
X111150469Y-31932438D01*
X111150469Y-31932438D02*
X111198088Y-31980057D01*
X111198088Y-31980057D02*
X111245707Y-32075295D01*
X111245707Y-32075295D02*
X111245707Y-32218152D01*
X111245707Y-32218152D02*
X111198088Y-32313390D01*
X111198088Y-32313390D02*
X111150469Y-32361009D01*
X111150469Y-32361009D02*
X111055231Y-32408628D01*
X111055231Y-32408628D02*
X110674279Y-32408628D01*
X112055231Y-32837200D02*
X111959993Y-32884819D01*
X111959993Y-32884819D02*
X111769517Y-32884819D01*
X111769517Y-32884819D02*
X111674279Y-32837200D01*
X111674279Y-32837200D02*
X111626660Y-32741961D01*
X111626660Y-32741961D02*
X111626660Y-32361009D01*
X111626660Y-32361009D02*
X111674279Y-32265771D01*
X111674279Y-32265771D02*
X111769517Y-32218152D01*
X111769517Y-32218152D02*
X111959993Y-32218152D01*
X111959993Y-32218152D02*
X112055231Y-32265771D01*
X112055231Y-32265771D02*
X112102850Y-32361009D01*
X112102850Y-32361009D02*
X112102850Y-32456247D01*
X112102850Y-32456247D02*
X111626660Y-32551485D01*
X112959993Y-32837200D02*
X112864755Y-32884819D01*
X112864755Y-32884819D02*
X112674279Y-32884819D01*
X112674279Y-32884819D02*
X112579041Y-32837200D01*
X112579041Y-32837200D02*
X112531422Y-32789580D01*
X112531422Y-32789580D02*
X112483803Y-32694342D01*
X112483803Y-32694342D02*
X112483803Y-32408628D01*
X112483803Y-32408628D02*
X112531422Y-32313390D01*
X112531422Y-32313390D02*
X112579041Y-32265771D01*
X112579041Y-32265771D02*
X112674279Y-32218152D01*
X112674279Y-32218152D02*
X112864755Y-32218152D01*
X112864755Y-32218152D02*
X112959993Y-32265771D01*
X113150470Y-32980057D02*
X113912374Y-32980057D01*
X114150470Y-32884819D02*
X114150470Y-31884819D01*
X114150470Y-32361009D02*
X114721898Y-32361009D01*
X114721898Y-32884819D02*
X114721898Y-31884819D01*
X115198089Y-32884819D02*
X115198089Y-31884819D01*
X109404279Y-29821009D02*
X109737612Y-29821009D01*
X109880469Y-30344819D02*
X109404279Y-30344819D01*
X109404279Y-30344819D02*
X109404279Y-29344819D01*
X109404279Y-29344819D02*
X109880469Y-29344819D01*
X110309041Y-30344819D02*
X110309041Y-29678152D01*
X110309041Y-29773390D02*
X110356660Y-29725771D01*
X110356660Y-29725771D02*
X110451898Y-29678152D01*
X110451898Y-29678152D02*
X110594755Y-29678152D01*
X110594755Y-29678152D02*
X110689993Y-29725771D01*
X110689993Y-29725771D02*
X110737612Y-29821009D01*
X110737612Y-29821009D02*
X110737612Y-30344819D01*
X110737612Y-29821009D02*
X110785231Y-29725771D01*
X110785231Y-29725771D02*
X110880469Y-29678152D01*
X110880469Y-29678152D02*
X111023326Y-29678152D01*
X111023326Y-29678152D02*
X111118565Y-29725771D01*
X111118565Y-29725771D02*
X111166184Y-29821009D01*
X111166184Y-29821009D02*
X111166184Y-30344819D01*
X111642374Y-30344819D02*
X111642374Y-29678152D01*
X111642374Y-29344819D02*
X111594755Y-29392438D01*
X111594755Y-29392438D02*
X111642374Y-29440057D01*
X111642374Y-29440057D02*
X111689993Y-29392438D01*
X111689993Y-29392438D02*
X111642374Y-29344819D01*
X111642374Y-29344819D02*
X111642374Y-29440057D01*
X111975707Y-29678152D02*
X112356659Y-29678152D01*
X112118564Y-29344819D02*
X112118564Y-30201961D01*
X112118564Y-30201961D02*
X112166183Y-30297200D01*
X112166183Y-30297200D02*
X112261421Y-30344819D01*
X112261421Y-30344819D02*
X112356659Y-30344819D01*
X112451898Y-30440057D02*
X113213802Y-30440057D01*
X113451898Y-30344819D02*
X113451898Y-29344819D01*
X113451898Y-29344819D02*
X113689993Y-29344819D01*
X113689993Y-29344819D02*
X113832850Y-29392438D01*
X113832850Y-29392438D02*
X113928088Y-29487676D01*
X113928088Y-29487676D02*
X113975707Y-29582914D01*
X113975707Y-29582914D02*
X114023326Y-29773390D01*
X114023326Y-29773390D02*
X114023326Y-29916247D01*
X114023326Y-29916247D02*
X113975707Y-30106723D01*
X113975707Y-30106723D02*
X113928088Y-30201961D01*
X113928088Y-30201961D02*
X113832850Y-30297200D01*
X113832850Y-30297200D02*
X113689993Y-30344819D01*
X113689993Y-30344819D02*
X113451898Y-30344819D01*
X114451898Y-30344819D02*
X114451898Y-29678152D01*
X114451898Y-29344819D02*
X114404279Y-29392438D01*
X114404279Y-29392438D02*
X114451898Y-29440057D01*
X114451898Y-29440057D02*
X114499517Y-29392438D01*
X114499517Y-29392438D02*
X114451898Y-29344819D01*
X114451898Y-29344819D02*
X114451898Y-29440057D01*
X114928088Y-30344819D02*
X114928088Y-29678152D01*
X114928088Y-29868628D02*
X114975707Y-29773390D01*
X114975707Y-29773390D02*
X115023326Y-29725771D01*
X115023326Y-29725771D02*
X115118564Y-29678152D01*
X115118564Y-29678152D02*
X115213802Y-29678152D01*
X109404279Y-27281009D02*
X109737612Y-27281009D01*
X109880469Y-27804819D02*
X109404279Y-27804819D01*
X109404279Y-27804819D02*
X109404279Y-26804819D01*
X109404279Y-26804819D02*
X109880469Y-26804819D01*
X110309041Y-27804819D02*
X110309041Y-27138152D01*
X110309041Y-27233390D02*
X110356660Y-27185771D01*
X110356660Y-27185771D02*
X110451898Y-27138152D01*
X110451898Y-27138152D02*
X110594755Y-27138152D01*
X110594755Y-27138152D02*
X110689993Y-27185771D01*
X110689993Y-27185771D02*
X110737612Y-27281009D01*
X110737612Y-27281009D02*
X110737612Y-27804819D01*
X110737612Y-27281009D02*
X110785231Y-27185771D01*
X110785231Y-27185771D02*
X110880469Y-27138152D01*
X110880469Y-27138152D02*
X111023326Y-27138152D01*
X111023326Y-27138152D02*
X111118565Y-27185771D01*
X111118565Y-27185771D02*
X111166184Y-27281009D01*
X111166184Y-27281009D02*
X111166184Y-27804819D01*
X111642374Y-27804819D02*
X111642374Y-27138152D01*
X111642374Y-26804819D02*
X111594755Y-26852438D01*
X111594755Y-26852438D02*
X111642374Y-26900057D01*
X111642374Y-26900057D02*
X111689993Y-26852438D01*
X111689993Y-26852438D02*
X111642374Y-26804819D01*
X111642374Y-26804819D02*
X111642374Y-26900057D01*
X111975707Y-27138152D02*
X112356659Y-27138152D01*
X112118564Y-26804819D02*
X112118564Y-27661961D01*
X112118564Y-27661961D02*
X112166183Y-27757200D01*
X112166183Y-27757200D02*
X112261421Y-27804819D01*
X112261421Y-27804819D02*
X112356659Y-27804819D01*
X112451898Y-27900057D02*
X113213802Y-27900057D01*
X113451898Y-27804819D02*
X113451898Y-26804819D01*
X113451898Y-26804819D02*
X113785231Y-27519104D01*
X113785231Y-27519104D02*
X114118564Y-26804819D01*
X114118564Y-26804819D02*
X114118564Y-27804819D01*
X114785231Y-26804819D02*
X114975707Y-26804819D01*
X114975707Y-26804819D02*
X115070945Y-26852438D01*
X115070945Y-26852438D02*
X115166183Y-26947676D01*
X115166183Y-26947676D02*
X115213802Y-27138152D01*
X115213802Y-27138152D02*
X115213802Y-27471485D01*
X115213802Y-27471485D02*
X115166183Y-27661961D01*
X115166183Y-27661961D02*
X115070945Y-27757200D01*
X115070945Y-27757200D02*
X114975707Y-27804819D01*
X114975707Y-27804819D02*
X114785231Y-27804819D01*
X114785231Y-27804819D02*
X114689993Y-27757200D01*
X114689993Y-27757200D02*
X114594755Y-27661961D01*
X114594755Y-27661961D02*
X114547136Y-27471485D01*
X114547136Y-27471485D02*
X114547136Y-27138152D01*
X114547136Y-27138152D02*
X114594755Y-26947676D01*
X114594755Y-26947676D02*
X114689993Y-26852438D01*
X114689993Y-26852438D02*
X114785231Y-26804819D01*
X115594755Y-27757200D02*
X115737612Y-27804819D01*
X115737612Y-27804819D02*
X115975707Y-27804819D01*
X115975707Y-27804819D02*
X116070945Y-27757200D01*
X116070945Y-27757200D02*
X116118564Y-27709580D01*
X116118564Y-27709580D02*
X116166183Y-27614342D01*
X116166183Y-27614342D02*
X116166183Y-27519104D01*
X116166183Y-27519104D02*
X116118564Y-27423866D01*
X116118564Y-27423866D02*
X116070945Y-27376247D01*
X116070945Y-27376247D02*
X115975707Y-27328628D01*
X115975707Y-27328628D02*
X115785231Y-27281009D01*
X115785231Y-27281009D02*
X115689993Y-27233390D01*
X115689993Y-27233390D02*
X115642374Y-27185771D01*
X115642374Y-27185771D02*
X115594755Y-27090533D01*
X115594755Y-27090533D02*
X115594755Y-26995295D01*
X115594755Y-26995295D02*
X115642374Y-26900057D01*
X115642374Y-26900057D02*
X115689993Y-26852438D01*
X115689993Y-26852438D02*
X115785231Y-26804819D01*
X115785231Y-26804819D02*
X116023326Y-26804819D01*
X116023326Y-26804819D02*
X116166183Y-26852438D01*
D11*
X108483082Y-22443685D02*
X108554510Y-22372257D01*
X108554510Y-22372257D02*
X108697368Y-22300828D01*
X108697368Y-22300828D02*
X109054510Y-22300828D01*
X109054510Y-22300828D02*
X109197368Y-22372257D01*
X109197368Y-22372257D02*
X109268796Y-22443685D01*
X109268796Y-22443685D02*
X109340225Y-22586542D01*
X109340225Y-22586542D02*
X109340225Y-22729400D01*
X109340225Y-22729400D02*
X109268796Y-22943685D01*
X109268796Y-22943685D02*
X108411653Y-23800828D01*
X108411653Y-23800828D02*
X109340225Y-23800828D01*
X110268796Y-22300828D02*
X110411653Y-22300828D01*
X110411653Y-22300828D02*
X110554510Y-22372257D01*
X110554510Y-22372257D02*
X110625939Y-22443685D01*
X110625939Y-22443685D02*
X110697367Y-22586542D01*
X110697367Y-22586542D02*
X110768796Y-22872257D01*
X110768796Y-22872257D02*
X110768796Y-23229400D01*
X110768796Y-23229400D02*
X110697367Y-23515114D01*
X110697367Y-23515114D02*
X110625939Y-23657971D01*
X110625939Y-23657971D02*
X110554510Y-23729400D01*
X110554510Y-23729400D02*
X110411653Y-23800828D01*
X110411653Y-23800828D02*
X110268796Y-23800828D01*
X110268796Y-23800828D02*
X110125939Y-23729400D01*
X110125939Y-23729400D02*
X110054510Y-23657971D01*
X110054510Y-23657971D02*
X109983081Y-23515114D01*
X109983081Y-23515114D02*
X109911653Y-23229400D01*
X109911653Y-23229400D02*
X109911653Y-22872257D01*
X109911653Y-22872257D02*
X109983081Y-22586542D01*
X109983081Y-22586542D02*
X110054510Y-22443685D01*
X110054510Y-22443685D02*
X110125939Y-22372257D01*
X110125939Y-22372257D02*
X110268796Y-22300828D01*
X109340225Y-36500828D02*
X108483082Y-36500828D01*
X108911653Y-36500828D02*
X108911653Y-35000828D01*
X108911653Y-35000828D02*
X108768796Y-35215114D01*
X108768796Y-35215114D02*
X108625939Y-35357971D01*
X108625939Y-35357971D02*
X108483082Y-35429400D01*
X110697367Y-35000828D02*
X109983081Y-35000828D01*
X109983081Y-35000828D02*
X109911653Y-35715114D01*
X109911653Y-35715114D02*
X109983081Y-35643685D01*
X109983081Y-35643685D02*
X110125939Y-35572257D01*
X110125939Y-35572257D02*
X110483081Y-35572257D01*
X110483081Y-35572257D02*
X110625939Y-35643685D01*
X110625939Y-35643685D02*
X110697367Y-35715114D01*
X110697367Y-35715114D02*
X110768796Y-35857971D01*
X110768796Y-35857971D02*
X110768796Y-36215114D01*
X110768796Y-36215114D02*
X110697367Y-36357971D01*
X110697367Y-36357971D02*
X110625939Y-36429400D01*
X110625939Y-36429400D02*
X110483081Y-36500828D01*
X110483081Y-36500828D02*
X110125939Y-36500828D01*
X110125939Y-36500828D02*
X109983081Y-36429400D01*
X109983081Y-36429400D02*
X109911653Y-36357971D01*
X109340225Y-49200828D02*
X108483082Y-49200828D01*
X108911653Y-49200828D02*
X108911653Y-47700828D01*
X108911653Y-47700828D02*
X108768796Y-47915114D01*
X108768796Y-47915114D02*
X108625939Y-48057971D01*
X108625939Y-48057971D02*
X108483082Y-48129400D01*
X110268796Y-47700828D02*
X110411653Y-47700828D01*
X110411653Y-47700828D02*
X110554510Y-47772257D01*
X110554510Y-47772257D02*
X110625939Y-47843685D01*
X110625939Y-47843685D02*
X110697367Y-47986542D01*
X110697367Y-47986542D02*
X110768796Y-48272257D01*
X110768796Y-48272257D02*
X110768796Y-48629400D01*
X110768796Y-48629400D02*
X110697367Y-48915114D01*
X110697367Y-48915114D02*
X110625939Y-49057971D01*
X110625939Y-49057971D02*
X110554510Y-49129400D01*
X110554510Y-49129400D02*
X110411653Y-49200828D01*
X110411653Y-49200828D02*
X110268796Y-49200828D01*
X110268796Y-49200828D02*
X110125939Y-49129400D01*
X110125939Y-49129400D02*
X110054510Y-49057971D01*
X110054510Y-49057971D02*
X109983081Y-48915114D01*
X109983081Y-48915114D02*
X109911653Y-48629400D01*
X109911653Y-48629400D02*
X109911653Y-48272257D01*
X109911653Y-48272257D02*
X109983081Y-47986542D01*
X109983081Y-47986542D02*
X110054510Y-47843685D01*
X110054510Y-47843685D02*
X110125939Y-47772257D01*
X110125939Y-47772257D02*
X110268796Y-47700828D01*
X109268796Y-60400828D02*
X108554510Y-60400828D01*
X108554510Y-60400828D02*
X108483082Y-61115114D01*
X108483082Y-61115114D02*
X108554510Y-61043685D01*
X108554510Y-61043685D02*
X108697368Y-60972257D01*
X108697368Y-60972257D02*
X109054510Y-60972257D01*
X109054510Y-60972257D02*
X109197368Y-61043685D01*
X109197368Y-61043685D02*
X109268796Y-61115114D01*
X109268796Y-61115114D02*
X109340225Y-61257971D01*
X109340225Y-61257971D02*
X109340225Y-61615114D01*
X109340225Y-61615114D02*
X109268796Y-61757971D01*
X109268796Y-61757971D02*
X109197368Y-61829400D01*
X109197368Y-61829400D02*
X109054510Y-61900828D01*
X109054510Y-61900828D02*
X108697368Y-61900828D01*
X108697368Y-61900828D02*
X108554510Y-61829400D01*
X108554510Y-61829400D02*
X108483082Y-61757971D01*
X109340225Y-72060828D02*
X108483082Y-72060828D01*
X108911653Y-72060828D02*
X108911653Y-70560828D01*
X108911653Y-70560828D02*
X108768796Y-70775114D01*
X108768796Y-70775114D02*
X108625939Y-70917971D01*
X108625939Y-70917971D02*
X108483082Y-70989400D01*
D10*
X74168095Y-26124819D02*
X74168095Y-26934342D01*
X74168095Y-26934342D02*
X74215714Y-27029580D01*
X74215714Y-27029580D02*
X74263333Y-27077200D01*
X74263333Y-27077200D02*
X74358571Y-27124819D01*
X74358571Y-27124819D02*
X74549047Y-27124819D01*
X74549047Y-27124819D02*
X74644285Y-27077200D01*
X74644285Y-27077200D02*
X74691904Y-27029580D01*
X74691904Y-27029580D02*
X74739523Y-26934342D01*
X74739523Y-26934342D02*
X74739523Y-26124819D01*
X75168095Y-26220057D02*
X75215714Y-26172438D01*
X75215714Y-26172438D02*
X75310952Y-26124819D01*
X75310952Y-26124819D02*
X75549047Y-26124819D01*
X75549047Y-26124819D02*
X75644285Y-26172438D01*
X75644285Y-26172438D02*
X75691904Y-26220057D01*
X75691904Y-26220057D02*
X75739523Y-26315295D01*
X75739523Y-26315295D02*
X75739523Y-26410533D01*
X75739523Y-26410533D02*
X75691904Y-26553390D01*
X75691904Y-26553390D02*
X75120476Y-27124819D01*
X75120476Y-27124819D02*
X75739523Y-27124819D01*
X127748095Y-48984819D02*
X127748095Y-49794342D01*
X127748095Y-49794342D02*
X127795714Y-49889580D01*
X127795714Y-49889580D02*
X127843333Y-49937200D01*
X127843333Y-49937200D02*
X127938571Y-49984819D01*
X127938571Y-49984819D02*
X128129047Y-49984819D01*
X128129047Y-49984819D02*
X128224285Y-49937200D01*
X128224285Y-49937200D02*
X128271904Y-49889580D01*
X128271904Y-49889580D02*
X128319523Y-49794342D01*
X128319523Y-49794342D02*
X128319523Y-48984819D01*
X129224285Y-49318152D02*
X129224285Y-49984819D01*
X128986190Y-48937200D02*
X128748095Y-49651485D01*
X128748095Y-49651485D02*
X129367142Y-49651485D01*
X122160000Y-50254819D02*
X122160000Y-50492914D01*
X121921905Y-50397676D02*
X122160000Y-50492914D01*
X122160000Y-50492914D02*
X122398095Y-50397676D01*
X122017143Y-50683390D02*
X122160000Y-50492914D01*
X122160000Y-50492914D02*
X122302857Y-50683390D01*
X117624166Y-51309819D02*
X117624166Y-52024104D01*
X117624166Y-52024104D02*
X117576547Y-52166961D01*
X117576547Y-52166961D02*
X117481309Y-52262200D01*
X117481309Y-52262200D02*
X117338452Y-52309819D01*
X117338452Y-52309819D02*
X117243214Y-52309819D01*
X118147976Y-52309819D02*
X118338452Y-52309819D01*
X118338452Y-52309819D02*
X118433690Y-52262200D01*
X118433690Y-52262200D02*
X118481309Y-52214580D01*
X118481309Y-52214580D02*
X118576547Y-52071723D01*
X118576547Y-52071723D02*
X118624166Y-51881247D01*
X118624166Y-51881247D02*
X118624166Y-51500295D01*
X118624166Y-51500295D02*
X118576547Y-51405057D01*
X118576547Y-51405057D02*
X118528928Y-51357438D01*
X118528928Y-51357438D02*
X118433690Y-51309819D01*
X118433690Y-51309819D02*
X118243214Y-51309819D01*
X118243214Y-51309819D02*
X118147976Y-51357438D01*
X118147976Y-51357438D02*
X118100357Y-51405057D01*
X118100357Y-51405057D02*
X118052738Y-51500295D01*
X118052738Y-51500295D02*
X118052738Y-51738390D01*
X118052738Y-51738390D02*
X118100357Y-51833628D01*
X118100357Y-51833628D02*
X118147976Y-51881247D01*
X118147976Y-51881247D02*
X118243214Y-51928866D01*
X118243214Y-51928866D02*
X118433690Y-51928866D01*
X118433690Y-51928866D02*
X118528928Y-51881247D01*
X118528928Y-51881247D02*
X118576547Y-51833628D01*
X118576547Y-51833628D02*
X118624166Y-51738390D01*
X60253357Y-61684819D02*
X60586690Y-62684819D01*
X60586690Y-62684819D02*
X60920023Y-61684819D01*
X61586690Y-62161009D02*
X61729547Y-62208628D01*
X61729547Y-62208628D02*
X61777166Y-62256247D01*
X61777166Y-62256247D02*
X61824785Y-62351485D01*
X61824785Y-62351485D02*
X61824785Y-62494342D01*
X61824785Y-62494342D02*
X61777166Y-62589580D01*
X61777166Y-62589580D02*
X61729547Y-62637200D01*
X61729547Y-62637200D02*
X61634309Y-62684819D01*
X61634309Y-62684819D02*
X61253357Y-62684819D01*
X61253357Y-62684819D02*
X61253357Y-61684819D01*
X61253357Y-61684819D02*
X61586690Y-61684819D01*
X61586690Y-61684819D02*
X61681928Y-61732438D01*
X61681928Y-61732438D02*
X61729547Y-61780057D01*
X61729547Y-61780057D02*
X61777166Y-61875295D01*
X61777166Y-61875295D02*
X61777166Y-61970533D01*
X61777166Y-61970533D02*
X61729547Y-62065771D01*
X61729547Y-62065771D02*
X61681928Y-62113390D01*
X61681928Y-62113390D02*
X61586690Y-62161009D01*
X61586690Y-62161009D02*
X61253357Y-62161009D01*
X62681928Y-62684819D02*
X62681928Y-62161009D01*
X62681928Y-62161009D02*
X62634309Y-62065771D01*
X62634309Y-62065771D02*
X62539071Y-62018152D01*
X62539071Y-62018152D02*
X62348595Y-62018152D01*
X62348595Y-62018152D02*
X62253357Y-62065771D01*
X62681928Y-62637200D02*
X62586690Y-62684819D01*
X62586690Y-62684819D02*
X62348595Y-62684819D01*
X62348595Y-62684819D02*
X62253357Y-62637200D01*
X62253357Y-62637200D02*
X62205738Y-62541961D01*
X62205738Y-62541961D02*
X62205738Y-62446723D01*
X62205738Y-62446723D02*
X62253357Y-62351485D01*
X62253357Y-62351485D02*
X62348595Y-62303866D01*
X62348595Y-62303866D02*
X62586690Y-62303866D01*
X62586690Y-62303866D02*
X62681928Y-62256247D01*
X63015262Y-62018152D02*
X63396214Y-62018152D01*
X63158119Y-61684819D02*
X63158119Y-62541961D01*
X63158119Y-62541961D02*
X63205738Y-62637200D01*
X63205738Y-62637200D02*
X63300976Y-62684819D01*
X63300976Y-62684819D02*
X63396214Y-62684819D01*
X63586691Y-62018152D02*
X63967643Y-62018152D01*
X63729548Y-61684819D02*
X63729548Y-62541961D01*
X63729548Y-62541961D02*
X63777167Y-62637200D01*
X63777167Y-62637200D02*
X63872405Y-62684819D01*
X63872405Y-62684819D02*
X63967643Y-62684819D01*
X54284310Y-61684819D02*
X54903357Y-61684819D01*
X54903357Y-61684819D02*
X54570024Y-62065771D01*
X54570024Y-62065771D02*
X54712881Y-62065771D01*
X54712881Y-62065771D02*
X54808119Y-62113390D01*
X54808119Y-62113390D02*
X54855738Y-62161009D01*
X54855738Y-62161009D02*
X54903357Y-62256247D01*
X54903357Y-62256247D02*
X54903357Y-62494342D01*
X54903357Y-62494342D02*
X54855738Y-62589580D01*
X54855738Y-62589580D02*
X54808119Y-62637200D01*
X54808119Y-62637200D02*
X54712881Y-62684819D01*
X54712881Y-62684819D02*
X54427167Y-62684819D01*
X54427167Y-62684819D02*
X54331929Y-62637200D01*
X54331929Y-62637200D02*
X54284310Y-62589580D01*
X55331929Y-62589580D02*
X55379548Y-62637200D01*
X55379548Y-62637200D02*
X55331929Y-62684819D01*
X55331929Y-62684819D02*
X55284310Y-62637200D01*
X55284310Y-62637200D02*
X55331929Y-62589580D01*
X55331929Y-62589580D02*
X55331929Y-62684819D01*
X55712881Y-61684819D02*
X56331928Y-61684819D01*
X56331928Y-61684819D02*
X55998595Y-62065771D01*
X55998595Y-62065771D02*
X56141452Y-62065771D01*
X56141452Y-62065771D02*
X56236690Y-62113390D01*
X56236690Y-62113390D02*
X56284309Y-62161009D01*
X56284309Y-62161009D02*
X56331928Y-62256247D01*
X56331928Y-62256247D02*
X56331928Y-62494342D01*
X56331928Y-62494342D02*
X56284309Y-62589580D01*
X56284309Y-62589580D02*
X56236690Y-62637200D01*
X56236690Y-62637200D02*
X56141452Y-62684819D01*
X56141452Y-62684819D02*
X55855738Y-62684819D01*
X55855738Y-62684819D02*
X55760500Y-62637200D01*
X55760500Y-62637200D02*
X55712881Y-62589580D01*
X56617643Y-61684819D02*
X56950976Y-62684819D01*
X56950976Y-62684819D02*
X57284309Y-61684819D01*
X67238095Y-63042438D02*
X67142857Y-62994819D01*
X67142857Y-62994819D02*
X67000000Y-62994819D01*
X67000000Y-62994819D02*
X66857143Y-63042438D01*
X66857143Y-63042438D02*
X66761905Y-63137676D01*
X66761905Y-63137676D02*
X66714286Y-63232914D01*
X66714286Y-63232914D02*
X66666667Y-63423390D01*
X66666667Y-63423390D02*
X66666667Y-63566247D01*
X66666667Y-63566247D02*
X66714286Y-63756723D01*
X66714286Y-63756723D02*
X66761905Y-63851961D01*
X66761905Y-63851961D02*
X66857143Y-63947200D01*
X66857143Y-63947200D02*
X67000000Y-63994819D01*
X67000000Y-63994819D02*
X67095238Y-63994819D01*
X67095238Y-63994819D02*
X67238095Y-63947200D01*
X67238095Y-63947200D02*
X67285714Y-63899580D01*
X67285714Y-63899580D02*
X67285714Y-63566247D01*
X67285714Y-63566247D02*
X67095238Y-63566247D01*
X67714286Y-63994819D02*
X67714286Y-62994819D01*
X67714286Y-62994819D02*
X68285714Y-63994819D01*
X68285714Y-63994819D02*
X68285714Y-62994819D01*
X68761905Y-63994819D02*
X68761905Y-62994819D01*
X68761905Y-62994819D02*
X69000000Y-62994819D01*
X69000000Y-62994819D02*
X69142857Y-63042438D01*
X69142857Y-63042438D02*
X69238095Y-63137676D01*
X69238095Y-63137676D02*
X69285714Y-63232914D01*
X69285714Y-63232914D02*
X69333333Y-63423390D01*
X69333333Y-63423390D02*
X69333333Y-63566247D01*
X69333333Y-63566247D02*
X69285714Y-63756723D01*
X69285714Y-63756723D02*
X69238095Y-63851961D01*
X69238095Y-63851961D02*
X69142857Y-63947200D01*
X69142857Y-63947200D02*
X69000000Y-63994819D01*
X69000000Y-63994819D02*
X68761905Y-63994819D01*
X58951452Y-28394819D02*
X58380024Y-28394819D01*
X58665738Y-28394819D02*
X58665738Y-27394819D01*
X58665738Y-27394819D02*
X58570500Y-27537676D01*
X58570500Y-27537676D02*
X58475262Y-27632914D01*
X58475262Y-27632914D02*
X58380024Y-27680533D01*
X59522881Y-27823390D02*
X59427643Y-27775771D01*
X59427643Y-27775771D02*
X59380024Y-27728152D01*
X59380024Y-27728152D02*
X59332405Y-27632914D01*
X59332405Y-27632914D02*
X59332405Y-27585295D01*
X59332405Y-27585295D02*
X59380024Y-27490057D01*
X59380024Y-27490057D02*
X59427643Y-27442438D01*
X59427643Y-27442438D02*
X59522881Y-27394819D01*
X59522881Y-27394819D02*
X59713357Y-27394819D01*
X59713357Y-27394819D02*
X59808595Y-27442438D01*
X59808595Y-27442438D02*
X59856214Y-27490057D01*
X59856214Y-27490057D02*
X59903833Y-27585295D01*
X59903833Y-27585295D02*
X59903833Y-27632914D01*
X59903833Y-27632914D02*
X59856214Y-27728152D01*
X59856214Y-27728152D02*
X59808595Y-27775771D01*
X59808595Y-27775771D02*
X59713357Y-27823390D01*
X59713357Y-27823390D02*
X59522881Y-27823390D01*
X59522881Y-27823390D02*
X59427643Y-27871009D01*
X59427643Y-27871009D02*
X59380024Y-27918628D01*
X59380024Y-27918628D02*
X59332405Y-28013866D01*
X59332405Y-28013866D02*
X59332405Y-28204342D01*
X59332405Y-28204342D02*
X59380024Y-28299580D01*
X59380024Y-28299580D02*
X59427643Y-28347200D01*
X59427643Y-28347200D02*
X59522881Y-28394819D01*
X59522881Y-28394819D02*
X59713357Y-28394819D01*
X59713357Y-28394819D02*
X59808595Y-28347200D01*
X59808595Y-28347200D02*
X59856214Y-28299580D01*
X59856214Y-28299580D02*
X59903833Y-28204342D01*
X59903833Y-28204342D02*
X59903833Y-28013866D01*
X59903833Y-28013866D02*
X59856214Y-27918628D01*
X59856214Y-27918628D02*
X59808595Y-27871009D01*
X59808595Y-27871009D02*
X59713357Y-27823390D01*
X60189548Y-27394819D02*
X60522881Y-28394819D01*
X60522881Y-28394819D02*
X60856214Y-27394819D01*
X47706319Y-52808094D02*
X46706319Y-52808094D01*
X46706319Y-52808094D02*
X46706319Y-52569999D01*
X46706319Y-52569999D02*
X46753938Y-52427142D01*
X46753938Y-52427142D02*
X46849176Y-52331904D01*
X46849176Y-52331904D02*
X46944414Y-52284285D01*
X46944414Y-52284285D02*
X47134890Y-52236666D01*
X47134890Y-52236666D02*
X47277747Y-52236666D01*
X47277747Y-52236666D02*
X47468223Y-52284285D01*
X47468223Y-52284285D02*
X47563461Y-52331904D01*
X47563461Y-52331904D02*
X47658700Y-52427142D01*
X47658700Y-52427142D02*
X47706319Y-52569999D01*
X47706319Y-52569999D02*
X47706319Y-52808094D01*
X46801557Y-51855713D02*
X46753938Y-51808094D01*
X46753938Y-51808094D02*
X46706319Y-51712856D01*
X46706319Y-51712856D02*
X46706319Y-51474761D01*
X46706319Y-51474761D02*
X46753938Y-51379523D01*
X46753938Y-51379523D02*
X46801557Y-51331904D01*
X46801557Y-51331904D02*
X46896795Y-51284285D01*
X46896795Y-51284285D02*
X46992033Y-51284285D01*
X46992033Y-51284285D02*
X47134890Y-51331904D01*
X47134890Y-51331904D02*
X47706319Y-51903332D01*
X47706319Y-51903332D02*
X47706319Y-51284285D01*
X67454819Y-37568094D02*
X66454819Y-37568094D01*
X66454819Y-37568094D02*
X66454819Y-37329999D01*
X66454819Y-37329999D02*
X66502438Y-37187142D01*
X66502438Y-37187142D02*
X66597676Y-37091904D01*
X66597676Y-37091904D02*
X66692914Y-37044285D01*
X66692914Y-37044285D02*
X66883390Y-36996666D01*
X66883390Y-36996666D02*
X67026247Y-36996666D01*
X67026247Y-36996666D02*
X67216723Y-37044285D01*
X67216723Y-37044285D02*
X67311961Y-37091904D01*
X67311961Y-37091904D02*
X67407200Y-37187142D01*
X67407200Y-37187142D02*
X67454819Y-37329999D01*
X67454819Y-37329999D02*
X67454819Y-37568094D01*
X67454819Y-36044285D02*
X67454819Y-36615713D01*
X67454819Y-36329999D02*
X66454819Y-36329999D01*
X66454819Y-36329999D02*
X66597676Y-36425237D01*
X66597676Y-36425237D02*
X66692914Y-36520475D01*
X66692914Y-36520475D02*
X66740533Y-36615713D01*
X114267819Y-62106904D02*
X115077342Y-62106904D01*
X115077342Y-62106904D02*
X115172580Y-62059285D01*
X115172580Y-62059285D02*
X115220200Y-62011666D01*
X115220200Y-62011666D02*
X115267819Y-61916428D01*
X115267819Y-61916428D02*
X115267819Y-61725952D01*
X115267819Y-61725952D02*
X115220200Y-61630714D01*
X115220200Y-61630714D02*
X115172580Y-61583095D01*
X115172580Y-61583095D02*
X115077342Y-61535476D01*
X115077342Y-61535476D02*
X114267819Y-61535476D01*
X114267819Y-60630714D02*
X114267819Y-60821190D01*
X114267819Y-60821190D02*
X114315438Y-60916428D01*
X114315438Y-60916428D02*
X114363057Y-60964047D01*
X114363057Y-60964047D02*
X114505914Y-61059285D01*
X114505914Y-61059285D02*
X114696390Y-61106904D01*
X114696390Y-61106904D02*
X115077342Y-61106904D01*
X115077342Y-61106904D02*
X115172580Y-61059285D01*
X115172580Y-61059285D02*
X115220200Y-61011666D01*
X115220200Y-61011666D02*
X115267819Y-60916428D01*
X115267819Y-60916428D02*
X115267819Y-60725952D01*
X115267819Y-60725952D02*
X115220200Y-60630714D01*
X115220200Y-60630714D02*
X115172580Y-60583095D01*
X115172580Y-60583095D02*
X115077342Y-60535476D01*
X115077342Y-60535476D02*
X114839247Y-60535476D01*
X114839247Y-60535476D02*
X114744009Y-60583095D01*
X114744009Y-60583095D02*
X114696390Y-60630714D01*
X114696390Y-60630714D02*
X114648771Y-60725952D01*
X114648771Y-60725952D02*
X114648771Y-60916428D01*
X114648771Y-60916428D02*
X114696390Y-61011666D01*
X114696390Y-61011666D02*
X114744009Y-61059285D01*
X114744009Y-61059285D02*
X114839247Y-61106904D01*
X125208095Y-47714819D02*
X125208095Y-48524342D01*
X125208095Y-48524342D02*
X125255714Y-48619580D01*
X125255714Y-48619580D02*
X125303333Y-48667200D01*
X125303333Y-48667200D02*
X125398571Y-48714819D01*
X125398571Y-48714819D02*
X125589047Y-48714819D01*
X125589047Y-48714819D02*
X125684285Y-48667200D01*
X125684285Y-48667200D02*
X125731904Y-48619580D01*
X125731904Y-48619580D02*
X125779523Y-48524342D01*
X125779523Y-48524342D02*
X125779523Y-47714819D01*
X126731904Y-47714819D02*
X126255714Y-47714819D01*
X126255714Y-47714819D02*
X126208095Y-48191009D01*
X126208095Y-48191009D02*
X126255714Y-48143390D01*
X126255714Y-48143390D02*
X126350952Y-48095771D01*
X126350952Y-48095771D02*
X126589047Y-48095771D01*
X126589047Y-48095771D02*
X126684285Y-48143390D01*
X126684285Y-48143390D02*
X126731904Y-48191009D01*
X126731904Y-48191009D02*
X126779523Y-48286247D01*
X126779523Y-48286247D02*
X126779523Y-48524342D01*
X126779523Y-48524342D02*
X126731904Y-48619580D01*
X126731904Y-48619580D02*
X126684285Y-48667200D01*
X126684285Y-48667200D02*
X126589047Y-48714819D01*
X126589047Y-48714819D02*
X126350952Y-48714819D01*
X126350952Y-48714819D02*
X126255714Y-48667200D01*
X126255714Y-48667200D02*
X126208095Y-48619580D01*
X50621144Y-49556758D02*
X51430667Y-49556758D01*
X51430667Y-49556758D02*
X51525905Y-49509139D01*
X51525905Y-49509139D02*
X51573525Y-49461520D01*
X51573525Y-49461520D02*
X51621144Y-49366282D01*
X51621144Y-49366282D02*
X51621144Y-49175806D01*
X51621144Y-49175806D02*
X51573525Y-49080568D01*
X51573525Y-49080568D02*
X51525905Y-49032949D01*
X51525905Y-49032949D02*
X51430667Y-48985330D01*
X51430667Y-48985330D02*
X50621144Y-48985330D01*
X50621144Y-48604377D02*
X50621144Y-47985330D01*
X50621144Y-47985330D02*
X51002096Y-48318663D01*
X51002096Y-48318663D02*
X51002096Y-48175806D01*
X51002096Y-48175806D02*
X51049715Y-48080568D01*
X51049715Y-48080568D02*
X51097334Y-48032949D01*
X51097334Y-48032949D02*
X51192572Y-47985330D01*
X51192572Y-47985330D02*
X51430667Y-47985330D01*
X51430667Y-47985330D02*
X51525905Y-48032949D01*
X51525905Y-48032949D02*
X51573525Y-48080568D01*
X51573525Y-48080568D02*
X51621144Y-48175806D01*
X51621144Y-48175806D02*
X51621144Y-48461520D01*
X51621144Y-48461520D02*
X51573525Y-48556758D01*
X51573525Y-48556758D02*
X51525905Y-48604377D01*
X62466424Y-40814117D02*
X63275947Y-40814117D01*
X63275947Y-40814117D02*
X63371185Y-40766498D01*
X63371185Y-40766498D02*
X63418805Y-40718879D01*
X63418805Y-40718879D02*
X63466424Y-40623641D01*
X63466424Y-40623641D02*
X63466424Y-40433165D01*
X63466424Y-40433165D02*
X63418805Y-40337927D01*
X63418805Y-40337927D02*
X63371185Y-40290308D01*
X63371185Y-40290308D02*
X63275947Y-40242689D01*
X63275947Y-40242689D02*
X62466424Y-40242689D01*
X63466424Y-39242689D02*
X63466424Y-39814117D01*
X63466424Y-39528403D02*
X62466424Y-39528403D01*
X62466424Y-39528403D02*
X62609281Y-39623641D01*
X62609281Y-39623641D02*
X62704519Y-39718879D01*
X62704519Y-39718879D02*
X62752138Y-39814117D01*
X118804819Y-71762857D02*
X118328628Y-72096190D01*
X118804819Y-72334285D02*
X117804819Y-72334285D01*
X117804819Y-72334285D02*
X117804819Y-71953333D01*
X117804819Y-71953333D02*
X117852438Y-71858095D01*
X117852438Y-71858095D02*
X117900057Y-71810476D01*
X117900057Y-71810476D02*
X117995295Y-71762857D01*
X117995295Y-71762857D02*
X118138152Y-71762857D01*
X118138152Y-71762857D02*
X118233390Y-71810476D01*
X118233390Y-71810476D02*
X118281009Y-71858095D01*
X118281009Y-71858095D02*
X118328628Y-71953333D01*
X118328628Y-71953333D02*
X118328628Y-72334285D01*
X118804819Y-70810476D02*
X118804819Y-71381904D01*
X118804819Y-71096190D02*
X117804819Y-71096190D01*
X117804819Y-71096190D02*
X117947676Y-71191428D01*
X117947676Y-71191428D02*
X118042914Y-71286666D01*
X118042914Y-71286666D02*
X118090533Y-71381904D01*
X117900057Y-70429523D02*
X117852438Y-70381904D01*
X117852438Y-70381904D02*
X117804819Y-70286666D01*
X117804819Y-70286666D02*
X117804819Y-70048571D01*
X117804819Y-70048571D02*
X117852438Y-69953333D01*
X117852438Y-69953333D02*
X117900057Y-69905714D01*
X117900057Y-69905714D02*
X117995295Y-69858095D01*
X117995295Y-69858095D02*
X118090533Y-69858095D01*
X118090533Y-69858095D02*
X118233390Y-69905714D01*
X118233390Y-69905714D02*
X118804819Y-70477142D01*
X118804819Y-70477142D02*
X118804819Y-69858095D01*
X116264819Y-71762857D02*
X115788628Y-72096190D01*
X116264819Y-72334285D02*
X115264819Y-72334285D01*
X115264819Y-72334285D02*
X115264819Y-71953333D01*
X115264819Y-71953333D02*
X115312438Y-71858095D01*
X115312438Y-71858095D02*
X115360057Y-71810476D01*
X115360057Y-71810476D02*
X115455295Y-71762857D01*
X115455295Y-71762857D02*
X115598152Y-71762857D01*
X115598152Y-71762857D02*
X115693390Y-71810476D01*
X115693390Y-71810476D02*
X115741009Y-71858095D01*
X115741009Y-71858095D02*
X115788628Y-71953333D01*
X115788628Y-71953333D02*
X115788628Y-72334285D01*
X116264819Y-70810476D02*
X116264819Y-71381904D01*
X116264819Y-71096190D02*
X115264819Y-71096190D01*
X115264819Y-71096190D02*
X115407676Y-71191428D01*
X115407676Y-71191428D02*
X115502914Y-71286666D01*
X115502914Y-71286666D02*
X115550533Y-71381904D01*
X116264819Y-69858095D02*
X116264819Y-70429523D01*
X116264819Y-70143809D02*
X115264819Y-70143809D01*
X115264819Y-70143809D02*
X115407676Y-70239047D01*
X115407676Y-70239047D02*
X115502914Y-70334285D01*
X115502914Y-70334285D02*
X115550533Y-70429523D01*
X111357142Y-61034819D02*
X111023809Y-60558628D01*
X110785714Y-61034819D02*
X110785714Y-60034819D01*
X110785714Y-60034819D02*
X111166666Y-60034819D01*
X111166666Y-60034819D02*
X111261904Y-60082438D01*
X111261904Y-60082438D02*
X111309523Y-60130057D01*
X111309523Y-60130057D02*
X111357142Y-60225295D01*
X111357142Y-60225295D02*
X111357142Y-60368152D01*
X111357142Y-60368152D02*
X111309523Y-60463390D01*
X111309523Y-60463390D02*
X111261904Y-60511009D01*
X111261904Y-60511009D02*
X111166666Y-60558628D01*
X111166666Y-60558628D02*
X110785714Y-60558628D01*
X112309523Y-61034819D02*
X111738095Y-61034819D01*
X112023809Y-61034819D02*
X112023809Y-60034819D01*
X112023809Y-60034819D02*
X111928571Y-60177676D01*
X111928571Y-60177676D02*
X111833333Y-60272914D01*
X111833333Y-60272914D02*
X111738095Y-60320533D01*
X112928571Y-60034819D02*
X113023809Y-60034819D01*
X113023809Y-60034819D02*
X113119047Y-60082438D01*
X113119047Y-60082438D02*
X113166666Y-60130057D01*
X113166666Y-60130057D02*
X113214285Y-60225295D01*
X113214285Y-60225295D02*
X113261904Y-60415771D01*
X113261904Y-60415771D02*
X113261904Y-60653866D01*
X113261904Y-60653866D02*
X113214285Y-60844342D01*
X113214285Y-60844342D02*
X113166666Y-60939580D01*
X113166666Y-60939580D02*
X113119047Y-60987200D01*
X113119047Y-60987200D02*
X113023809Y-61034819D01*
X113023809Y-61034819D02*
X112928571Y-61034819D01*
X112928571Y-61034819D02*
X112833333Y-60987200D01*
X112833333Y-60987200D02*
X112785714Y-60939580D01*
X112785714Y-60939580D02*
X112738095Y-60844342D01*
X112738095Y-60844342D02*
X112690476Y-60653866D01*
X112690476Y-60653866D02*
X112690476Y-60415771D01*
X112690476Y-60415771D02*
X112738095Y-60225295D01*
X112738095Y-60225295D02*
X112785714Y-60130057D01*
X112785714Y-60130057D02*
X112833333Y-60082438D01*
X112833333Y-60082438D02*
X112928571Y-60034819D01*
X121344819Y-71286666D02*
X120868628Y-71619999D01*
X121344819Y-71858094D02*
X120344819Y-71858094D01*
X120344819Y-71858094D02*
X120344819Y-71477142D01*
X120344819Y-71477142D02*
X120392438Y-71381904D01*
X120392438Y-71381904D02*
X120440057Y-71334285D01*
X120440057Y-71334285D02*
X120535295Y-71286666D01*
X120535295Y-71286666D02*
X120678152Y-71286666D01*
X120678152Y-71286666D02*
X120773390Y-71334285D01*
X120773390Y-71334285D02*
X120821009Y-71381904D01*
X120821009Y-71381904D02*
X120868628Y-71477142D01*
X120868628Y-71477142D02*
X120868628Y-71858094D01*
X121344819Y-70810475D02*
X121344819Y-70619999D01*
X121344819Y-70619999D02*
X121297200Y-70524761D01*
X121297200Y-70524761D02*
X121249580Y-70477142D01*
X121249580Y-70477142D02*
X121106723Y-70381904D01*
X121106723Y-70381904D02*
X120916247Y-70334285D01*
X120916247Y-70334285D02*
X120535295Y-70334285D01*
X120535295Y-70334285D02*
X120440057Y-70381904D01*
X120440057Y-70381904D02*
X120392438Y-70429523D01*
X120392438Y-70429523D02*
X120344819Y-70524761D01*
X120344819Y-70524761D02*
X120344819Y-70715237D01*
X120344819Y-70715237D02*
X120392438Y-70810475D01*
X120392438Y-70810475D02*
X120440057Y-70858094D01*
X120440057Y-70858094D02*
X120535295Y-70905713D01*
X120535295Y-70905713D02*
X120773390Y-70905713D01*
X120773390Y-70905713D02*
X120868628Y-70858094D01*
X120868628Y-70858094D02*
X120916247Y-70810475D01*
X120916247Y-70810475D02*
X120963866Y-70715237D01*
X120963866Y-70715237D02*
X120963866Y-70524761D01*
X120963866Y-70524761D02*
X120916247Y-70429523D01*
X120916247Y-70429523D02*
X120868628Y-70381904D01*
X120868628Y-70381904D02*
X120773390Y-70334285D01*
X130222319Y-28111666D02*
X129746128Y-28444999D01*
X130222319Y-28683094D02*
X129222319Y-28683094D01*
X129222319Y-28683094D02*
X129222319Y-28302142D01*
X129222319Y-28302142D02*
X129269938Y-28206904D01*
X129269938Y-28206904D02*
X129317557Y-28159285D01*
X129317557Y-28159285D02*
X129412795Y-28111666D01*
X129412795Y-28111666D02*
X129555652Y-28111666D01*
X129555652Y-28111666D02*
X129650890Y-28159285D01*
X129650890Y-28159285D02*
X129698509Y-28206904D01*
X129698509Y-28206904D02*
X129746128Y-28302142D01*
X129746128Y-28302142D02*
X129746128Y-28683094D01*
X129650890Y-27540237D02*
X129603271Y-27635475D01*
X129603271Y-27635475D02*
X129555652Y-27683094D01*
X129555652Y-27683094D02*
X129460414Y-27730713D01*
X129460414Y-27730713D02*
X129412795Y-27730713D01*
X129412795Y-27730713D02*
X129317557Y-27683094D01*
X129317557Y-27683094D02*
X129269938Y-27635475D01*
X129269938Y-27635475D02*
X129222319Y-27540237D01*
X129222319Y-27540237D02*
X129222319Y-27349761D01*
X129222319Y-27349761D02*
X129269938Y-27254523D01*
X129269938Y-27254523D02*
X129317557Y-27206904D01*
X129317557Y-27206904D02*
X129412795Y-27159285D01*
X129412795Y-27159285D02*
X129460414Y-27159285D01*
X129460414Y-27159285D02*
X129555652Y-27206904D01*
X129555652Y-27206904D02*
X129603271Y-27254523D01*
X129603271Y-27254523D02*
X129650890Y-27349761D01*
X129650890Y-27349761D02*
X129650890Y-27540237D01*
X129650890Y-27540237D02*
X129698509Y-27635475D01*
X129698509Y-27635475D02*
X129746128Y-27683094D01*
X129746128Y-27683094D02*
X129841366Y-27730713D01*
X129841366Y-27730713D02*
X130031842Y-27730713D01*
X130031842Y-27730713D02*
X130127080Y-27683094D01*
X130127080Y-27683094D02*
X130174700Y-27635475D01*
X130174700Y-27635475D02*
X130222319Y-27540237D01*
X130222319Y-27540237D02*
X130222319Y-27349761D01*
X130222319Y-27349761D02*
X130174700Y-27254523D01*
X130174700Y-27254523D02*
X130127080Y-27206904D01*
X130127080Y-27206904D02*
X130031842Y-27159285D01*
X130031842Y-27159285D02*
X129841366Y-27159285D01*
X129841366Y-27159285D02*
X129746128Y-27206904D01*
X129746128Y-27206904D02*
X129698509Y-27254523D01*
X129698509Y-27254523D02*
X129650890Y-27349761D01*
X123276090Y-59542918D02*
X122942757Y-59066727D01*
X122704662Y-59542918D02*
X122704662Y-58542918D01*
X122704662Y-58542918D02*
X123085614Y-58542918D01*
X123085614Y-58542918D02*
X123180852Y-58590537D01*
X123180852Y-58590537D02*
X123228471Y-58638156D01*
X123228471Y-58638156D02*
X123276090Y-58733394D01*
X123276090Y-58733394D02*
X123276090Y-58876251D01*
X123276090Y-58876251D02*
X123228471Y-58971489D01*
X123228471Y-58971489D02*
X123180852Y-59019108D01*
X123180852Y-59019108D02*
X123085614Y-59066727D01*
X123085614Y-59066727D02*
X122704662Y-59066727D01*
X123609424Y-58542918D02*
X124276090Y-58542918D01*
X124276090Y-58542918D02*
X123847519Y-59542918D01*
X132394819Y-48426666D02*
X131918628Y-48759999D01*
X132394819Y-48998094D02*
X131394819Y-48998094D01*
X131394819Y-48998094D02*
X131394819Y-48617142D01*
X131394819Y-48617142D02*
X131442438Y-48521904D01*
X131442438Y-48521904D02*
X131490057Y-48474285D01*
X131490057Y-48474285D02*
X131585295Y-48426666D01*
X131585295Y-48426666D02*
X131728152Y-48426666D01*
X131728152Y-48426666D02*
X131823390Y-48474285D01*
X131823390Y-48474285D02*
X131871009Y-48521904D01*
X131871009Y-48521904D02*
X131918628Y-48617142D01*
X131918628Y-48617142D02*
X131918628Y-48998094D01*
X131394819Y-47569523D02*
X131394819Y-47759999D01*
X131394819Y-47759999D02*
X131442438Y-47855237D01*
X131442438Y-47855237D02*
X131490057Y-47902856D01*
X131490057Y-47902856D02*
X131632914Y-47998094D01*
X131632914Y-47998094D02*
X131823390Y-48045713D01*
X131823390Y-48045713D02*
X132204342Y-48045713D01*
X132204342Y-48045713D02*
X132299580Y-47998094D01*
X132299580Y-47998094D02*
X132347200Y-47950475D01*
X132347200Y-47950475D02*
X132394819Y-47855237D01*
X132394819Y-47855237D02*
X132394819Y-47664761D01*
X132394819Y-47664761D02*
X132347200Y-47569523D01*
X132347200Y-47569523D02*
X132299580Y-47521904D01*
X132299580Y-47521904D02*
X132204342Y-47474285D01*
X132204342Y-47474285D02*
X131966247Y-47474285D01*
X131966247Y-47474285D02*
X131871009Y-47521904D01*
X131871009Y-47521904D02*
X131823390Y-47569523D01*
X131823390Y-47569523D02*
X131775771Y-47664761D01*
X131775771Y-47664761D02*
X131775771Y-47855237D01*
X131775771Y-47855237D02*
X131823390Y-47950475D01*
X131823390Y-47950475D02*
X131871009Y-47998094D01*
X131871009Y-47998094D02*
X131966247Y-48045713D01*
X123312622Y-36697980D02*
X122836431Y-37031313D01*
X123312622Y-37269408D02*
X122312622Y-37269408D01*
X122312622Y-37269408D02*
X122312622Y-36888456D01*
X122312622Y-36888456D02*
X122360241Y-36793218D01*
X122360241Y-36793218D02*
X122407860Y-36745599D01*
X122407860Y-36745599D02*
X122503098Y-36697980D01*
X122503098Y-36697980D02*
X122645955Y-36697980D01*
X122645955Y-36697980D02*
X122741193Y-36745599D01*
X122741193Y-36745599D02*
X122788812Y-36793218D01*
X122788812Y-36793218D02*
X122836431Y-36888456D01*
X122836431Y-36888456D02*
X122836431Y-37269408D01*
X122312622Y-35793218D02*
X122312622Y-36269408D01*
X122312622Y-36269408D02*
X122788812Y-36317027D01*
X122788812Y-36317027D02*
X122741193Y-36269408D01*
X122741193Y-36269408D02*
X122693574Y-36174170D01*
X122693574Y-36174170D02*
X122693574Y-35936075D01*
X122693574Y-35936075D02*
X122741193Y-35840837D01*
X122741193Y-35840837D02*
X122788812Y-35793218D01*
X122788812Y-35793218D02*
X122884050Y-35745599D01*
X122884050Y-35745599D02*
X123122145Y-35745599D01*
X123122145Y-35745599D02*
X123217383Y-35793218D01*
X123217383Y-35793218D02*
X123265003Y-35840837D01*
X123265003Y-35840837D02*
X123312622Y-35936075D01*
X123312622Y-35936075D02*
X123312622Y-36174170D01*
X123312622Y-36174170D02*
X123265003Y-36269408D01*
X123265003Y-36269408D02*
X123217383Y-36317027D01*
X57244833Y-56714819D02*
X56911500Y-56238628D01*
X56673405Y-56714819D02*
X56673405Y-55714819D01*
X56673405Y-55714819D02*
X57054357Y-55714819D01*
X57054357Y-55714819D02*
X57149595Y-55762438D01*
X57149595Y-55762438D02*
X57197214Y-55810057D01*
X57197214Y-55810057D02*
X57244833Y-55905295D01*
X57244833Y-55905295D02*
X57244833Y-56048152D01*
X57244833Y-56048152D02*
X57197214Y-56143390D01*
X57197214Y-56143390D02*
X57149595Y-56191009D01*
X57149595Y-56191009D02*
X57054357Y-56238628D01*
X57054357Y-56238628D02*
X56673405Y-56238628D01*
X58101976Y-56048152D02*
X58101976Y-56714819D01*
X57863881Y-55667200D02*
X57625786Y-56381485D01*
X57625786Y-56381485D02*
X58244833Y-56381485D01*
X56714591Y-33174804D02*
X56381258Y-32698613D01*
X56143163Y-33174804D02*
X56143163Y-32174804D01*
X56143163Y-32174804D02*
X56524115Y-32174804D01*
X56524115Y-32174804D02*
X56619353Y-32222423D01*
X56619353Y-32222423D02*
X56666972Y-32270042D01*
X56666972Y-32270042D02*
X56714591Y-32365280D01*
X56714591Y-32365280D02*
X56714591Y-32508137D01*
X56714591Y-32508137D02*
X56666972Y-32603375D01*
X56666972Y-32603375D02*
X56619353Y-32650994D01*
X56619353Y-32650994D02*
X56524115Y-32698613D01*
X56524115Y-32698613D02*
X56143163Y-32698613D01*
X57047925Y-32174804D02*
X57666972Y-32174804D01*
X57666972Y-32174804D02*
X57333639Y-32555756D01*
X57333639Y-32555756D02*
X57476496Y-32555756D01*
X57476496Y-32555756D02*
X57571734Y-32603375D01*
X57571734Y-32603375D02*
X57619353Y-32650994D01*
X57619353Y-32650994D02*
X57666972Y-32746232D01*
X57666972Y-32746232D02*
X57666972Y-32984327D01*
X57666972Y-32984327D02*
X57619353Y-33079565D01*
X57619353Y-33079565D02*
X57571734Y-33127185D01*
X57571734Y-33127185D02*
X57476496Y-33174804D01*
X57476496Y-33174804D02*
X57190782Y-33174804D01*
X57190782Y-33174804D02*
X57095544Y-33127185D01*
X57095544Y-33127185D02*
X57047925Y-33079565D01*
X60492429Y-33174804D02*
X60159096Y-32698613D01*
X59921001Y-33174804D02*
X59921001Y-32174804D01*
X59921001Y-32174804D02*
X60301953Y-32174804D01*
X60301953Y-32174804D02*
X60397191Y-32222423D01*
X60397191Y-32222423D02*
X60444810Y-32270042D01*
X60444810Y-32270042D02*
X60492429Y-32365280D01*
X60492429Y-32365280D02*
X60492429Y-32508137D01*
X60492429Y-32508137D02*
X60444810Y-32603375D01*
X60444810Y-32603375D02*
X60397191Y-32650994D01*
X60397191Y-32650994D02*
X60301953Y-32698613D01*
X60301953Y-32698613D02*
X59921001Y-32698613D01*
X60873382Y-32270042D02*
X60921001Y-32222423D01*
X60921001Y-32222423D02*
X61016239Y-32174804D01*
X61016239Y-32174804D02*
X61254334Y-32174804D01*
X61254334Y-32174804D02*
X61349572Y-32222423D01*
X61349572Y-32222423D02*
X61397191Y-32270042D01*
X61397191Y-32270042D02*
X61444810Y-32365280D01*
X61444810Y-32365280D02*
X61444810Y-32460518D01*
X61444810Y-32460518D02*
X61397191Y-32603375D01*
X61397191Y-32603375D02*
X60825763Y-33174804D01*
X60825763Y-33174804D02*
X61444810Y-33174804D01*
X53434833Y-56714819D02*
X53101500Y-56238628D01*
X52863405Y-56714819D02*
X52863405Y-55714819D01*
X52863405Y-55714819D02*
X53244357Y-55714819D01*
X53244357Y-55714819D02*
X53339595Y-55762438D01*
X53339595Y-55762438D02*
X53387214Y-55810057D01*
X53387214Y-55810057D02*
X53434833Y-55905295D01*
X53434833Y-55905295D02*
X53434833Y-56048152D01*
X53434833Y-56048152D02*
X53387214Y-56143390D01*
X53387214Y-56143390D02*
X53339595Y-56191009D01*
X53339595Y-56191009D02*
X53244357Y-56238628D01*
X53244357Y-56238628D02*
X52863405Y-56238628D01*
X54387214Y-56714819D02*
X53815786Y-56714819D01*
X54101500Y-56714819D02*
X54101500Y-55714819D01*
X54101500Y-55714819D02*
X54006262Y-55857676D01*
X54006262Y-55857676D02*
X53911024Y-55952914D01*
X53911024Y-55952914D02*
X53815786Y-56000533D01*
X64781802Y-52717128D02*
X64781802Y-53050461D01*
X65305612Y-53050461D02*
X64305612Y-53050461D01*
X64305612Y-53050461D02*
X64305612Y-52574271D01*
X64781802Y-52193318D02*
X64781802Y-51859985D01*
X65305612Y-51717128D02*
X65305612Y-52193318D01*
X65305612Y-52193318D02*
X64305612Y-52193318D01*
X64305612Y-52193318D02*
X64305612Y-51717128D01*
X64305612Y-51431413D02*
X64305612Y-50859985D01*
X65305612Y-51145699D02*
X64305612Y-51145699D01*
X64400850Y-50574270D02*
X64353231Y-50526651D01*
X64353231Y-50526651D02*
X64305612Y-50431413D01*
X64305612Y-50431413D02*
X64305612Y-50193318D01*
X64305612Y-50193318D02*
X64353231Y-50098080D01*
X64353231Y-50098080D02*
X64400850Y-50050461D01*
X64400850Y-50050461D02*
X64496088Y-50002842D01*
X64496088Y-50002842D02*
X64591326Y-50002842D01*
X64591326Y-50002842D02*
X64734183Y-50050461D01*
X64734183Y-50050461D02*
X65305612Y-50621889D01*
X65305612Y-50621889D02*
X65305612Y-50002842D01*
X120600833Y-25336009D02*
X120267500Y-25336009D01*
X120267500Y-25859819D02*
X120267500Y-24859819D01*
X120267500Y-24859819D02*
X120743690Y-24859819D01*
X121124643Y-25336009D02*
X121457976Y-25336009D01*
X121600833Y-25859819D02*
X121124643Y-25859819D01*
X121124643Y-25859819D02*
X121124643Y-24859819D01*
X121124643Y-24859819D02*
X121600833Y-24859819D01*
X121886548Y-24859819D02*
X122457976Y-24859819D01*
X122172262Y-25859819D02*
X122172262Y-24859819D01*
X123315119Y-25859819D02*
X122743691Y-25859819D01*
X123029405Y-25859819D02*
X123029405Y-24859819D01*
X123029405Y-24859819D02*
X122934167Y-25002676D01*
X122934167Y-25002676D02*
X122838929Y-25097914D01*
X122838929Y-25097914D02*
X122743691Y-25145533D01*
X52307666Y-43995180D02*
X52783856Y-43995180D01*
X52783856Y-43995180D02*
X52783856Y-44995180D01*
X52021951Y-44899942D02*
X51974332Y-44947561D01*
X51974332Y-44947561D02*
X51879094Y-44995180D01*
X51879094Y-44995180D02*
X51640999Y-44995180D01*
X51640999Y-44995180D02*
X51545761Y-44947561D01*
X51545761Y-44947561D02*
X51498142Y-44899942D01*
X51498142Y-44899942D02*
X51450523Y-44804704D01*
X51450523Y-44804704D02*
X51450523Y-44709466D01*
X51450523Y-44709466D02*
X51498142Y-44566609D01*
X51498142Y-44566609D02*
X52069570Y-43995180D01*
X52069570Y-43995180D02*
X51450523Y-43995180D01*
X61753333Y-44904819D02*
X61277143Y-44904819D01*
X61277143Y-44904819D02*
X61277143Y-43904819D01*
X62610476Y-44904819D02*
X62039048Y-44904819D01*
X62324762Y-44904819D02*
X62324762Y-43904819D01*
X62324762Y-43904819D02*
X62229524Y-44047676D01*
X62229524Y-44047676D02*
X62134286Y-44142914D01*
X62134286Y-44142914D02*
X62039048Y-44190533D01*
X129024819Y-67643333D02*
X129739104Y-67643333D01*
X129739104Y-67643333D02*
X129881961Y-67690952D01*
X129881961Y-67690952D02*
X129977200Y-67786190D01*
X129977200Y-67786190D02*
X130024819Y-67929047D01*
X130024819Y-67929047D02*
X130024819Y-68024285D01*
X129453390Y-67024285D02*
X129405771Y-67119523D01*
X129405771Y-67119523D02*
X129358152Y-67167142D01*
X129358152Y-67167142D02*
X129262914Y-67214761D01*
X129262914Y-67214761D02*
X129215295Y-67214761D01*
X129215295Y-67214761D02*
X129120057Y-67167142D01*
X129120057Y-67167142D02*
X129072438Y-67119523D01*
X129072438Y-67119523D02*
X129024819Y-67024285D01*
X129024819Y-67024285D02*
X129024819Y-66833809D01*
X129024819Y-66833809D02*
X129072438Y-66738571D01*
X129072438Y-66738571D02*
X129120057Y-66690952D01*
X129120057Y-66690952D02*
X129215295Y-66643333D01*
X129215295Y-66643333D02*
X129262914Y-66643333D01*
X129262914Y-66643333D02*
X129358152Y-66690952D01*
X129358152Y-66690952D02*
X129405771Y-66738571D01*
X129405771Y-66738571D02*
X129453390Y-66833809D01*
X129453390Y-66833809D02*
X129453390Y-67024285D01*
X129453390Y-67024285D02*
X129501009Y-67119523D01*
X129501009Y-67119523D02*
X129548628Y-67167142D01*
X129548628Y-67167142D02*
X129643866Y-67214761D01*
X129643866Y-67214761D02*
X129834342Y-67214761D01*
X129834342Y-67214761D02*
X129929580Y-67167142D01*
X129929580Y-67167142D02*
X129977200Y-67119523D01*
X129977200Y-67119523D02*
X130024819Y-67024285D01*
X130024819Y-67024285D02*
X130024819Y-66833809D01*
X130024819Y-66833809D02*
X129977200Y-66738571D01*
X129977200Y-66738571D02*
X129929580Y-66690952D01*
X129929580Y-66690952D02*
X129834342Y-66643333D01*
X129834342Y-66643333D02*
X129643866Y-66643333D01*
X129643866Y-66643333D02*
X129548628Y-66690952D01*
X129548628Y-66690952D02*
X129501009Y-66738571D01*
X129501009Y-66738571D02*
X129453390Y-66833809D01*
X48666666Y-27324819D02*
X48666666Y-28039104D01*
X48666666Y-28039104D02*
X48619047Y-28181961D01*
X48619047Y-28181961D02*
X48523809Y-28277200D01*
X48523809Y-28277200D02*
X48380952Y-28324819D01*
X48380952Y-28324819D02*
X48285714Y-28324819D01*
X49047619Y-27324819D02*
X49714285Y-27324819D01*
X49714285Y-27324819D02*
X49285714Y-28324819D01*
X122492319Y-23198333D02*
X123206604Y-23198333D01*
X123206604Y-23198333D02*
X123349461Y-23245952D01*
X123349461Y-23245952D02*
X123444700Y-23341190D01*
X123444700Y-23341190D02*
X123492319Y-23484047D01*
X123492319Y-23484047D02*
X123492319Y-23579285D01*
X122492319Y-22293571D02*
X122492319Y-22484047D01*
X122492319Y-22484047D02*
X122539938Y-22579285D01*
X122539938Y-22579285D02*
X122587557Y-22626904D01*
X122587557Y-22626904D02*
X122730414Y-22722142D01*
X122730414Y-22722142D02*
X122920890Y-22769761D01*
X122920890Y-22769761D02*
X123301842Y-22769761D01*
X123301842Y-22769761D02*
X123397080Y-22722142D01*
X123397080Y-22722142D02*
X123444700Y-22674523D01*
X123444700Y-22674523D02*
X123492319Y-22579285D01*
X123492319Y-22579285D02*
X123492319Y-22388809D01*
X123492319Y-22388809D02*
X123444700Y-22293571D01*
X123444700Y-22293571D02*
X123397080Y-22245952D01*
X123397080Y-22245952D02*
X123301842Y-22198333D01*
X123301842Y-22198333D02*
X123063747Y-22198333D01*
X123063747Y-22198333D02*
X122968509Y-22245952D01*
X122968509Y-22245952D02*
X122920890Y-22293571D01*
X122920890Y-22293571D02*
X122873271Y-22388809D01*
X122873271Y-22388809D02*
X122873271Y-22579285D01*
X122873271Y-22579285D02*
X122920890Y-22674523D01*
X122920890Y-22674523D02*
X122968509Y-22722142D01*
X122968509Y-22722142D02*
X123063747Y-22769761D01*
X105666666Y-73024819D02*
X105666666Y-73739104D01*
X105666666Y-73739104D02*
X105619047Y-73881961D01*
X105619047Y-73881961D02*
X105523809Y-73977200D01*
X105523809Y-73977200D02*
X105380952Y-74024819D01*
X105380952Y-74024819D02*
X105285714Y-74024819D01*
X106619047Y-73024819D02*
X106142857Y-73024819D01*
X106142857Y-73024819D02*
X106095238Y-73501009D01*
X106095238Y-73501009D02*
X106142857Y-73453390D01*
X106142857Y-73453390D02*
X106238095Y-73405771D01*
X106238095Y-73405771D02*
X106476190Y-73405771D01*
X106476190Y-73405771D02*
X106571428Y-73453390D01*
X106571428Y-73453390D02*
X106619047Y-73501009D01*
X106619047Y-73501009D02*
X106666666Y-73596247D01*
X106666666Y-73596247D02*
X106666666Y-73834342D01*
X106666666Y-73834342D02*
X106619047Y-73929580D01*
X106619047Y-73929580D02*
X106571428Y-73977200D01*
X106571428Y-73977200D02*
X106476190Y-74024819D01*
X106476190Y-74024819D02*
X106238095Y-74024819D01*
X106238095Y-74024819D02*
X106142857Y-73977200D01*
X106142857Y-73977200D02*
X106095238Y-73929580D01*
X117624166Y-24849819D02*
X117624166Y-25564104D01*
X117624166Y-25564104D02*
X117576547Y-25706961D01*
X117576547Y-25706961D02*
X117481309Y-25802200D01*
X117481309Y-25802200D02*
X117338452Y-25849819D01*
X117338452Y-25849819D02*
X117243214Y-25849819D01*
X118528928Y-25183152D02*
X118528928Y-25849819D01*
X118290833Y-24802200D02*
X118052738Y-25516485D01*
X118052738Y-25516485D02*
X118671785Y-25516485D01*
X69588166Y-41144819D02*
X69588166Y-41859104D01*
X69588166Y-41859104D02*
X69540547Y-42001961D01*
X69540547Y-42001961D02*
X69445309Y-42097200D01*
X69445309Y-42097200D02*
X69302452Y-42144819D01*
X69302452Y-42144819D02*
X69207214Y-42144819D01*
X69969119Y-41144819D02*
X70588166Y-41144819D01*
X70588166Y-41144819D02*
X70254833Y-41525771D01*
X70254833Y-41525771D02*
X70397690Y-41525771D01*
X70397690Y-41525771D02*
X70492928Y-41573390D01*
X70492928Y-41573390D02*
X70540547Y-41621009D01*
X70540547Y-41621009D02*
X70588166Y-41716247D01*
X70588166Y-41716247D02*
X70588166Y-41954342D01*
X70588166Y-41954342D02*
X70540547Y-42049580D01*
X70540547Y-42049580D02*
X70492928Y-42097200D01*
X70492928Y-42097200D02*
X70397690Y-42144819D01*
X70397690Y-42144819D02*
X70111976Y-42144819D01*
X70111976Y-42144819D02*
X70016738Y-42097200D01*
X70016738Y-42097200D02*
X69969119Y-42049580D01*
X72054819Y-57483333D02*
X72769104Y-57483333D01*
X72769104Y-57483333D02*
X72911961Y-57530952D01*
X72911961Y-57530952D02*
X73007200Y-57626190D01*
X73007200Y-57626190D02*
X73054819Y-57769047D01*
X73054819Y-57769047D02*
X73054819Y-57864285D01*
X72150057Y-57054761D02*
X72102438Y-57007142D01*
X72102438Y-57007142D02*
X72054819Y-56911904D01*
X72054819Y-56911904D02*
X72054819Y-56673809D01*
X72054819Y-56673809D02*
X72102438Y-56578571D01*
X72102438Y-56578571D02*
X72150057Y-56530952D01*
X72150057Y-56530952D02*
X72245295Y-56483333D01*
X72245295Y-56483333D02*
X72340533Y-56483333D01*
X72340533Y-56483333D02*
X72483390Y-56530952D01*
X72483390Y-56530952D02*
X73054819Y-57102380D01*
X73054819Y-57102380D02*
X73054819Y-56483333D01*
X128176666Y-31204819D02*
X128176666Y-31919104D01*
X128176666Y-31919104D02*
X128129047Y-32061961D01*
X128129047Y-32061961D02*
X128033809Y-32157200D01*
X128033809Y-32157200D02*
X127890952Y-32204819D01*
X127890952Y-32204819D02*
X127795714Y-32204819D01*
X129176666Y-32204819D02*
X128605238Y-32204819D01*
X128890952Y-32204819D02*
X128890952Y-31204819D01*
X128890952Y-31204819D02*
X128795714Y-31347676D01*
X128795714Y-31347676D02*
X128700476Y-31442914D01*
X128700476Y-31442914D02*
X128605238Y-31490533D01*
X118183333Y-54559580D02*
X118135714Y-54607200D01*
X118135714Y-54607200D02*
X117992857Y-54654819D01*
X117992857Y-54654819D02*
X117897619Y-54654819D01*
X117897619Y-54654819D02*
X117754762Y-54607200D01*
X117754762Y-54607200D02*
X117659524Y-54511961D01*
X117659524Y-54511961D02*
X117611905Y-54416723D01*
X117611905Y-54416723D02*
X117564286Y-54226247D01*
X117564286Y-54226247D02*
X117564286Y-54083390D01*
X117564286Y-54083390D02*
X117611905Y-53892914D01*
X117611905Y-53892914D02*
X117659524Y-53797676D01*
X117659524Y-53797676D02*
X117754762Y-53702438D01*
X117754762Y-53702438D02*
X117897619Y-53654819D01*
X117897619Y-53654819D02*
X117992857Y-53654819D01*
X117992857Y-53654819D02*
X118135714Y-53702438D01*
X118135714Y-53702438D02*
X118183333Y-53750057D01*
X119088095Y-53654819D02*
X118611905Y-53654819D01*
X118611905Y-53654819D02*
X118564286Y-54131009D01*
X118564286Y-54131009D02*
X118611905Y-54083390D01*
X118611905Y-54083390D02*
X118707143Y-54035771D01*
X118707143Y-54035771D02*
X118945238Y-54035771D01*
X118945238Y-54035771D02*
X119040476Y-54083390D01*
X119040476Y-54083390D02*
X119088095Y-54131009D01*
X119088095Y-54131009D02*
X119135714Y-54226247D01*
X119135714Y-54226247D02*
X119135714Y-54464342D01*
X119135714Y-54464342D02*
X119088095Y-54559580D01*
X119088095Y-54559580D02*
X119040476Y-54607200D01*
X119040476Y-54607200D02*
X118945238Y-54654819D01*
X118945238Y-54654819D02*
X118707143Y-54654819D01*
X118707143Y-54654819D02*
X118611905Y-54607200D01*
X118611905Y-54607200D02*
X118564286Y-54559580D01*
X48471080Y-58586666D02*
X48518700Y-58634285D01*
X48518700Y-58634285D02*
X48566319Y-58777142D01*
X48566319Y-58777142D02*
X48566319Y-58872380D01*
X48566319Y-58872380D02*
X48518700Y-59015237D01*
X48518700Y-59015237D02*
X48423461Y-59110475D01*
X48423461Y-59110475D02*
X48328223Y-59158094D01*
X48328223Y-59158094D02*
X48137747Y-59205713D01*
X48137747Y-59205713D02*
X47994890Y-59205713D01*
X47994890Y-59205713D02*
X47804414Y-59158094D01*
X47804414Y-59158094D02*
X47709176Y-59110475D01*
X47709176Y-59110475D02*
X47613938Y-59015237D01*
X47613938Y-59015237D02*
X47566319Y-58872380D01*
X47566319Y-58872380D02*
X47566319Y-58777142D01*
X47566319Y-58777142D02*
X47613938Y-58634285D01*
X47613938Y-58634285D02*
X47661557Y-58586666D01*
X47899652Y-57729523D02*
X48566319Y-57729523D01*
X47518700Y-57967618D02*
X48232985Y-58205713D01*
X48232985Y-58205713D02*
X48232985Y-57586666D01*
X59710881Y-50936544D02*
X59758501Y-50984163D01*
X59758501Y-50984163D02*
X59806120Y-51127020D01*
X59806120Y-51127020D02*
X59806120Y-51222258D01*
X59806120Y-51222258D02*
X59758501Y-51365115D01*
X59758501Y-51365115D02*
X59663262Y-51460353D01*
X59663262Y-51460353D02*
X59568024Y-51507972D01*
X59568024Y-51507972D02*
X59377548Y-51555591D01*
X59377548Y-51555591D02*
X59234691Y-51555591D01*
X59234691Y-51555591D02*
X59044215Y-51507972D01*
X59044215Y-51507972D02*
X58948977Y-51460353D01*
X58948977Y-51460353D02*
X58853739Y-51365115D01*
X58853739Y-51365115D02*
X58806120Y-51222258D01*
X58806120Y-51222258D02*
X58806120Y-51127020D01*
X58806120Y-51127020D02*
X58853739Y-50984163D01*
X58853739Y-50984163D02*
X58901358Y-50936544D01*
X58806120Y-50603210D02*
X58806120Y-49984163D01*
X58806120Y-49984163D02*
X59187072Y-50317496D01*
X59187072Y-50317496D02*
X59187072Y-50174639D01*
X59187072Y-50174639D02*
X59234691Y-50079401D01*
X59234691Y-50079401D02*
X59282310Y-50031782D01*
X59282310Y-50031782D02*
X59377548Y-49984163D01*
X59377548Y-49984163D02*
X59615643Y-49984163D01*
X59615643Y-49984163D02*
X59710881Y-50031782D01*
X59710881Y-50031782D02*
X59758501Y-50079401D01*
X59758501Y-50079401D02*
X59806120Y-50174639D01*
X59806120Y-50174639D02*
X59806120Y-50460353D01*
X59806120Y-50460353D02*
X59758501Y-50555591D01*
X59758501Y-50555591D02*
X59710881Y-50603210D01*
X63139580Y-30646666D02*
X63187200Y-30694285D01*
X63187200Y-30694285D02*
X63234819Y-30837142D01*
X63234819Y-30837142D02*
X63234819Y-30932380D01*
X63234819Y-30932380D02*
X63187200Y-31075237D01*
X63187200Y-31075237D02*
X63091961Y-31170475D01*
X63091961Y-31170475D02*
X62996723Y-31218094D01*
X62996723Y-31218094D02*
X62806247Y-31265713D01*
X62806247Y-31265713D02*
X62663390Y-31265713D01*
X62663390Y-31265713D02*
X62472914Y-31218094D01*
X62472914Y-31218094D02*
X62377676Y-31170475D01*
X62377676Y-31170475D02*
X62282438Y-31075237D01*
X62282438Y-31075237D02*
X62234819Y-30932380D01*
X62234819Y-30932380D02*
X62234819Y-30837142D01*
X62234819Y-30837142D02*
X62282438Y-30694285D01*
X62282438Y-30694285D02*
X62330057Y-30646666D01*
X62330057Y-30265713D02*
X62282438Y-30218094D01*
X62282438Y-30218094D02*
X62234819Y-30122856D01*
X62234819Y-30122856D02*
X62234819Y-29884761D01*
X62234819Y-29884761D02*
X62282438Y-29789523D01*
X62282438Y-29789523D02*
X62330057Y-29741904D01*
X62330057Y-29741904D02*
X62425295Y-29694285D01*
X62425295Y-29694285D02*
X62520533Y-29694285D01*
X62520533Y-29694285D02*
X62663390Y-29741904D01*
X62663390Y-29741904D02*
X63234819Y-30313332D01*
X63234819Y-30313332D02*
X63234819Y-29694285D01*
X55519580Y-38266666D02*
X55567200Y-38314285D01*
X55567200Y-38314285D02*
X55614819Y-38457142D01*
X55614819Y-38457142D02*
X55614819Y-38552380D01*
X55614819Y-38552380D02*
X55567200Y-38695237D01*
X55567200Y-38695237D02*
X55471961Y-38790475D01*
X55471961Y-38790475D02*
X55376723Y-38838094D01*
X55376723Y-38838094D02*
X55186247Y-38885713D01*
X55186247Y-38885713D02*
X55043390Y-38885713D01*
X55043390Y-38885713D02*
X54852914Y-38838094D01*
X54852914Y-38838094D02*
X54757676Y-38790475D01*
X54757676Y-38790475D02*
X54662438Y-38695237D01*
X54662438Y-38695237D02*
X54614819Y-38552380D01*
X54614819Y-38552380D02*
X54614819Y-38457142D01*
X54614819Y-38457142D02*
X54662438Y-38314285D01*
X54662438Y-38314285D02*
X54710057Y-38266666D01*
X55614819Y-37314285D02*
X55614819Y-37885713D01*
X55614819Y-37599999D02*
X54614819Y-37599999D01*
X54614819Y-37599999D02*
X54757676Y-37695237D01*
X54757676Y-37695237D02*
X54852914Y-37790475D01*
X54852914Y-37790475D02*
X54900533Y-37885713D01*
X60733509Y-56517214D02*
X60781128Y-56374357D01*
X60781128Y-56374357D02*
X60828747Y-56326738D01*
X60828747Y-56326738D02*
X60923985Y-56279119D01*
X60923985Y-56279119D02*
X61066842Y-56279119D01*
X61066842Y-56279119D02*
X61162080Y-56326738D01*
X61162080Y-56326738D02*
X61209700Y-56374357D01*
X61209700Y-56374357D02*
X61257319Y-56469595D01*
X61257319Y-56469595D02*
X61257319Y-56850547D01*
X61257319Y-56850547D02*
X60257319Y-56850547D01*
X60257319Y-56850547D02*
X60257319Y-56517214D01*
X60257319Y-56517214D02*
X60304938Y-56421976D01*
X60304938Y-56421976D02*
X60352557Y-56374357D01*
X60352557Y-56374357D02*
X60447795Y-56326738D01*
X60447795Y-56326738D02*
X60543033Y-56326738D01*
X60543033Y-56326738D02*
X60638271Y-56374357D01*
X60638271Y-56374357D02*
X60685890Y-56421976D01*
X60685890Y-56421976D02*
X60733509Y-56517214D01*
X60733509Y-56517214D02*
X60733509Y-56850547D01*
X60257319Y-55993404D02*
X60257319Y-55421976D01*
X61257319Y-55707690D02*
X60257319Y-55707690D01*
X61257319Y-54564833D02*
X61257319Y-55136261D01*
X61257319Y-54850547D02*
X60257319Y-54850547D01*
X60257319Y-54850547D02*
X60400176Y-54945785D01*
X60400176Y-54945785D02*
X60495414Y-55041023D01*
X60495414Y-55041023D02*
X60543033Y-55136261D01*
D12*
%TO.C,U2*%
X76725000Y-21615000D02*
X94725000Y-21615000D01*
X76725000Y-28115000D02*
X76725000Y-21615000D01*
X76725000Y-46465000D02*
X76725000Y-47115000D01*
X76725000Y-47115000D02*
X79175000Y-47115000D01*
X92275000Y-47115000D02*
X94725000Y-47115000D01*
X94725000Y-21615000D02*
X94725000Y-28115000D01*
X94725000Y-47115000D02*
X94725000Y-46465000D01*
D13*
X75625000Y-29105000D02*
G75*
G03*
X75625000Y-29105000I-100000J0D01*
G01*
D14*
%TO.C,U4*%
X123315700Y-55854600D02*
X131164300Y-55854600D01*
X131164300Y-55854600D02*
X131164300Y-50825400D01*
X131164300Y-50825400D02*
X123315700Y-50825400D01*
X123315700Y-50825400D02*
X123315700Y-55854600D01*
D15*
%TO.C,J9*%
X116627500Y-48255000D02*
X116627500Y-40575000D01*
X119287500Y-49525000D02*
X119287500Y-50855000D01*
X119287500Y-40575000D02*
X116627500Y-40575000D01*
X119287500Y-48255000D02*
X116627500Y-48255000D01*
X119287500Y-50855000D02*
X117957500Y-50855000D01*
X119287500Y-48255000D02*
X119287500Y-40575000D01*
D13*
%TO.C,D2*%
X49891500Y-49270000D02*
G75*
G03*
X49891500Y-49270000I-100000J0D01*
G01*
D12*
X48861500Y-50770000D02*
X48861500Y-53370000D01*
X50721500Y-50770000D02*
X50721500Y-53370000D01*
%TO.C,D1*%
X65390000Y-35530000D02*
X65390000Y-38130000D01*
X63530000Y-35530000D02*
X63530000Y-38130000D01*
D13*
X64560000Y-34030000D02*
G75*
G03*
X64560000Y-34030000I-100000J0D01*
G01*
%TO.C,U6*%
X116145000Y-65000000D02*
G75*
G03*
X116145000Y-65000000I-100000J0D01*
G01*
D12*
X115825000Y-62910000D02*
X115825000Y-59010000D01*
X120875000Y-62910000D02*
X120875000Y-59010000D01*
D14*
%TO.C,U5*%
X131050000Y-45924500D02*
X132015200Y-45924500D01*
X131050000Y-41324500D02*
X132015200Y-41324500D01*
X131050000Y-45035500D02*
X132015200Y-45035500D01*
X131050000Y-40435500D02*
X132015200Y-40435500D01*
X130567400Y-46710600D02*
X130567400Y-39649400D01*
X130567400Y-39649400D02*
X123912600Y-39649400D01*
X123912600Y-39649400D02*
X123912600Y-40065960D01*
X123912600Y-46710600D02*
X130567400Y-46710600D01*
X123912600Y-46294040D02*
X123912600Y-46710600D01*
D13*
%TO.C,U3*%
X52640500Y-53385000D02*
G75*
G03*
X52640500Y-53385000I-100000J0D01*
G01*
D12*
X55099000Y-51685000D02*
X55099000Y-50085000D01*
X51982000Y-50085000D02*
X51982000Y-51685000D01*
%TO.C,U1*%
X62208500Y-38900000D02*
X62208500Y-37300000D01*
X59091500Y-37300000D02*
X59091500Y-38900000D01*
D13*
X61750000Y-35600000D02*
G75*
G03*
X61750000Y-35600000I-100000J0D01*
G01*
D15*
%TO.C,R12*%
X119085000Y-67082936D02*
X119085000Y-67537064D01*
X117615000Y-67082936D02*
X117615000Y-67537064D01*
%TO.C,R11*%
X115075000Y-67537064D02*
X115075000Y-67082936D01*
X116545000Y-67537064D02*
X116545000Y-67082936D01*
%TO.C,R10*%
X111772936Y-61495000D02*
X112227064Y-61495000D01*
X111772936Y-62965000D02*
X112227064Y-62965000D01*
%TO.C,R9*%
X121625000Y-67082936D02*
X121625000Y-67537064D01*
X120155000Y-67082936D02*
X120155000Y-67537064D01*
%TO.C,R8*%
X128852500Y-27717936D02*
X128852500Y-28172064D01*
X127382500Y-27717936D02*
X127382500Y-28172064D01*
%TO.C,R7*%
X123202936Y-56415000D02*
X123657064Y-56415000D01*
X123202936Y-57885000D02*
X123657064Y-57885000D01*
%TO.C,R6*%
X132855000Y-48487064D02*
X132855000Y-48032936D01*
X134325000Y-48487064D02*
X134325000Y-48032936D01*
%TO.C,R5*%
X123965000Y-36699564D02*
X123965000Y-36245436D01*
X125435000Y-36699564D02*
X125435000Y-36245436D01*
%TO.C,R4*%
X57638564Y-53875000D02*
X57184436Y-53875000D01*
X57638564Y-55345000D02*
X57184436Y-55345000D01*
%TO.C,R3*%
X57067064Y-35025000D02*
X56612936Y-35025000D01*
X57067064Y-33555000D02*
X56612936Y-33555000D01*
%TO.C,R2*%
X60877064Y-35025000D02*
X60422936Y-35025000D01*
X60877064Y-33555000D02*
X60422936Y-33555000D01*
%TO.C,R1*%
X53828564Y-53875000D02*
X53374436Y-53875000D01*
X53828564Y-55345000D02*
X53374436Y-55345000D01*
D14*
%TO.C,FET2*%
X64955300Y-49555400D02*
G75*
G03*
X64955300Y-49555400I-127000J0D01*
G01*
X62473761Y-49771300D02*
X61747239Y-49771300D01*
X60535700Y-49771300D02*
X60535700Y-51828700D01*
X60535700Y-51828700D02*
X61523760Y-51828700D01*
X63685300Y-51828700D02*
X63685300Y-49771300D01*
X62697240Y-51828700D02*
X63685300Y-51828700D01*
%TO.C,FET1*%
X120126701Y-29265800D02*
G75*
G03*
X120126701Y-29265800I-127000J0D01*
G01*
X122354240Y-29049900D02*
X123080762Y-29049900D01*
X124292301Y-29049900D02*
X124292301Y-26992500D01*
X124292301Y-26992500D02*
X123304241Y-26992500D01*
X121142701Y-26992500D02*
X121142701Y-29049900D01*
X122130761Y-26992500D02*
X121142701Y-26992500D01*
%TO.C,L2*%
X56128800Y-44450000D02*
G75*
G03*
X56128800Y-44450000I-76200J0D01*
G01*
X55366800Y-41224200D02*
X48915200Y-41224200D01*
X48915200Y-47675800D02*
X55366800Y-47675800D01*
%TO.C,L1*%
X65145800Y-41224200D02*
X58694200Y-41224200D01*
X58694200Y-47675800D02*
X65145800Y-47675800D01*
X58084600Y-44450000D02*
G75*
G03*
X58084600Y-44450000I-76200J0D01*
G01*
D15*
%TO.C,J8*%
X125970000Y-68640000D02*
X123370000Y-68640000D01*
X128570000Y-65980000D02*
X128570000Y-67310000D01*
X125970000Y-65980000D02*
X125970000Y-68640000D01*
X125970000Y-65980000D02*
X123370000Y-65980000D01*
X123370000Y-65980000D02*
X123370000Y-68640000D01*
X127240000Y-65980000D02*
X128570000Y-65980000D01*
%TO.C,J7*%
X50330000Y-31470000D02*
X50330000Y-39150000D01*
X47670000Y-30200000D02*
X47670000Y-28870000D01*
X47670000Y-39150000D02*
X50330000Y-39150000D01*
X47670000Y-31470000D02*
X50330000Y-31470000D01*
X47670000Y-28870000D02*
X49000000Y-28870000D01*
X47670000Y-31470000D02*
X47670000Y-39150000D01*
%TO.C,J6*%
X125577500Y-25465000D02*
X124247500Y-25465000D01*
X129447500Y-25465000D02*
X129447500Y-22805000D01*
X126847500Y-25465000D02*
X129447500Y-25465000D01*
X126847500Y-25465000D02*
X126847500Y-22805000D01*
X124247500Y-25465000D02*
X124247500Y-24135000D01*
X126847500Y-22805000D02*
X129447500Y-22805000D01*
%TO.C,J5*%
X107330000Y-69970000D02*
X104670000Y-69970000D01*
X107330000Y-72570000D02*
X106000000Y-72570000D01*
X107330000Y-69970000D02*
X107330000Y-21650000D01*
X107330000Y-21650000D02*
X104670000Y-21650000D01*
X104670000Y-69970000D02*
X104670000Y-21650000D01*
X107330000Y-71240000D02*
X107330000Y-72570000D01*
%TO.C,J4*%
X116627500Y-34285000D02*
X116627500Y-26605000D01*
X119287500Y-35555000D02*
X119287500Y-36885000D01*
X119287500Y-26605000D02*
X116627500Y-26605000D01*
X119287500Y-34285000D02*
X116627500Y-34285000D01*
X119287500Y-36885000D02*
X117957500Y-36885000D01*
X119287500Y-34285000D02*
X119287500Y-26605000D01*
%TO.C,J3*%
X68591500Y-38090000D02*
X68591500Y-30410000D01*
X71251500Y-39360000D02*
X71251500Y-40690000D01*
X71251500Y-30410000D02*
X68591500Y-30410000D01*
X71251500Y-38090000D02*
X68591500Y-38090000D01*
X71251500Y-40690000D02*
X69921500Y-40690000D01*
X71251500Y-38090000D02*
X71251500Y-30410000D01*
%TO.C,J2*%
X76200000Y-58480000D02*
X76200000Y-55820000D01*
X94040000Y-58480000D02*
X94040000Y-55820000D01*
X76200000Y-58480000D02*
X94040000Y-58480000D01*
X74930000Y-58480000D02*
X73600000Y-58480000D01*
X76200000Y-55820000D02*
X94040000Y-55820000D01*
X73600000Y-58480000D02*
X73600000Y-57150000D01*
%TO.C,J1*%
X129840000Y-36830000D02*
X129840000Y-38160000D01*
X129840000Y-32960000D02*
X127180000Y-32960000D01*
X129840000Y-35560000D02*
X129840000Y-32960000D01*
X129840000Y-35560000D02*
X127180000Y-35560000D01*
X129840000Y-38160000D02*
X128510000Y-38160000D01*
X127180000Y-35560000D02*
X127180000Y-32960000D01*
%TO.C,C5*%
X118088748Y-56615000D02*
X118611252Y-56615000D01*
X118088748Y-55145000D02*
X118611252Y-55145000D01*
%TO.C,C4*%
X49056500Y-58681252D02*
X49056500Y-58158748D01*
X50526500Y-58681252D02*
X50526500Y-58158748D01*
%TO.C,C3*%
X56676500Y-51061252D02*
X56676500Y-50538748D01*
X58146500Y-51061252D02*
X58146500Y-50538748D01*
%TO.C,C2*%
X65195000Y-30741252D02*
X65195000Y-30218748D01*
X63725000Y-30741252D02*
X63725000Y-30218748D01*
%TO.C,C1*%
X56105000Y-38361252D02*
X56105000Y-37838748D01*
X57575000Y-38361252D02*
X57575000Y-37838748D01*
%TO.C,BT1*%
X64650500Y-54550000D02*
X67250500Y-54550000D01*
X62050500Y-57210000D02*
X62050500Y-55880000D01*
X64650500Y-57210000D02*
X64650500Y-54550000D01*
X64650500Y-57210000D02*
X67250500Y-57210000D01*
X67250500Y-57210000D02*
X67250500Y-54550000D01*
X63380500Y-57210000D02*
X62050500Y-57210000D01*
%TD*%
%LPC*%
D16*
%TO.C,U2*%
X76975000Y-29105000D03*
X76975000Y-30375000D03*
X76975000Y-31645000D03*
X76975000Y-32915000D03*
X76975000Y-34185000D03*
X76975000Y-35455000D03*
X76975000Y-36725000D03*
X76975000Y-37995000D03*
X76975000Y-39265000D03*
X76975000Y-40535000D03*
X76975000Y-41805000D03*
X76975000Y-43075000D03*
X76975000Y-44345000D03*
X76975000Y-45615000D03*
D17*
X80010000Y-46865000D03*
X81280000Y-46865000D03*
X82550000Y-46865000D03*
X83820000Y-46865000D03*
X85090000Y-46865000D03*
X86360000Y-46865000D03*
X87630000Y-46865000D03*
X88900000Y-46865000D03*
X90170000Y-46865000D03*
X91440000Y-46865000D03*
D16*
X94475000Y-45615000D03*
X94475000Y-44345000D03*
X94475000Y-43075000D03*
X94475000Y-41805000D03*
X94475000Y-40535000D03*
X94475000Y-39265000D03*
X94475000Y-37995000D03*
X94475000Y-36725000D03*
X94475000Y-35455000D03*
X94475000Y-34185000D03*
X94475000Y-32915000D03*
X94475000Y-31645000D03*
X94475000Y-30375000D03*
X94475000Y-29105000D03*
D18*
X82825000Y-35425000D03*
X84225000Y-35425000D03*
X85625000Y-35425000D03*
X82825000Y-36825000D03*
X84225000Y-36825000D03*
X85625000Y-36825000D03*
X82825000Y-38225000D03*
X84225000Y-38225000D03*
X85625000Y-38225000D03*
%TD*%
D19*
%TO.C,U4*%
X121855200Y-52070000D03*
X121855200Y-53340000D03*
X121855200Y-54610000D03*
X132624800Y-54610000D03*
X132624800Y-53340000D03*
X132624800Y-52070000D03*
%TD*%
D20*
%TO.C,J9*%
X117957500Y-49525000D03*
D21*
X117957500Y-46985000D03*
X117957500Y-44445000D03*
X117957500Y-41905000D03*
%TD*%
D22*
%TO.C,VBatt*%
X62110500Y-59690000D03*
%TD*%
%TO.C,3.3V*%
X55760500Y-59690000D03*
%TD*%
D23*
%TO.C,GND*%
X68000000Y-61000000D03*
%TD*%
%TO.C,18V*%
X59570500Y-30480000D03*
%TD*%
D24*
%TO.C,D2*%
X49791500Y-50580000D03*
X49791500Y-53560000D03*
%TD*%
%TO.C,D1*%
X64460000Y-38320000D03*
X64460000Y-35340000D03*
%TD*%
D25*
%TO.C,U6*%
X116445000Y-63430000D03*
X117715000Y-63430000D03*
X118985000Y-63430000D03*
X120255000Y-63430000D03*
X120255000Y-58490000D03*
X118985000Y-58490000D03*
X117715000Y-58490000D03*
X116445000Y-58490000D03*
%TD*%
D26*
%TO.C,U5*%
X133577300Y-45480000D03*
X133577300Y-40880000D03*
D27*
X125220700Y-43180000D03*
%TD*%
D28*
%TO.C,U3*%
X52590500Y-49700000D03*
X54490500Y-49700000D03*
X54490500Y-52070000D03*
X53540500Y-52070000D03*
X52590500Y-52070000D03*
%TD*%
D29*
%TO.C,U1*%
X61600000Y-36915000D03*
X60650000Y-36915000D03*
X59700000Y-36915000D03*
X59700000Y-39285000D03*
X61600000Y-39285000D03*
%TD*%
D30*
%TO.C,R12*%
X118350000Y-66397500D03*
X118350000Y-68222500D03*
%TD*%
D31*
%TO.C,R11*%
X115810000Y-68222500D03*
X115810000Y-66397500D03*
%TD*%
D32*
%TO.C,R10*%
X111087500Y-62230000D03*
X112912500Y-62230000D03*
%TD*%
D30*
%TO.C,R9*%
X120890000Y-66397500D03*
X120890000Y-68222500D03*
%TD*%
%TO.C,R8*%
X128117500Y-27032500D03*
X128117500Y-28857500D03*
%TD*%
D32*
%TO.C,R7*%
X122517500Y-57150000D03*
X124342500Y-57150000D03*
%TD*%
D31*
%TO.C,R6*%
X133590000Y-49172500D03*
X133590000Y-47347500D03*
%TD*%
%TO.C,R5*%
X124700000Y-37385000D03*
X124700000Y-35560000D03*
%TD*%
D33*
%TO.C,R4*%
X56499000Y-54610000D03*
X58324000Y-54610000D03*
%TD*%
%TO.C,R3*%
X57752500Y-34290000D03*
X55927500Y-34290000D03*
%TD*%
%TO.C,R2*%
X61562500Y-34290000D03*
X59737500Y-34290000D03*
%TD*%
%TO.C,R1*%
X52689000Y-54610000D03*
X54514000Y-54610000D03*
%TD*%
D34*
%TO.C,FET2*%
X63060501Y-49606200D03*
X61160499Y-49606200D03*
X62110500Y-51993800D03*
%TD*%
%TO.C,FET1*%
X121767500Y-29215000D03*
X123667502Y-29215000D03*
X122717501Y-26827400D03*
%TD*%
D35*
%TO.C,L2*%
X54490500Y-44450000D03*
X49791500Y-44450000D03*
%TD*%
%TO.C,L1*%
X64269500Y-44450000D03*
X59570500Y-44450000D03*
%TD*%
D21*
%TO.C,J8*%
X124700000Y-67310000D03*
D20*
X127240000Y-67310000D03*
%TD*%
%TO.C,J7*%
X49000000Y-30200000D03*
D21*
X49000000Y-32740000D03*
X49000000Y-35280000D03*
X49000000Y-37820000D03*
%TD*%
D20*
%TO.C,J6*%
X125577500Y-24135000D03*
D21*
X128117500Y-24135000D03*
%TD*%
%TO.C,J5*%
X106000000Y-22980000D03*
X106000000Y-25520000D03*
X106000000Y-28060000D03*
X106000000Y-30600000D03*
X106000000Y-33140000D03*
X106000000Y-35680000D03*
X106000000Y-38220000D03*
X106000000Y-40760000D03*
X106000000Y-43300000D03*
X106000000Y-45840000D03*
X106000000Y-48380000D03*
X106000000Y-50920000D03*
X106000000Y-53460000D03*
X106000000Y-56000000D03*
X106000000Y-58540000D03*
X106000000Y-61080000D03*
X106000000Y-63620000D03*
X106000000Y-66160000D03*
X106000000Y-68700000D03*
D20*
X106000000Y-71240000D03*
%TD*%
%TO.C,J4*%
X117957500Y-35555000D03*
D21*
X117957500Y-33015000D03*
X117957500Y-30475000D03*
X117957500Y-27935000D03*
%TD*%
D20*
%TO.C,J3*%
X69921500Y-39360000D03*
D21*
X69921500Y-36820000D03*
X69921500Y-34280000D03*
X69921500Y-31740000D03*
%TD*%
D20*
%TO.C,J2*%
X74930000Y-57150000D03*
D21*
X77470000Y-57150000D03*
X80010000Y-57150000D03*
X82550000Y-57150000D03*
X85090000Y-57150000D03*
X87630000Y-57150000D03*
X90170000Y-57150000D03*
X92710000Y-57150000D03*
%TD*%
D20*
%TO.C,J1*%
X128510000Y-36830000D03*
D21*
X128510000Y-34290000D03*
%TD*%
D36*
%TO.C,C5*%
X117400000Y-55880000D03*
X119300000Y-55880000D03*
%TD*%
D37*
%TO.C,C4*%
X49791500Y-57470000D03*
X49791500Y-59370000D03*
%TD*%
%TO.C,C3*%
X57411500Y-49850000D03*
X57411500Y-51750000D03*
%TD*%
%TO.C,C2*%
X64460000Y-31430000D03*
X64460000Y-29530000D03*
%TD*%
%TO.C,C1*%
X56840000Y-37150000D03*
X56840000Y-39050000D03*
%TD*%
D21*
%TO.C,BT1*%
X65920500Y-55880000D03*
D20*
X63380500Y-55880000D03*
%TD*%
%LPD*%
M02*
